G04 (created by PCBNEW (2013-07-07 BZR 4022)-stable) date 10/23/2014 11:52:32 AM*
%MOIN*%
G04 Gerber Fmt 3.4, Leading zero omitted, Abs format*
%FSLAX34Y34*%
G01*
G70*
G90*
G04 APERTURE LIST*
%ADD10C,0.00590551*%
%ADD11C,0.05*%
%ADD12C,0.07*%
%ADD13C,0.08*%
%ADD14C,0.075*%
%ADD15O,0.06X0.1*%
%ADD16C,0.027*%
%ADD17C,0.035*%
%ADD18C,0.01*%
%ADD19C,0.024*%
%ADD20C,0.019*%
G04 APERTURE END LIST*
G54D10*
G54D11*
X71873Y-28705D03*
X73794Y-28705D03*
G54D12*
X79716Y-33432D03*
X62548Y-40083D03*
X63555Y-40087D03*
G54D13*
X63121Y-43557D03*
X61151Y-43557D03*
X62141Y-42527D03*
G54D14*
X84798Y-32822D03*
X84798Y-34200D03*
X84798Y-35578D03*
X84798Y-36956D03*
X84798Y-38334D03*
X84798Y-39712D03*
X84759Y-40885D03*
X84759Y-42263D03*
G54D12*
X66350Y-44630D03*
G54D15*
X75890Y-26534D03*
X74890Y-26534D03*
X73890Y-26534D03*
X72890Y-26534D03*
X71890Y-26534D03*
X70890Y-26534D03*
X69890Y-26534D03*
X68890Y-26534D03*
X73490Y-45534D03*
X72490Y-45534D03*
X71490Y-45534D03*
X70490Y-45534D03*
X74490Y-45534D03*
X75490Y-45534D03*
X76490Y-45534D03*
X77490Y-45534D03*
X79490Y-45534D03*
X80490Y-45534D03*
X81490Y-45534D03*
X82490Y-45534D03*
X83490Y-45534D03*
X84490Y-45534D03*
X84490Y-26534D03*
X83490Y-26534D03*
X82490Y-26534D03*
X81490Y-26534D03*
X80490Y-26534D03*
X79490Y-26534D03*
X78490Y-26534D03*
X77490Y-26534D03*
G54D16*
X70390Y-27490D03*
X69220Y-27880D03*
X74339Y-32369D03*
X81284Y-35497D03*
X81417Y-31806D03*
X74648Y-29448D03*
X76685Y-31297D03*
X70974Y-29411D03*
X65170Y-43010D03*
X65950Y-39820D03*
X68260Y-39000D03*
X69310Y-39590D03*
X74358Y-35312D03*
X72729Y-36270D03*
X73418Y-36419D03*
X64150Y-35830D03*
X68060Y-34970D03*
X76426Y-35651D03*
X78219Y-34857D03*
X70760Y-41670D03*
G54D17*
X75636Y-39866D03*
X75210Y-42750D03*
G54D18*
X70390Y-27490D02*
X71680Y-27490D01*
X71680Y-27490D02*
X71890Y-27280D01*
X71890Y-27280D02*
X71890Y-26534D01*
X69220Y-27880D02*
X69300Y-27800D01*
X69300Y-27800D02*
X72420Y-27800D01*
X72420Y-27800D02*
X72890Y-27330D01*
X72890Y-27330D02*
X72890Y-26534D01*
G54D19*
X77522Y-37900D02*
X84450Y-37900D01*
X84798Y-38248D02*
X84798Y-38334D01*
X84450Y-37900D02*
X84798Y-38248D01*
X73335Y-38415D02*
X73860Y-37890D01*
X77750Y-37900D02*
X77522Y-37900D01*
X77522Y-37900D02*
X74350Y-37900D01*
X74340Y-37890D02*
X74350Y-37900D01*
X73860Y-37890D02*
X74340Y-37890D01*
X73000Y-44300D02*
X73900Y-44300D01*
X74452Y-45535D02*
X74452Y-44852D01*
X74452Y-44852D02*
X74200Y-44600D01*
X73350Y-38400D02*
X73335Y-38415D01*
X73335Y-38415D02*
X73000Y-38750D01*
X73000Y-38750D02*
X73000Y-44300D01*
X73900Y-44300D02*
X74200Y-44600D01*
G54D18*
X74339Y-32369D02*
X74339Y-32367D01*
G54D19*
X81417Y-31806D02*
X81399Y-31806D01*
G54D18*
X74648Y-29448D02*
X74648Y-29430D01*
X70974Y-29411D02*
X70974Y-29430D01*
X74358Y-35312D02*
X74349Y-35312D01*
X72729Y-36270D02*
X72725Y-36270D01*
X64150Y-35830D02*
X64150Y-35840D01*
X76426Y-35651D02*
X76412Y-35651D01*
G54D10*
G36*
X86104Y-44365D02*
X85723Y-44809D01*
X85468Y-45064D01*
X85468Y-39579D01*
X85366Y-39333D01*
X85178Y-39144D01*
X84932Y-39042D01*
X84665Y-39042D01*
X84419Y-39144D01*
X84230Y-39332D01*
X84128Y-39578D01*
X84128Y-39845D01*
X84230Y-40091D01*
X84418Y-40280D01*
X84444Y-40290D01*
X84380Y-40317D01*
X84191Y-40505D01*
X84089Y-40751D01*
X84088Y-41018D01*
X84190Y-41264D01*
X84379Y-41453D01*
X84625Y-41555D01*
X84891Y-41555D01*
X85138Y-41454D01*
X85326Y-41265D01*
X85428Y-41019D01*
X85429Y-40753D01*
X85327Y-40506D01*
X85139Y-40318D01*
X85113Y-40307D01*
X85177Y-40280D01*
X85366Y-40092D01*
X85468Y-39846D01*
X85468Y-39579D01*
X85468Y-45064D01*
X85429Y-45104D01*
X85429Y-42130D01*
X85327Y-41884D01*
X85139Y-41695D01*
X84892Y-41593D01*
X84626Y-41593D01*
X84380Y-41695D01*
X84191Y-41883D01*
X84089Y-42129D01*
X84088Y-42396D01*
X84190Y-42642D01*
X84379Y-42831D01*
X84625Y-42933D01*
X84891Y-42933D01*
X85138Y-42831D01*
X85326Y-42643D01*
X85428Y-42397D01*
X85429Y-42130D01*
X85429Y-45104D01*
X85223Y-45310D01*
X85152Y-45415D01*
X85128Y-45540D01*
X85128Y-45930D01*
X85082Y-46217D01*
X84840Y-46217D01*
X84910Y-46170D01*
X85039Y-45977D01*
X85085Y-45749D01*
X85085Y-45318D01*
X85039Y-45090D01*
X84910Y-44897D01*
X84717Y-44768D01*
X84490Y-44723D01*
X84262Y-44768D01*
X84069Y-44897D01*
X83989Y-45016D01*
X83910Y-44897D01*
X83717Y-44768D01*
X83490Y-44723D01*
X83262Y-44768D01*
X83069Y-44897D01*
X82989Y-45016D01*
X82910Y-44897D01*
X82717Y-44768D01*
X82490Y-44723D01*
X82262Y-44768D01*
X82069Y-44897D01*
X81989Y-45016D01*
X81910Y-44897D01*
X81717Y-44768D01*
X81490Y-44723D01*
X81262Y-44768D01*
X81069Y-44897D01*
X80989Y-45016D01*
X80910Y-44897D01*
X80717Y-44768D01*
X80490Y-44723D01*
X80262Y-44768D01*
X80069Y-44897D01*
X79989Y-45016D01*
X79910Y-44897D01*
X79717Y-44768D01*
X79490Y-44723D01*
X79262Y-44768D01*
X79069Y-44897D01*
X78940Y-45090D01*
X78895Y-45318D01*
X78895Y-45749D01*
X78940Y-45977D01*
X79069Y-46170D01*
X79139Y-46217D01*
X77840Y-46217D01*
X77910Y-46170D01*
X78039Y-45977D01*
X78085Y-45749D01*
X78085Y-45318D01*
X78039Y-45090D01*
X77910Y-44897D01*
X77717Y-44768D01*
X77490Y-44723D01*
X77262Y-44768D01*
X77069Y-44897D01*
X76984Y-45023D01*
X76907Y-44909D01*
X76713Y-44782D01*
X76588Y-44747D01*
X76495Y-44812D01*
X76495Y-45529D01*
X76502Y-45529D01*
X76502Y-45539D01*
X76495Y-45539D01*
X76495Y-45546D01*
X76485Y-45546D01*
X76485Y-45539D01*
X76485Y-45529D01*
X76485Y-44812D01*
X76391Y-44747D01*
X76266Y-44782D01*
X76072Y-44909D01*
X75990Y-45031D01*
X75907Y-44909D01*
X75713Y-44782D01*
X75588Y-44747D01*
X75495Y-44812D01*
X75495Y-45529D01*
X75895Y-45529D01*
X76085Y-45529D01*
X76485Y-45529D01*
X76485Y-45539D01*
X76085Y-45539D01*
X75895Y-45539D01*
X75495Y-45539D01*
X75495Y-45546D01*
X75485Y-45546D01*
X75485Y-45539D01*
X75477Y-45539D01*
X75477Y-45529D01*
X75485Y-45529D01*
X75485Y-44812D01*
X75391Y-44747D01*
X75266Y-44782D01*
X75072Y-44909D01*
X74995Y-45023D01*
X74910Y-44897D01*
X74867Y-44868D01*
X74867Y-44852D01*
X74836Y-44693D01*
X74836Y-44693D01*
X74746Y-44559D01*
X74493Y-44306D01*
X74493Y-44306D01*
X74493Y-44306D01*
X74193Y-44006D01*
X74058Y-43916D01*
X73900Y-43885D01*
X73415Y-43885D01*
X73415Y-38921D01*
X73628Y-38708D01*
X73643Y-38693D01*
X73643Y-38693D01*
X74031Y-38305D01*
X74299Y-38305D01*
X74350Y-38315D01*
X77522Y-38315D01*
X77750Y-38315D01*
X84128Y-38315D01*
X84128Y-38467D01*
X84230Y-38713D01*
X84418Y-38902D01*
X84664Y-39004D01*
X84931Y-39004D01*
X85177Y-38902D01*
X85366Y-38714D01*
X85468Y-38468D01*
X85468Y-38201D01*
X85366Y-37955D01*
X85197Y-37786D01*
X85968Y-37780D01*
X86104Y-44365D01*
X86104Y-44365D01*
G37*
G54D20*
X86104Y-44365D02*
X85723Y-44809D01*
X85468Y-45064D01*
X85468Y-39579D01*
X85366Y-39333D01*
X85178Y-39144D01*
X84932Y-39042D01*
X84665Y-39042D01*
X84419Y-39144D01*
X84230Y-39332D01*
X84128Y-39578D01*
X84128Y-39845D01*
X84230Y-40091D01*
X84418Y-40280D01*
X84444Y-40290D01*
X84380Y-40317D01*
X84191Y-40505D01*
X84089Y-40751D01*
X84088Y-41018D01*
X84190Y-41264D01*
X84379Y-41453D01*
X84625Y-41555D01*
X84891Y-41555D01*
X85138Y-41454D01*
X85326Y-41265D01*
X85428Y-41019D01*
X85429Y-40753D01*
X85327Y-40506D01*
X85139Y-40318D01*
X85113Y-40307D01*
X85177Y-40280D01*
X85366Y-40092D01*
X85468Y-39846D01*
X85468Y-39579D01*
X85468Y-45064D01*
X85429Y-45104D01*
X85429Y-42130D01*
X85327Y-41884D01*
X85139Y-41695D01*
X84892Y-41593D01*
X84626Y-41593D01*
X84380Y-41695D01*
X84191Y-41883D01*
X84089Y-42129D01*
X84088Y-42396D01*
X84190Y-42642D01*
X84379Y-42831D01*
X84625Y-42933D01*
X84891Y-42933D01*
X85138Y-42831D01*
X85326Y-42643D01*
X85428Y-42397D01*
X85429Y-42130D01*
X85429Y-45104D01*
X85223Y-45310D01*
X85152Y-45415D01*
X85128Y-45540D01*
X85128Y-45930D01*
X85082Y-46217D01*
X84840Y-46217D01*
X84910Y-46170D01*
X85039Y-45977D01*
X85085Y-45749D01*
X85085Y-45318D01*
X85039Y-45090D01*
X84910Y-44897D01*
X84717Y-44768D01*
X84490Y-44723D01*
X84262Y-44768D01*
X84069Y-44897D01*
X83989Y-45016D01*
X83910Y-44897D01*
X83717Y-44768D01*
X83490Y-44723D01*
X83262Y-44768D01*
X83069Y-44897D01*
X82989Y-45016D01*
X82910Y-44897D01*
X82717Y-44768D01*
X82490Y-44723D01*
X82262Y-44768D01*
X82069Y-44897D01*
X81989Y-45016D01*
X81910Y-44897D01*
X81717Y-44768D01*
X81490Y-44723D01*
X81262Y-44768D01*
X81069Y-44897D01*
X80989Y-45016D01*
X80910Y-44897D01*
X80717Y-44768D01*
X80490Y-44723D01*
X80262Y-44768D01*
X80069Y-44897D01*
X79989Y-45016D01*
X79910Y-44897D01*
X79717Y-44768D01*
X79490Y-44723D01*
X79262Y-44768D01*
X79069Y-44897D01*
X78940Y-45090D01*
X78895Y-45318D01*
X78895Y-45749D01*
X78940Y-45977D01*
X79069Y-46170D01*
X79139Y-46217D01*
X77840Y-46217D01*
X77910Y-46170D01*
X78039Y-45977D01*
X78085Y-45749D01*
X78085Y-45318D01*
X78039Y-45090D01*
X77910Y-44897D01*
X77717Y-44768D01*
X77490Y-44723D01*
X77262Y-44768D01*
X77069Y-44897D01*
X76984Y-45023D01*
X76907Y-44909D01*
X76713Y-44782D01*
X76588Y-44747D01*
X76495Y-44812D01*
X76495Y-45529D01*
X76502Y-45529D01*
X76502Y-45539D01*
X76495Y-45539D01*
X76495Y-45546D01*
X76485Y-45546D01*
X76485Y-45539D01*
X76485Y-45529D01*
X76485Y-44812D01*
X76391Y-44747D01*
X76266Y-44782D01*
X76072Y-44909D01*
X75990Y-45031D01*
X75907Y-44909D01*
X75713Y-44782D01*
X75588Y-44747D01*
X75495Y-44812D01*
X75495Y-45529D01*
X75895Y-45529D01*
X76085Y-45529D01*
X76485Y-45529D01*
X76485Y-45539D01*
X76085Y-45539D01*
X75895Y-45539D01*
X75495Y-45539D01*
X75495Y-45546D01*
X75485Y-45546D01*
X75485Y-45539D01*
X75477Y-45539D01*
X75477Y-45529D01*
X75485Y-45529D01*
X75485Y-44812D01*
X75391Y-44747D01*
X75266Y-44782D01*
X75072Y-44909D01*
X74995Y-45023D01*
X74910Y-44897D01*
X74867Y-44868D01*
X74867Y-44852D01*
X74836Y-44693D01*
X74836Y-44693D01*
X74746Y-44559D01*
X74493Y-44306D01*
X74493Y-44306D01*
X74493Y-44306D01*
X74193Y-44006D01*
X74058Y-43916D01*
X73900Y-43885D01*
X73415Y-43885D01*
X73415Y-38921D01*
X73628Y-38708D01*
X73643Y-38693D01*
X73643Y-38693D01*
X74031Y-38305D01*
X74299Y-38305D01*
X74350Y-38315D01*
X77522Y-38315D01*
X77750Y-38315D01*
X84128Y-38315D01*
X84128Y-38467D01*
X84230Y-38713D01*
X84418Y-38902D01*
X84664Y-39004D01*
X84931Y-39004D01*
X85177Y-38902D01*
X85366Y-38714D01*
X85468Y-38468D01*
X85468Y-38201D01*
X85366Y-37955D01*
X85197Y-37786D01*
X85968Y-37780D01*
X86104Y-44365D01*
G54D10*
G36*
X85684Y-31781D02*
X85647Y-36346D01*
X85661Y-37225D01*
X85411Y-37227D01*
X85468Y-37090D01*
X85468Y-36823D01*
X85468Y-35445D01*
X85468Y-34067D01*
X85468Y-32690D01*
X85366Y-32443D01*
X85178Y-32255D01*
X84932Y-32152D01*
X84665Y-32152D01*
X84419Y-32254D01*
X84230Y-32442D01*
X84128Y-32688D01*
X84128Y-32955D01*
X84230Y-33201D01*
X84418Y-33390D01*
X84664Y-33492D01*
X84931Y-33492D01*
X85177Y-33391D01*
X85366Y-33202D01*
X85468Y-32956D01*
X85468Y-32690D01*
X85468Y-34067D01*
X85366Y-33821D01*
X85178Y-33632D01*
X84932Y-33530D01*
X84665Y-33530D01*
X84419Y-33632D01*
X84230Y-33820D01*
X84128Y-34066D01*
X84128Y-34333D01*
X84230Y-34579D01*
X84418Y-34768D01*
X84664Y-34870D01*
X84931Y-34870D01*
X85177Y-34768D01*
X85366Y-34580D01*
X85468Y-34334D01*
X85468Y-34067D01*
X85468Y-35445D01*
X85366Y-35199D01*
X85178Y-35010D01*
X84932Y-34908D01*
X84665Y-34908D01*
X84419Y-35010D01*
X84230Y-35198D01*
X84128Y-35444D01*
X84128Y-35711D01*
X84230Y-35957D01*
X84418Y-36146D01*
X84664Y-36248D01*
X84931Y-36248D01*
X85177Y-36146D01*
X85366Y-35958D01*
X85468Y-35712D01*
X85468Y-35445D01*
X85468Y-36823D01*
X85366Y-36577D01*
X85178Y-36388D01*
X84932Y-36286D01*
X84665Y-36286D01*
X84419Y-36388D01*
X84230Y-36576D01*
X84128Y-36822D01*
X84128Y-37089D01*
X84189Y-37236D01*
X80361Y-37265D01*
X80361Y-33304D01*
X80263Y-33067D01*
X80081Y-32885D01*
X79844Y-32787D01*
X79588Y-32786D01*
X79351Y-32884D01*
X79169Y-33066D01*
X79071Y-33303D01*
X79070Y-33559D01*
X79168Y-33796D01*
X79350Y-33978D01*
X79587Y-34076D01*
X79843Y-34077D01*
X80080Y-33979D01*
X80262Y-33797D01*
X80360Y-33560D01*
X80361Y-33304D01*
X80361Y-37265D01*
X74339Y-37309D01*
X74339Y-28597D01*
X74256Y-28397D01*
X74103Y-28243D01*
X73903Y-28160D01*
X73686Y-28160D01*
X73486Y-28243D01*
X73332Y-28396D01*
X73249Y-28596D01*
X73249Y-28813D01*
X73332Y-29013D01*
X73485Y-29167D01*
X73685Y-29250D01*
X73902Y-29250D01*
X74102Y-29167D01*
X74256Y-29014D01*
X74339Y-28814D01*
X74339Y-28597D01*
X74339Y-37309D01*
X72494Y-37323D01*
X72534Y-44732D01*
X72490Y-44723D01*
X72418Y-44737D01*
X72418Y-28597D01*
X72335Y-28397D01*
X72182Y-28243D01*
X71982Y-28160D01*
X71765Y-28160D01*
X71564Y-28243D01*
X71411Y-28396D01*
X71328Y-28596D01*
X71328Y-28813D01*
X71410Y-29013D01*
X71564Y-29167D01*
X71764Y-29250D01*
X71981Y-29250D01*
X72181Y-29167D01*
X72334Y-29014D01*
X72418Y-28814D01*
X72418Y-28597D01*
X72418Y-44737D01*
X72262Y-44768D01*
X72069Y-44897D01*
X71990Y-45016D01*
X71910Y-44897D01*
X71717Y-44768D01*
X71490Y-44723D01*
X71262Y-44768D01*
X71069Y-44897D01*
X70990Y-45016D01*
X70910Y-44897D01*
X70717Y-44768D01*
X70490Y-44723D01*
X70262Y-44768D01*
X70069Y-44897D01*
X69940Y-45090D01*
X69895Y-45318D01*
X69895Y-45749D01*
X69940Y-45977D01*
X70069Y-46170D01*
X70139Y-46217D01*
X66995Y-46217D01*
X66995Y-44502D01*
X66897Y-44265D01*
X66715Y-44083D01*
X66478Y-43985D01*
X66222Y-43984D01*
X65985Y-44082D01*
X65803Y-44264D01*
X65705Y-44501D01*
X65704Y-44757D01*
X65802Y-44994D01*
X65984Y-45176D01*
X66221Y-45274D01*
X66477Y-45275D01*
X66714Y-45177D01*
X66896Y-44995D01*
X66994Y-44758D01*
X66995Y-44502D01*
X66995Y-46217D01*
X64200Y-46217D01*
X64200Y-39960D01*
X64102Y-39722D01*
X63921Y-39541D01*
X63684Y-39442D01*
X63428Y-39442D01*
X63190Y-39540D01*
X63039Y-39691D01*
X62964Y-39674D01*
X62957Y-39681D01*
X62957Y-39667D01*
X62930Y-39548D01*
X62696Y-39443D01*
X62440Y-39435D01*
X62200Y-39525D01*
X62165Y-39548D01*
X62138Y-39667D01*
X62548Y-40076D01*
X62957Y-39667D01*
X62957Y-39681D01*
X62555Y-40083D01*
X62964Y-40493D01*
X63033Y-40477D01*
X63190Y-40634D01*
X63427Y-40732D01*
X63683Y-40732D01*
X63920Y-40634D01*
X64102Y-40453D01*
X64200Y-40216D01*
X64200Y-39960D01*
X64200Y-46217D01*
X63816Y-46217D01*
X63816Y-43419D01*
X63710Y-43163D01*
X63515Y-42968D01*
X63259Y-42862D01*
X62983Y-42861D01*
X62957Y-42872D01*
X62957Y-40500D01*
X62548Y-40090D01*
X62540Y-40098D01*
X62540Y-40083D01*
X62131Y-39674D01*
X62013Y-39701D01*
X61907Y-39935D01*
X61899Y-40191D01*
X61989Y-40431D01*
X62013Y-40466D01*
X62131Y-40493D01*
X62540Y-40083D01*
X62540Y-40098D01*
X62138Y-40500D01*
X62165Y-40618D01*
X62399Y-40724D01*
X62655Y-40732D01*
X62895Y-40641D01*
X62930Y-40618D01*
X62957Y-40500D01*
X62957Y-42872D01*
X62840Y-42921D01*
X62840Y-42411D01*
X62742Y-42152D01*
X62717Y-42114D01*
X62593Y-42081D01*
X62586Y-42088D01*
X62586Y-42074D01*
X62553Y-41950D01*
X62301Y-41836D01*
X62025Y-41827D01*
X61766Y-41925D01*
X61728Y-41950D01*
X61695Y-42074D01*
X62141Y-42519D01*
X62586Y-42074D01*
X62586Y-42088D01*
X62148Y-42527D01*
X62593Y-42972D01*
X62717Y-42939D01*
X62831Y-42687D01*
X62840Y-42411D01*
X62840Y-42921D01*
X62727Y-42967D01*
X62586Y-43108D01*
X62586Y-42979D01*
X62141Y-42534D01*
X62133Y-42541D01*
X62133Y-42527D01*
X61688Y-42081D01*
X61564Y-42114D01*
X61450Y-42366D01*
X61441Y-42642D01*
X61539Y-42901D01*
X61564Y-42939D01*
X61688Y-42972D01*
X62133Y-42527D01*
X62133Y-42541D01*
X61695Y-42979D01*
X61728Y-43103D01*
X61980Y-43217D01*
X62256Y-43226D01*
X62515Y-43128D01*
X62553Y-43103D01*
X62586Y-42979D01*
X62586Y-43108D01*
X62532Y-43162D01*
X62426Y-43418D01*
X62425Y-43694D01*
X62531Y-43950D01*
X62726Y-44145D01*
X62982Y-44251D01*
X63258Y-44252D01*
X63514Y-44146D01*
X63709Y-43951D01*
X63815Y-43695D01*
X63816Y-43419D01*
X63816Y-46217D01*
X61850Y-46217D01*
X61850Y-43441D01*
X61752Y-43182D01*
X61727Y-43144D01*
X61603Y-43111D01*
X61596Y-43118D01*
X61596Y-43104D01*
X61563Y-42980D01*
X61311Y-42866D01*
X61035Y-42857D01*
X60776Y-42955D01*
X60738Y-42980D01*
X60705Y-43104D01*
X61151Y-43549D01*
X61596Y-43104D01*
X61596Y-43118D01*
X61158Y-43557D01*
X61603Y-44002D01*
X61727Y-43969D01*
X61841Y-43717D01*
X61850Y-43441D01*
X61850Y-46217D01*
X61596Y-46217D01*
X61596Y-44009D01*
X61151Y-43564D01*
X61143Y-43571D01*
X61143Y-43557D01*
X60698Y-43111D01*
X60574Y-43144D01*
X60460Y-43396D01*
X60451Y-43672D01*
X60549Y-43931D01*
X60574Y-43969D01*
X60698Y-44002D01*
X61143Y-43557D01*
X61143Y-43571D01*
X60705Y-44009D01*
X60738Y-44133D01*
X60990Y-44247D01*
X61266Y-44256D01*
X61525Y-44158D01*
X61563Y-44133D01*
X61596Y-44009D01*
X61596Y-46217D01*
X59777Y-46217D01*
X59777Y-26043D01*
X68418Y-25974D01*
X68340Y-26090D01*
X68295Y-26318D01*
X68295Y-26749D01*
X68340Y-26977D01*
X68469Y-27170D01*
X68662Y-27299D01*
X68890Y-27344D01*
X69117Y-27299D01*
X69310Y-27170D01*
X69390Y-27051D01*
X69469Y-27170D01*
X69662Y-27299D01*
X69890Y-27344D01*
X69993Y-27324D01*
X69960Y-27404D01*
X69960Y-27455D01*
X69317Y-27455D01*
X69305Y-27450D01*
X69134Y-27449D01*
X68976Y-27515D01*
X68855Y-27636D01*
X68790Y-27794D01*
X68789Y-27965D01*
X68855Y-28123D01*
X68976Y-28244D01*
X69134Y-28309D01*
X69305Y-28310D01*
X69463Y-28244D01*
X69563Y-28145D01*
X72420Y-28145D01*
X72552Y-28118D01*
X72552Y-28118D01*
X72663Y-28043D01*
X73133Y-27573D01*
X73208Y-27462D01*
X73208Y-27462D01*
X73235Y-27330D01*
X73235Y-27220D01*
X73310Y-27170D01*
X73390Y-27051D01*
X73469Y-27170D01*
X73662Y-27299D01*
X73890Y-27344D01*
X74117Y-27299D01*
X74310Y-27170D01*
X74390Y-27051D01*
X74469Y-27170D01*
X74662Y-27299D01*
X74890Y-27344D01*
X75117Y-27299D01*
X75310Y-27170D01*
X75390Y-27051D01*
X75469Y-27170D01*
X75662Y-27299D01*
X75890Y-27344D01*
X76117Y-27299D01*
X76310Y-27170D01*
X76439Y-26977D01*
X76485Y-26749D01*
X76485Y-26318D01*
X76439Y-26090D01*
X76319Y-25911D01*
X77064Y-25905D01*
X76940Y-26090D01*
X76895Y-26318D01*
X76895Y-26749D01*
X76940Y-26977D01*
X77069Y-27170D01*
X77262Y-27299D01*
X77490Y-27344D01*
X77717Y-27299D01*
X77910Y-27170D01*
X77990Y-27051D01*
X78069Y-27170D01*
X78262Y-27299D01*
X78490Y-27344D01*
X78717Y-27299D01*
X78910Y-27170D01*
X78990Y-27051D01*
X79069Y-27170D01*
X79262Y-27299D01*
X79490Y-27344D01*
X79717Y-27299D01*
X79910Y-27170D01*
X79990Y-27051D01*
X80069Y-27170D01*
X80262Y-27299D01*
X80490Y-27344D01*
X80717Y-27299D01*
X80910Y-27170D01*
X80990Y-27051D01*
X81069Y-27170D01*
X81262Y-27299D01*
X81490Y-27344D01*
X81717Y-27299D01*
X81910Y-27170D01*
X81990Y-27051D01*
X82069Y-27170D01*
X82262Y-27299D01*
X82490Y-27344D01*
X82717Y-27299D01*
X82910Y-27170D01*
X82990Y-27051D01*
X83069Y-27170D01*
X83262Y-27299D01*
X83490Y-27344D01*
X83717Y-27299D01*
X83910Y-27170D01*
X83990Y-27051D01*
X84069Y-27170D01*
X84262Y-27299D01*
X84490Y-27344D01*
X84519Y-27338D01*
X84585Y-30332D01*
X85684Y-31781D01*
X85684Y-31781D01*
G37*
G54D20*
X85684Y-31781D02*
X85647Y-36346D01*
X85661Y-37225D01*
X85411Y-37227D01*
X85468Y-37090D01*
X85468Y-36823D01*
X85468Y-35445D01*
X85468Y-34067D01*
X85468Y-32690D01*
X85366Y-32443D01*
X85178Y-32255D01*
X84932Y-32152D01*
X84665Y-32152D01*
X84419Y-32254D01*
X84230Y-32442D01*
X84128Y-32688D01*
X84128Y-32955D01*
X84230Y-33201D01*
X84418Y-33390D01*
X84664Y-33492D01*
X84931Y-33492D01*
X85177Y-33391D01*
X85366Y-33202D01*
X85468Y-32956D01*
X85468Y-32690D01*
X85468Y-34067D01*
X85366Y-33821D01*
X85178Y-33632D01*
X84932Y-33530D01*
X84665Y-33530D01*
X84419Y-33632D01*
X84230Y-33820D01*
X84128Y-34066D01*
X84128Y-34333D01*
X84230Y-34579D01*
X84418Y-34768D01*
X84664Y-34870D01*
X84931Y-34870D01*
X85177Y-34768D01*
X85366Y-34580D01*
X85468Y-34334D01*
X85468Y-34067D01*
X85468Y-35445D01*
X85366Y-35199D01*
X85178Y-35010D01*
X84932Y-34908D01*
X84665Y-34908D01*
X84419Y-35010D01*
X84230Y-35198D01*
X84128Y-35444D01*
X84128Y-35711D01*
X84230Y-35957D01*
X84418Y-36146D01*
X84664Y-36248D01*
X84931Y-36248D01*
X85177Y-36146D01*
X85366Y-35958D01*
X85468Y-35712D01*
X85468Y-35445D01*
X85468Y-36823D01*
X85366Y-36577D01*
X85178Y-36388D01*
X84932Y-36286D01*
X84665Y-36286D01*
X84419Y-36388D01*
X84230Y-36576D01*
X84128Y-36822D01*
X84128Y-37089D01*
X84189Y-37236D01*
X80361Y-37265D01*
X80361Y-33304D01*
X80263Y-33067D01*
X80081Y-32885D01*
X79844Y-32787D01*
X79588Y-32786D01*
X79351Y-32884D01*
X79169Y-33066D01*
X79071Y-33303D01*
X79070Y-33559D01*
X79168Y-33796D01*
X79350Y-33978D01*
X79587Y-34076D01*
X79843Y-34077D01*
X80080Y-33979D01*
X80262Y-33797D01*
X80360Y-33560D01*
X80361Y-33304D01*
X80361Y-37265D01*
X74339Y-37309D01*
X74339Y-28597D01*
X74256Y-28397D01*
X74103Y-28243D01*
X73903Y-28160D01*
X73686Y-28160D01*
X73486Y-28243D01*
X73332Y-28396D01*
X73249Y-28596D01*
X73249Y-28813D01*
X73332Y-29013D01*
X73485Y-29167D01*
X73685Y-29250D01*
X73902Y-29250D01*
X74102Y-29167D01*
X74256Y-29014D01*
X74339Y-28814D01*
X74339Y-28597D01*
X74339Y-37309D01*
X72494Y-37323D01*
X72534Y-44732D01*
X72490Y-44723D01*
X72418Y-44737D01*
X72418Y-28597D01*
X72335Y-28397D01*
X72182Y-28243D01*
X71982Y-28160D01*
X71765Y-28160D01*
X71564Y-28243D01*
X71411Y-28396D01*
X71328Y-28596D01*
X71328Y-28813D01*
X71410Y-29013D01*
X71564Y-29167D01*
X71764Y-29250D01*
X71981Y-29250D01*
X72181Y-29167D01*
X72334Y-29014D01*
X72418Y-28814D01*
X72418Y-28597D01*
X72418Y-44737D01*
X72262Y-44768D01*
X72069Y-44897D01*
X71990Y-45016D01*
X71910Y-44897D01*
X71717Y-44768D01*
X71490Y-44723D01*
X71262Y-44768D01*
X71069Y-44897D01*
X70990Y-45016D01*
X70910Y-44897D01*
X70717Y-44768D01*
X70490Y-44723D01*
X70262Y-44768D01*
X70069Y-44897D01*
X69940Y-45090D01*
X69895Y-45318D01*
X69895Y-45749D01*
X69940Y-45977D01*
X70069Y-46170D01*
X70139Y-46217D01*
X66995Y-46217D01*
X66995Y-44502D01*
X66897Y-44265D01*
X66715Y-44083D01*
X66478Y-43985D01*
X66222Y-43984D01*
X65985Y-44082D01*
X65803Y-44264D01*
X65705Y-44501D01*
X65704Y-44757D01*
X65802Y-44994D01*
X65984Y-45176D01*
X66221Y-45274D01*
X66477Y-45275D01*
X66714Y-45177D01*
X66896Y-44995D01*
X66994Y-44758D01*
X66995Y-44502D01*
X66995Y-46217D01*
X64200Y-46217D01*
X64200Y-39960D01*
X64102Y-39722D01*
X63921Y-39541D01*
X63684Y-39442D01*
X63428Y-39442D01*
X63190Y-39540D01*
X63039Y-39691D01*
X62964Y-39674D01*
X62957Y-39681D01*
X62957Y-39667D01*
X62930Y-39548D01*
X62696Y-39443D01*
X62440Y-39435D01*
X62200Y-39525D01*
X62165Y-39548D01*
X62138Y-39667D01*
X62548Y-40076D01*
X62957Y-39667D01*
X62957Y-39681D01*
X62555Y-40083D01*
X62964Y-40493D01*
X63033Y-40477D01*
X63190Y-40634D01*
X63427Y-40732D01*
X63683Y-40732D01*
X63920Y-40634D01*
X64102Y-40453D01*
X64200Y-40216D01*
X64200Y-39960D01*
X64200Y-46217D01*
X63816Y-46217D01*
X63816Y-43419D01*
X63710Y-43163D01*
X63515Y-42968D01*
X63259Y-42862D01*
X62983Y-42861D01*
X62957Y-42872D01*
X62957Y-40500D01*
X62548Y-40090D01*
X62540Y-40098D01*
X62540Y-40083D01*
X62131Y-39674D01*
X62013Y-39701D01*
X61907Y-39935D01*
X61899Y-40191D01*
X61989Y-40431D01*
X62013Y-40466D01*
X62131Y-40493D01*
X62540Y-40083D01*
X62540Y-40098D01*
X62138Y-40500D01*
X62165Y-40618D01*
X62399Y-40724D01*
X62655Y-40732D01*
X62895Y-40641D01*
X62930Y-40618D01*
X62957Y-40500D01*
X62957Y-42872D01*
X62840Y-42921D01*
X62840Y-42411D01*
X62742Y-42152D01*
X62717Y-42114D01*
X62593Y-42081D01*
X62586Y-42088D01*
X62586Y-42074D01*
X62553Y-41950D01*
X62301Y-41836D01*
X62025Y-41827D01*
X61766Y-41925D01*
X61728Y-41950D01*
X61695Y-42074D01*
X62141Y-42519D01*
X62586Y-42074D01*
X62586Y-42088D01*
X62148Y-42527D01*
X62593Y-42972D01*
X62717Y-42939D01*
X62831Y-42687D01*
X62840Y-42411D01*
X62840Y-42921D01*
X62727Y-42967D01*
X62586Y-43108D01*
X62586Y-42979D01*
X62141Y-42534D01*
X62133Y-42541D01*
X62133Y-42527D01*
X61688Y-42081D01*
X61564Y-42114D01*
X61450Y-42366D01*
X61441Y-42642D01*
X61539Y-42901D01*
X61564Y-42939D01*
X61688Y-42972D01*
X62133Y-42527D01*
X62133Y-42541D01*
X61695Y-42979D01*
X61728Y-43103D01*
X61980Y-43217D01*
X62256Y-43226D01*
X62515Y-43128D01*
X62553Y-43103D01*
X62586Y-42979D01*
X62586Y-43108D01*
X62532Y-43162D01*
X62426Y-43418D01*
X62425Y-43694D01*
X62531Y-43950D01*
X62726Y-44145D01*
X62982Y-44251D01*
X63258Y-44252D01*
X63514Y-44146D01*
X63709Y-43951D01*
X63815Y-43695D01*
X63816Y-43419D01*
X63816Y-46217D01*
X61850Y-46217D01*
X61850Y-43441D01*
X61752Y-43182D01*
X61727Y-43144D01*
X61603Y-43111D01*
X61596Y-43118D01*
X61596Y-43104D01*
X61563Y-42980D01*
X61311Y-42866D01*
X61035Y-42857D01*
X60776Y-42955D01*
X60738Y-42980D01*
X60705Y-43104D01*
X61151Y-43549D01*
X61596Y-43104D01*
X61596Y-43118D01*
X61158Y-43557D01*
X61603Y-44002D01*
X61727Y-43969D01*
X61841Y-43717D01*
X61850Y-43441D01*
X61850Y-46217D01*
X61596Y-46217D01*
X61596Y-44009D01*
X61151Y-43564D01*
X61143Y-43571D01*
X61143Y-43557D01*
X60698Y-43111D01*
X60574Y-43144D01*
X60460Y-43396D01*
X60451Y-43672D01*
X60549Y-43931D01*
X60574Y-43969D01*
X60698Y-44002D01*
X61143Y-43557D01*
X61143Y-43571D01*
X60705Y-44009D01*
X60738Y-44133D01*
X60990Y-44247D01*
X61266Y-44256D01*
X61525Y-44158D01*
X61563Y-44133D01*
X61596Y-44009D01*
X61596Y-46217D01*
X59777Y-46217D01*
X59777Y-26043D01*
X68418Y-25974D01*
X68340Y-26090D01*
X68295Y-26318D01*
X68295Y-26749D01*
X68340Y-26977D01*
X68469Y-27170D01*
X68662Y-27299D01*
X68890Y-27344D01*
X69117Y-27299D01*
X69310Y-27170D01*
X69390Y-27051D01*
X69469Y-27170D01*
X69662Y-27299D01*
X69890Y-27344D01*
X69993Y-27324D01*
X69960Y-27404D01*
X69960Y-27455D01*
X69317Y-27455D01*
X69305Y-27450D01*
X69134Y-27449D01*
X68976Y-27515D01*
X68855Y-27636D01*
X68790Y-27794D01*
X68789Y-27965D01*
X68855Y-28123D01*
X68976Y-28244D01*
X69134Y-28309D01*
X69305Y-28310D01*
X69463Y-28244D01*
X69563Y-28145D01*
X72420Y-28145D01*
X72552Y-28118D01*
X72552Y-28118D01*
X72663Y-28043D01*
X73133Y-27573D01*
X73208Y-27462D01*
X73208Y-27462D01*
X73235Y-27330D01*
X73235Y-27220D01*
X73310Y-27170D01*
X73390Y-27051D01*
X73469Y-27170D01*
X73662Y-27299D01*
X73890Y-27344D01*
X74117Y-27299D01*
X74310Y-27170D01*
X74390Y-27051D01*
X74469Y-27170D01*
X74662Y-27299D01*
X74890Y-27344D01*
X75117Y-27299D01*
X75310Y-27170D01*
X75390Y-27051D01*
X75469Y-27170D01*
X75662Y-27299D01*
X75890Y-27344D01*
X76117Y-27299D01*
X76310Y-27170D01*
X76439Y-26977D01*
X76485Y-26749D01*
X76485Y-26318D01*
X76439Y-26090D01*
X76319Y-25911D01*
X77064Y-25905D01*
X76940Y-26090D01*
X76895Y-26318D01*
X76895Y-26749D01*
X76940Y-26977D01*
X77069Y-27170D01*
X77262Y-27299D01*
X77490Y-27344D01*
X77717Y-27299D01*
X77910Y-27170D01*
X77990Y-27051D01*
X78069Y-27170D01*
X78262Y-27299D01*
X78490Y-27344D01*
X78717Y-27299D01*
X78910Y-27170D01*
X78990Y-27051D01*
X79069Y-27170D01*
X79262Y-27299D01*
X79490Y-27344D01*
X79717Y-27299D01*
X79910Y-27170D01*
X79990Y-27051D01*
X80069Y-27170D01*
X80262Y-27299D01*
X80490Y-27344D01*
X80717Y-27299D01*
X80910Y-27170D01*
X80990Y-27051D01*
X81069Y-27170D01*
X81262Y-27299D01*
X81490Y-27344D01*
X81717Y-27299D01*
X81910Y-27170D01*
X81990Y-27051D01*
X82069Y-27170D01*
X82262Y-27299D01*
X82490Y-27344D01*
X82717Y-27299D01*
X82910Y-27170D01*
X82990Y-27051D01*
X83069Y-27170D01*
X83262Y-27299D01*
X83490Y-27344D01*
X83717Y-27299D01*
X83910Y-27170D01*
X83990Y-27051D01*
X84069Y-27170D01*
X84262Y-27299D01*
X84490Y-27344D01*
X84519Y-27338D01*
X84585Y-30332D01*
X85684Y-31781D01*
G54D10*
G36*
X86150Y-36400D02*
X86141Y-36150D01*
X86150Y-36150D01*
X86150Y-36400D01*
X86150Y-36400D01*
G37*
G54D20*
X86150Y-36400D02*
X86141Y-36150D01*
X86150Y-36150D01*
X86150Y-36400D01*
M02*
