M48
;DRILL file {Pcbnew (2013-07-07 BZR 4022)-stable} date 10/23/2014 11:52:37 AM
;FORMAT={-:-/ absolute / inch / decimal}
FMAT,2
INCH,TZ
T1C0.013
T2C0.017
T3C0.035
T4C0.040
T5C0.045
T6C0.050
%
G90
G05
M72
T1
X6.415Y-3.583
X6.517Y-4.301
X6.595Y-3.982
X6.806Y-3.497
X6.826Y-3.9
X6.922Y-2.788
X6.931Y-3.959
X7.039Y-2.749
X7.076Y-4.167
X7.0974Y-2.9411
X7.2729Y-3.627
X7.3418Y-3.6419
X7.4339Y-3.2369
X7.4358Y-3.5312
X7.4648Y-2.9448
X7.6426Y-3.5651
X7.6685Y-3.1297
X7.8219Y-3.4857
X8.1284Y-3.5497
X8.1417Y-3.1806
T2
X7.521Y-4.275
X7.5636Y-3.9866
T3
X7.1873Y-2.8705
X7.3794Y-2.8705
T4
X6.2548Y-4.0084
X6.3556Y-4.0088
X6.635Y-4.463
X6.889Y-2.6534
X6.989Y-2.6534
X7.049Y-4.5534
X7.089Y-2.6534
X7.149Y-4.5534
X7.189Y-2.6534
X7.249Y-4.5534
X7.289Y-2.6534
X7.349Y-4.5534
X7.389Y-2.6534
X7.449Y-4.5534
X7.489Y-2.6534
X7.549Y-4.5534
X7.589Y-2.6534
X7.649Y-4.5534
X7.749Y-2.6534
X7.749Y-4.5534
X7.849Y-2.6534
X7.949Y-2.6534
X7.949Y-4.5534
X7.9716Y-3.3432
X8.049Y-2.6534
X8.049Y-4.5534
X8.149Y-2.6534
X8.149Y-4.5534
X8.249Y-2.6534
X8.249Y-4.5534
X8.349Y-2.6534
X8.349Y-4.5534
X8.449Y-2.6534
X8.449Y-4.5534
T5
X8.4759Y-4.0886
X8.4759Y-4.2264
X8.4798Y-3.2823
X8.4798Y-3.4201
X8.4798Y-3.5579
X8.4798Y-3.6957
X8.4798Y-3.8335
X8.4798Y-3.9712
T6
X6.1151Y-4.3557
X6.2141Y-4.2527
X6.3121Y-4.3557
T0
M30
