G04 (created by PCBNEW (2013-07-07 BZR 4022)-stable) date 10/23/2014 11:52:32 AM*
%MOIN*%
G04 Gerber Fmt 3.4, Leading zero omitted, Abs format*
%FSLAX34Y34*%
G01*
G70*
G90*
G04 APERTURE LIST*
%ADD10C,0.00590551*%
%ADD11C,0.05*%
%ADD12C,0.07*%
%ADD13C,0.08*%
%ADD14C,0.075*%
%ADD15O,0.06X0.1*%
G04 APERTURE END LIST*
G54D10*
%LPC*%
G54D11*
X71873Y-28705D03*
X73794Y-28705D03*
G54D12*
X79716Y-33432D03*
X62548Y-40083D03*
X63555Y-40087D03*
G54D13*
X63121Y-43557D03*
X61151Y-43557D03*
X62141Y-42527D03*
G54D14*
X84798Y-32822D03*
X84798Y-34200D03*
X84798Y-35578D03*
X84798Y-36956D03*
X84798Y-38334D03*
X84798Y-39712D03*
X84759Y-40885D03*
X84759Y-42263D03*
G54D12*
X66350Y-44630D03*
G54D15*
X75890Y-26534D03*
X74890Y-26534D03*
X73890Y-26534D03*
X72890Y-26534D03*
X71890Y-26534D03*
X70890Y-26534D03*
X69890Y-26534D03*
X68890Y-26534D03*
X73490Y-45534D03*
X72490Y-45534D03*
X71490Y-45534D03*
X70490Y-45534D03*
X74490Y-45534D03*
X75490Y-45534D03*
X76490Y-45534D03*
X77490Y-45534D03*
X79490Y-45534D03*
X80490Y-45534D03*
X81490Y-45534D03*
X82490Y-45534D03*
X83490Y-45534D03*
X84490Y-45534D03*
X84490Y-26534D03*
X83490Y-26534D03*
X82490Y-26534D03*
X81490Y-26534D03*
X80490Y-26534D03*
X79490Y-26534D03*
X78490Y-26534D03*
X77490Y-26534D03*
M02*
