G04 (created by PCBNEW (2013-07-07 BZR 4022)-stable) date 9/14/2014 5:25:06 AM*
%MOIN*%
G04 Gerber Fmt 3.4, Leading zero omitted, Abs format*
%FSLAX34Y34*%
G01*
G70*
G90*
G04 APERTURE LIST*
%ADD10C,0.00590551*%
%ADD11O,0.06X0.1*%
%ADD12C,0.0271654*%
%ADD13C,0.05*%
%ADD14C,0.07*%
%ADD15O,0.0393701X0.0590551*%
%ADD16O,0.0590551X0.0393701*%
%ADD17C,0.035*%
%ADD18C,0.027*%
%ADD19C,0.01*%
%ADD20C,0.001*%
%ADD21C,0.02*%
G04 APERTURE END LIST*
G54D10*
G54D11*
X75852Y-26535D03*
X74852Y-26535D03*
X73852Y-26535D03*
X72852Y-26535D03*
X71852Y-26535D03*
X70852Y-26535D03*
X69852Y-26535D03*
X68852Y-26535D03*
X73452Y-45535D03*
X72452Y-45535D03*
X71452Y-45535D03*
X70452Y-45535D03*
X74452Y-45535D03*
X75452Y-45535D03*
X76452Y-45535D03*
X77452Y-45535D03*
X79452Y-45535D03*
X80452Y-45535D03*
X81452Y-45535D03*
X82452Y-45535D03*
X83452Y-45535D03*
X84452Y-45535D03*
X84452Y-26535D03*
X83452Y-26535D03*
X82452Y-26535D03*
X81452Y-26535D03*
X80452Y-26535D03*
X79452Y-26535D03*
X78452Y-26535D03*
X77452Y-26535D03*
G54D12*
X62539Y-40070D03*
X63547Y-40074D03*
G54D13*
X67326Y-31602D03*
X67326Y-33523D03*
G54D14*
X84771Y-32813D03*
X84771Y-34191D03*
X84771Y-35569D03*
X84771Y-36947D03*
X84771Y-38325D03*
X84771Y-39703D03*
X84732Y-40876D03*
X84732Y-42254D03*
X82650Y-32930D03*
X70470Y-42570D03*
X79700Y-35300D03*
X78100Y-33380D03*
X73980Y-40060D03*
X67340Y-28200D03*
X66120Y-28230D03*
X64810Y-28220D03*
X68460Y-28230D03*
X82362Y-29448D03*
X80551Y-28267D03*
X79560Y-36940D03*
G54D15*
X61102Y-43582D03*
G54D16*
X62086Y-44448D03*
G54D15*
X62952Y-43622D03*
G54D14*
X74173Y-38031D03*
X82519Y-40236D03*
X82598Y-43464D03*
X73850Y-41340D03*
X80472Y-33740D03*
X80641Y-29988D03*
X61889Y-37244D03*
X63385Y-37244D03*
G54D17*
X74173Y-44881D03*
X75433Y-37952D03*
G54D18*
X75767Y-27320D03*
X84704Y-29468D03*
X69890Y-29760D03*
X72490Y-30020D03*
X72330Y-33930D03*
X70860Y-34270D03*
X78220Y-36560D03*
X77280Y-34480D03*
X76161Y-28811D03*
X73543Y-30551D03*
X70260Y-27560D03*
X70280Y-27560D03*
X69980Y-43550D03*
X69970Y-43550D03*
X76645Y-35735D03*
X73710Y-37030D03*
X71365Y-38220D03*
X79180Y-33360D03*
G54D17*
X78600Y-31800D03*
G54D18*
X73250Y-35170D03*
X73116Y-31406D03*
G54D17*
X66600Y-37600D03*
X66500Y-41400D03*
X64003Y-32039D03*
X65279Y-43480D03*
X75210Y-42750D03*
X74251Y-40787D03*
G54D19*
X74173Y-44881D02*
X73781Y-44881D01*
X73288Y-38031D02*
X74173Y-38031D01*
X73240Y-38080D02*
X73288Y-38031D01*
X73240Y-44340D02*
X73240Y-38080D01*
X73781Y-44881D02*
X73240Y-44340D01*
X75767Y-27320D02*
X75748Y-27339D01*
X75846Y-27320D02*
X75767Y-27320D01*
X82677Y-27320D02*
X75846Y-27320D01*
X84704Y-29468D02*
X82677Y-27320D01*
X80452Y-26811D02*
X80452Y-26535D01*
X66120Y-28220D02*
X66120Y-28810D01*
X67070Y-29760D02*
X69890Y-29760D01*
X66120Y-28810D02*
X67070Y-29760D01*
X64810Y-28220D02*
X64810Y-29160D01*
X72430Y-30080D02*
X72490Y-30020D01*
X65730Y-30080D02*
X72430Y-30080D01*
X64810Y-29160D02*
X65730Y-30080D01*
X72190Y-34070D02*
X72330Y-33930D01*
X71060Y-34070D02*
X72190Y-34070D01*
X70860Y-34270D02*
X71060Y-34070D01*
X78220Y-36560D02*
X77280Y-35620D01*
X77280Y-35620D02*
X77280Y-34480D01*
X75181Y-29791D02*
X73580Y-29791D01*
X76161Y-28811D02*
X75181Y-29791D01*
X73580Y-29440D02*
X73580Y-29791D01*
X73580Y-29791D02*
X73580Y-30000D01*
X73580Y-30000D02*
X73580Y-30514D01*
X68460Y-28230D02*
X68460Y-29130D01*
X68770Y-29440D02*
X73580Y-29440D01*
X68460Y-29130D02*
X68770Y-29440D01*
X73580Y-30514D02*
X73543Y-30551D01*
X80551Y-28267D02*
X80551Y-28071D01*
X70260Y-27560D02*
X70240Y-27540D01*
X70280Y-27560D02*
X70260Y-27560D01*
X72820Y-27560D02*
X70280Y-27560D01*
X72920Y-27660D02*
X72820Y-27560D01*
X80140Y-27660D02*
X72920Y-27660D01*
X80551Y-28071D02*
X80140Y-27660D01*
X69970Y-43550D02*
X69980Y-43550D01*
X76645Y-35735D02*
X76645Y-35750D01*
X73250Y-35170D02*
X73250Y-35160D01*
X73116Y-31406D02*
X73103Y-31406D01*
G54D10*
G36*
X85309Y-37573D02*
X83205Y-37583D01*
X83205Y-32820D01*
X83120Y-32616D01*
X82964Y-32459D01*
X82760Y-32375D01*
X82540Y-32374D01*
X82336Y-32459D01*
X82179Y-32615D01*
X82095Y-32819D01*
X82094Y-33039D01*
X82179Y-33243D01*
X82335Y-33400D01*
X82539Y-33484D01*
X82759Y-33485D01*
X82963Y-33400D01*
X83120Y-33244D01*
X83204Y-33040D01*
X83205Y-32820D01*
X83205Y-37583D01*
X81196Y-37591D01*
X81196Y-29878D01*
X81112Y-29674D01*
X80956Y-29517D01*
X80752Y-29433D01*
X80531Y-29433D01*
X80327Y-29517D01*
X80171Y-29673D01*
X80086Y-29877D01*
X80086Y-30098D01*
X80170Y-30302D01*
X80326Y-30458D01*
X80530Y-30543D01*
X80751Y-30543D01*
X80955Y-30458D01*
X81111Y-30302D01*
X81196Y-30099D01*
X81196Y-29878D01*
X81196Y-37591D01*
X81027Y-37592D01*
X81027Y-33630D01*
X80943Y-33426D01*
X80787Y-33269D01*
X80583Y-33185D01*
X80362Y-33185D01*
X80158Y-33269D01*
X80002Y-33425D01*
X79917Y-33629D01*
X79917Y-33850D01*
X80001Y-34054D01*
X80157Y-34210D01*
X80361Y-34295D01*
X80582Y-34295D01*
X80786Y-34210D01*
X80942Y-34054D01*
X81027Y-33851D01*
X81027Y-33630D01*
X81027Y-37592D01*
X80255Y-37595D01*
X80255Y-35190D01*
X80170Y-34986D01*
X80014Y-34829D01*
X79810Y-34745D01*
X79590Y-34744D01*
X79386Y-34829D01*
X79229Y-34985D01*
X79145Y-35189D01*
X79144Y-35409D01*
X79229Y-35613D01*
X79385Y-35770D01*
X79589Y-35854D01*
X79809Y-35855D01*
X80013Y-35770D01*
X80170Y-35614D01*
X80254Y-35410D01*
X80255Y-35190D01*
X80255Y-37595D01*
X80115Y-37596D01*
X80115Y-36830D01*
X80030Y-36626D01*
X79874Y-36469D01*
X79670Y-36385D01*
X79450Y-36384D01*
X79246Y-36469D01*
X79089Y-36625D01*
X79005Y-36829D01*
X79004Y-37049D01*
X79089Y-37253D01*
X79245Y-37410D01*
X79449Y-37494D01*
X79669Y-37495D01*
X79873Y-37410D01*
X80030Y-37254D01*
X80114Y-37050D01*
X80115Y-36830D01*
X80115Y-37596D01*
X78856Y-37602D01*
X78856Y-33520D01*
X78853Y-33220D01*
X78745Y-32960D01*
X78600Y-32936D01*
X78543Y-32992D01*
X78543Y-32879D01*
X78519Y-32734D01*
X78240Y-32623D01*
X77940Y-32626D01*
X77680Y-32734D01*
X77656Y-32879D01*
X78100Y-33323D01*
X78543Y-32879D01*
X78543Y-32992D01*
X78156Y-33380D01*
X78600Y-33823D01*
X78745Y-33799D01*
X78856Y-33520D01*
X78856Y-37602D01*
X78560Y-37603D01*
X78560Y-36492D01*
X78543Y-36452D01*
X78543Y-33880D01*
X78100Y-33436D01*
X78043Y-33493D01*
X78043Y-33380D01*
X77599Y-32936D01*
X77454Y-32960D01*
X77343Y-33239D01*
X77346Y-33539D01*
X77454Y-33799D01*
X77599Y-33823D01*
X78043Y-33380D01*
X78043Y-33493D01*
X77656Y-33880D01*
X77680Y-34025D01*
X77959Y-34136D01*
X78259Y-34133D01*
X78519Y-34025D01*
X78543Y-33880D01*
X78543Y-36452D01*
X78508Y-36367D01*
X78412Y-36271D01*
X78287Y-36220D01*
X78240Y-36220D01*
X77535Y-35514D01*
X77535Y-34705D01*
X77568Y-34672D01*
X77619Y-34547D01*
X77620Y-34412D01*
X77568Y-34287D01*
X77472Y-34191D01*
X77347Y-34140D01*
X77212Y-34139D01*
X77087Y-34191D01*
X76991Y-34287D01*
X76940Y-34412D01*
X76939Y-34547D01*
X76991Y-34672D01*
X77025Y-34705D01*
X77025Y-35620D01*
X77044Y-35717D01*
X77099Y-35800D01*
X77879Y-36580D01*
X77879Y-36627D01*
X77931Y-36752D01*
X78027Y-36848D01*
X78152Y-36899D01*
X78287Y-36900D01*
X78412Y-36848D01*
X78508Y-36752D01*
X78559Y-36627D01*
X78560Y-36492D01*
X78560Y-37603D01*
X75613Y-37616D01*
X75508Y-37572D01*
X75357Y-37572D01*
X75248Y-37617D01*
X74547Y-37620D01*
X74488Y-37561D01*
X74284Y-37476D01*
X74063Y-37476D01*
X73859Y-37560D01*
X73795Y-37624D01*
X73152Y-37626D01*
X73154Y-37820D01*
X73108Y-37851D01*
X73059Y-37899D01*
X73004Y-37982D01*
X72985Y-38080D01*
X72985Y-44340D01*
X73004Y-44437D01*
X73059Y-44520D01*
X73239Y-44699D01*
X73241Y-44867D01*
X73095Y-44964D01*
X72986Y-45128D01*
X72952Y-45296D01*
X72919Y-45128D01*
X72809Y-44964D01*
X72670Y-44871D01*
X72670Y-33862D01*
X72618Y-33737D01*
X72522Y-33641D01*
X72397Y-33590D01*
X72262Y-33589D01*
X72137Y-33641D01*
X72041Y-33737D01*
X72009Y-33815D01*
X71060Y-33815D01*
X70962Y-33834D01*
X70879Y-33889D01*
X70839Y-33929D01*
X70792Y-33929D01*
X70667Y-33981D01*
X70571Y-34077D01*
X70520Y-34202D01*
X70519Y-34337D01*
X70571Y-34462D01*
X70667Y-34558D01*
X70792Y-34609D01*
X70927Y-34610D01*
X71052Y-34558D01*
X71148Y-34462D01*
X71199Y-34337D01*
X71199Y-34325D01*
X72190Y-34325D01*
X72287Y-34305D01*
X72340Y-34270D01*
X72397Y-34270D01*
X72522Y-34218D01*
X72618Y-34122D01*
X72669Y-33997D01*
X72670Y-33862D01*
X72670Y-44871D01*
X72646Y-44855D01*
X72452Y-44816D01*
X72259Y-44855D01*
X72095Y-44964D01*
X71986Y-45128D01*
X71952Y-45296D01*
X71919Y-45128D01*
X71809Y-44964D01*
X71646Y-44855D01*
X71452Y-44816D01*
X71259Y-44855D01*
X71095Y-44964D01*
X71025Y-45070D01*
X71025Y-42460D01*
X70940Y-42256D01*
X70784Y-42099D01*
X70580Y-42015D01*
X70360Y-42014D01*
X70156Y-42099D01*
X69999Y-42255D01*
X69915Y-42459D01*
X69914Y-42679D01*
X69999Y-42883D01*
X70155Y-43040D01*
X70359Y-43124D01*
X70579Y-43125D01*
X70783Y-43040D01*
X70940Y-42884D01*
X71024Y-42680D01*
X71025Y-42460D01*
X71025Y-45070D01*
X70986Y-45128D01*
X70952Y-45296D01*
X70919Y-45128D01*
X70809Y-44964D01*
X70646Y-44855D01*
X70452Y-44816D01*
X70259Y-44855D01*
X70095Y-44964D01*
X69986Y-45128D01*
X69947Y-45321D01*
X69947Y-45749D01*
X69986Y-45942D01*
X70095Y-46106D01*
X70259Y-46215D01*
X70452Y-46254D01*
X70646Y-46215D01*
X70809Y-46106D01*
X70919Y-45942D01*
X70952Y-45774D01*
X70986Y-45942D01*
X71095Y-46106D01*
X71259Y-46215D01*
X71452Y-46254D01*
X71646Y-46215D01*
X71809Y-46106D01*
X71919Y-45942D01*
X71952Y-45774D01*
X71986Y-45942D01*
X72095Y-46106D01*
X72259Y-46215D01*
X72452Y-46254D01*
X72646Y-46215D01*
X72809Y-46106D01*
X72919Y-45942D01*
X72952Y-45774D01*
X72986Y-45942D01*
X73095Y-46106D01*
X73257Y-46214D01*
X73258Y-46307D01*
X67781Y-46307D01*
X67781Y-33433D01*
X67781Y-31512D01*
X67712Y-31344D01*
X67584Y-31216D01*
X67417Y-31147D01*
X67236Y-31147D01*
X67069Y-31216D01*
X66941Y-31344D01*
X66871Y-31511D01*
X66871Y-31692D01*
X66940Y-31859D01*
X67068Y-31987D01*
X67235Y-32057D01*
X67416Y-32057D01*
X67584Y-31988D01*
X67712Y-31860D01*
X67781Y-31693D01*
X67781Y-31512D01*
X67781Y-33433D01*
X67712Y-33266D01*
X67584Y-33138D01*
X67417Y-33068D01*
X67236Y-33068D01*
X67069Y-33137D01*
X66941Y-33265D01*
X66871Y-33432D01*
X66871Y-33613D01*
X66940Y-33781D01*
X67068Y-33909D01*
X67235Y-33978D01*
X67416Y-33978D01*
X67584Y-33909D01*
X67712Y-33781D01*
X67781Y-33614D01*
X67781Y-33433D01*
X67781Y-46307D01*
X64142Y-46307D01*
X64142Y-37384D01*
X64138Y-37084D01*
X64031Y-36824D01*
X63885Y-36800D01*
X63829Y-36857D01*
X63829Y-36743D01*
X63805Y-36598D01*
X63526Y-36487D01*
X63226Y-36491D01*
X62966Y-36598D01*
X62942Y-36743D01*
X63385Y-37187D01*
X63829Y-36743D01*
X63829Y-36857D01*
X63442Y-37244D01*
X63885Y-37687D01*
X64031Y-37663D01*
X64142Y-37384D01*
X64142Y-46307D01*
X63888Y-46307D01*
X63888Y-40007D01*
X63836Y-39881D01*
X63829Y-39875D01*
X63829Y-37744D01*
X63385Y-37300D01*
X63329Y-37357D01*
X63329Y-37244D01*
X62885Y-36800D01*
X62740Y-36824D01*
X62628Y-37103D01*
X62632Y-37403D01*
X62740Y-37663D01*
X62885Y-37687D01*
X63329Y-37244D01*
X63329Y-37357D01*
X62942Y-37744D01*
X62966Y-37889D01*
X63245Y-38000D01*
X63545Y-37997D01*
X63805Y-37889D01*
X63829Y-37744D01*
X63829Y-39875D01*
X63740Y-39786D01*
X63615Y-39734D01*
X63479Y-39733D01*
X63354Y-39785D01*
X63258Y-39881D01*
X63206Y-40006D01*
X63206Y-40142D01*
X63258Y-40267D01*
X63353Y-40363D01*
X63479Y-40415D01*
X63614Y-40415D01*
X63740Y-40363D01*
X63836Y-40268D01*
X63888Y-40142D01*
X63888Y-40007D01*
X63888Y-46307D01*
X63354Y-46307D01*
X63354Y-43730D01*
X63354Y-43513D01*
X63324Y-43360D01*
X63236Y-43229D01*
X63106Y-43142D01*
X63083Y-43137D01*
X63083Y-40160D01*
X63076Y-39945D01*
X63007Y-39779D01*
X62884Y-39782D01*
X62830Y-39836D01*
X62830Y-39602D01*
X62628Y-39526D01*
X62444Y-39532D01*
X62444Y-37134D01*
X62360Y-36930D01*
X62204Y-36773D01*
X62000Y-36689D01*
X61779Y-36688D01*
X61575Y-36773D01*
X61419Y-36929D01*
X61334Y-37133D01*
X61334Y-37354D01*
X61418Y-37558D01*
X61574Y-37714D01*
X61778Y-37798D01*
X61999Y-37799D01*
X62203Y-37714D01*
X62359Y-37558D01*
X62444Y-37354D01*
X62444Y-37134D01*
X62444Y-39532D01*
X62413Y-39533D01*
X62248Y-39602D01*
X62250Y-39725D01*
X62539Y-40014D01*
X62828Y-39725D01*
X62830Y-39602D01*
X62830Y-39836D01*
X62595Y-40070D01*
X62884Y-40359D01*
X63007Y-40361D01*
X63083Y-40160D01*
X63083Y-43137D01*
X62952Y-43111D01*
X62830Y-43136D01*
X62830Y-40539D01*
X62828Y-40416D01*
X62539Y-40127D01*
X62482Y-40184D01*
X62482Y-40070D01*
X62194Y-39782D01*
X62070Y-39779D01*
X61995Y-39981D01*
X62002Y-40196D01*
X62070Y-40361D01*
X62194Y-40359D01*
X62482Y-40070D01*
X62482Y-40184D01*
X62250Y-40416D01*
X62248Y-40539D01*
X62449Y-40614D01*
X62664Y-40607D01*
X62830Y-40539D01*
X62830Y-43136D01*
X62798Y-43142D01*
X62668Y-43229D01*
X62581Y-43360D01*
X62550Y-43513D01*
X62550Y-43730D01*
X62581Y-43884D01*
X62668Y-44014D01*
X62798Y-44101D01*
X62952Y-44132D01*
X63106Y-44101D01*
X63236Y-44014D01*
X63324Y-43884D01*
X63354Y-43730D01*
X63354Y-46307D01*
X62771Y-46307D01*
X62771Y-44582D01*
X62771Y-44315D01*
X62756Y-44255D01*
X62638Y-44051D01*
X62452Y-43908D01*
X62225Y-43846D01*
X62126Y-43846D01*
X62126Y-44408D01*
X62684Y-44408D01*
X62771Y-44315D01*
X62771Y-44582D01*
X62684Y-44488D01*
X62126Y-44488D01*
X62126Y-45050D01*
X62225Y-45050D01*
X62452Y-44989D01*
X62638Y-44846D01*
X62756Y-44642D01*
X62771Y-44582D01*
X62771Y-46307D01*
X62046Y-46307D01*
X62046Y-45050D01*
X62046Y-44488D01*
X62046Y-44408D01*
X62046Y-43846D01*
X61948Y-43846D01*
X61720Y-43908D01*
X61606Y-43996D01*
X61643Y-43948D01*
X61704Y-43721D01*
X61704Y-43622D01*
X61704Y-43542D01*
X61704Y-43444D01*
X61643Y-43216D01*
X61499Y-43030D01*
X61295Y-42912D01*
X61235Y-42897D01*
X61142Y-42985D01*
X61142Y-43542D01*
X61704Y-43542D01*
X61704Y-43622D01*
X61142Y-43622D01*
X61142Y-44180D01*
X61235Y-44267D01*
X61295Y-44252D01*
X61479Y-44146D01*
X61416Y-44255D01*
X61401Y-44315D01*
X61489Y-44408D01*
X62046Y-44408D01*
X62046Y-44488D01*
X61489Y-44488D01*
X61401Y-44582D01*
X61416Y-44642D01*
X61534Y-44846D01*
X61720Y-44989D01*
X61948Y-45050D01*
X62046Y-45050D01*
X62046Y-46307D01*
X60743Y-46307D01*
X60740Y-44155D01*
X60908Y-44252D01*
X60968Y-44267D01*
X61062Y-44180D01*
X61062Y-43622D01*
X61054Y-43622D01*
X61054Y-43542D01*
X61062Y-43542D01*
X61062Y-42985D01*
X60968Y-42897D01*
X60908Y-42912D01*
X60739Y-43010D01*
X60723Y-27745D01*
X64514Y-27741D01*
X64496Y-27749D01*
X64339Y-27905D01*
X64255Y-28109D01*
X64254Y-28329D01*
X64339Y-28533D01*
X64495Y-28690D01*
X64555Y-28715D01*
X64555Y-29160D01*
X64574Y-29257D01*
X64629Y-29340D01*
X65549Y-30260D01*
X65632Y-30315D01*
X65730Y-30335D01*
X72362Y-30335D01*
X72422Y-30359D01*
X72557Y-30360D01*
X72682Y-30308D01*
X72778Y-30212D01*
X72829Y-30087D01*
X72830Y-29952D01*
X72778Y-29827D01*
X72682Y-29731D01*
X72593Y-29695D01*
X73325Y-29695D01*
X73325Y-29791D01*
X73325Y-30000D01*
X73325Y-30288D01*
X73255Y-30358D01*
X73203Y-30483D01*
X73203Y-30618D01*
X73254Y-30743D01*
X73350Y-30839D01*
X73475Y-30891D01*
X73610Y-30891D01*
X73735Y-30839D01*
X73831Y-30744D01*
X73883Y-30619D01*
X73883Y-30483D01*
X73835Y-30366D01*
X73835Y-30046D01*
X75181Y-30046D01*
X75278Y-30026D01*
X75361Y-29971D01*
X76182Y-29151D01*
X76228Y-29151D01*
X76353Y-29099D01*
X76449Y-29003D01*
X76501Y-28878D01*
X76501Y-28743D01*
X76449Y-28618D01*
X76354Y-28522D01*
X76229Y-28471D01*
X76094Y-28470D01*
X75969Y-28522D01*
X75873Y-28618D01*
X75821Y-28743D01*
X75821Y-28790D01*
X75075Y-29536D01*
X73835Y-29536D01*
X73835Y-29440D01*
X73815Y-29342D01*
X73760Y-29259D01*
X73677Y-29204D01*
X73580Y-29185D01*
X68875Y-29185D01*
X68715Y-29024D01*
X68715Y-28725D01*
X68773Y-28700D01*
X68930Y-28544D01*
X69014Y-28340D01*
X69015Y-28120D01*
X68930Y-27916D01*
X68774Y-27759D01*
X68721Y-27737D01*
X69964Y-27736D01*
X69971Y-27752D01*
X70067Y-27848D01*
X70192Y-27899D01*
X70327Y-27900D01*
X70327Y-27900D01*
X70347Y-27900D01*
X70472Y-27848D01*
X70505Y-27815D01*
X72714Y-27815D01*
X72739Y-27840D01*
X72822Y-27895D01*
X72920Y-27915D01*
X80034Y-27915D01*
X80078Y-27959D01*
X79996Y-28156D01*
X79996Y-28377D01*
X80080Y-28581D01*
X80236Y-28737D01*
X80440Y-28822D01*
X80661Y-28822D01*
X80865Y-28738D01*
X81021Y-28582D01*
X81106Y-28378D01*
X81106Y-28157D01*
X81021Y-27953D01*
X80865Y-27797D01*
X80694Y-27726D01*
X81353Y-27725D01*
X81333Y-31510D01*
X85290Y-31510D01*
X85293Y-32624D01*
X85242Y-32499D01*
X85086Y-32343D01*
X84882Y-32258D01*
X84661Y-32258D01*
X84457Y-32342D01*
X84301Y-32498D01*
X84216Y-32702D01*
X84216Y-32923D01*
X84300Y-33127D01*
X84456Y-33283D01*
X84660Y-33368D01*
X84881Y-33368D01*
X85085Y-33284D01*
X85241Y-33128D01*
X85295Y-32999D01*
X85298Y-34013D01*
X85242Y-33877D01*
X85086Y-33721D01*
X84882Y-33636D01*
X84661Y-33636D01*
X84457Y-33720D01*
X84301Y-33876D01*
X84216Y-34080D01*
X84216Y-34301D01*
X84300Y-34505D01*
X84456Y-34661D01*
X84660Y-34746D01*
X84881Y-34746D01*
X85085Y-34662D01*
X85241Y-34506D01*
X85299Y-34367D01*
X85302Y-35402D01*
X85242Y-35255D01*
X85086Y-35099D01*
X84882Y-35014D01*
X84661Y-35014D01*
X84457Y-35098D01*
X84301Y-35254D01*
X84216Y-35458D01*
X84216Y-35679D01*
X84300Y-35883D01*
X84456Y-36039D01*
X84660Y-36124D01*
X84881Y-36124D01*
X85085Y-36040D01*
X85241Y-35884D01*
X85303Y-35734D01*
X85307Y-36791D01*
X85242Y-36633D01*
X85086Y-36477D01*
X84882Y-36392D01*
X84661Y-36392D01*
X84457Y-36476D01*
X84301Y-36632D01*
X84216Y-36836D01*
X84216Y-37057D01*
X84300Y-37261D01*
X84456Y-37417D01*
X84660Y-37502D01*
X84881Y-37502D01*
X85085Y-37418D01*
X85241Y-37262D01*
X85308Y-37101D01*
X85309Y-37573D01*
X85309Y-37573D01*
G37*
G54D20*
X85309Y-37573D02*
X83205Y-37583D01*
X83205Y-32820D01*
X83120Y-32616D01*
X82964Y-32459D01*
X82760Y-32375D01*
X82540Y-32374D01*
X82336Y-32459D01*
X82179Y-32615D01*
X82095Y-32819D01*
X82094Y-33039D01*
X82179Y-33243D01*
X82335Y-33400D01*
X82539Y-33484D01*
X82759Y-33485D01*
X82963Y-33400D01*
X83120Y-33244D01*
X83204Y-33040D01*
X83205Y-32820D01*
X83205Y-37583D01*
X81196Y-37591D01*
X81196Y-29878D01*
X81112Y-29674D01*
X80956Y-29517D01*
X80752Y-29433D01*
X80531Y-29433D01*
X80327Y-29517D01*
X80171Y-29673D01*
X80086Y-29877D01*
X80086Y-30098D01*
X80170Y-30302D01*
X80326Y-30458D01*
X80530Y-30543D01*
X80751Y-30543D01*
X80955Y-30458D01*
X81111Y-30302D01*
X81196Y-30099D01*
X81196Y-29878D01*
X81196Y-37591D01*
X81027Y-37592D01*
X81027Y-33630D01*
X80943Y-33426D01*
X80787Y-33269D01*
X80583Y-33185D01*
X80362Y-33185D01*
X80158Y-33269D01*
X80002Y-33425D01*
X79917Y-33629D01*
X79917Y-33850D01*
X80001Y-34054D01*
X80157Y-34210D01*
X80361Y-34295D01*
X80582Y-34295D01*
X80786Y-34210D01*
X80942Y-34054D01*
X81027Y-33851D01*
X81027Y-33630D01*
X81027Y-37592D01*
X80255Y-37595D01*
X80255Y-35190D01*
X80170Y-34986D01*
X80014Y-34829D01*
X79810Y-34745D01*
X79590Y-34744D01*
X79386Y-34829D01*
X79229Y-34985D01*
X79145Y-35189D01*
X79144Y-35409D01*
X79229Y-35613D01*
X79385Y-35770D01*
X79589Y-35854D01*
X79809Y-35855D01*
X80013Y-35770D01*
X80170Y-35614D01*
X80254Y-35410D01*
X80255Y-35190D01*
X80255Y-37595D01*
X80115Y-37596D01*
X80115Y-36830D01*
X80030Y-36626D01*
X79874Y-36469D01*
X79670Y-36385D01*
X79450Y-36384D01*
X79246Y-36469D01*
X79089Y-36625D01*
X79005Y-36829D01*
X79004Y-37049D01*
X79089Y-37253D01*
X79245Y-37410D01*
X79449Y-37494D01*
X79669Y-37495D01*
X79873Y-37410D01*
X80030Y-37254D01*
X80114Y-37050D01*
X80115Y-36830D01*
X80115Y-37596D01*
X78856Y-37602D01*
X78856Y-33520D01*
X78853Y-33220D01*
X78745Y-32960D01*
X78600Y-32936D01*
X78543Y-32992D01*
X78543Y-32879D01*
X78519Y-32734D01*
X78240Y-32623D01*
X77940Y-32626D01*
X77680Y-32734D01*
X77656Y-32879D01*
X78100Y-33323D01*
X78543Y-32879D01*
X78543Y-32992D01*
X78156Y-33380D01*
X78600Y-33823D01*
X78745Y-33799D01*
X78856Y-33520D01*
X78856Y-37602D01*
X78560Y-37603D01*
X78560Y-36492D01*
X78543Y-36452D01*
X78543Y-33880D01*
X78100Y-33436D01*
X78043Y-33493D01*
X78043Y-33380D01*
X77599Y-32936D01*
X77454Y-32960D01*
X77343Y-33239D01*
X77346Y-33539D01*
X77454Y-33799D01*
X77599Y-33823D01*
X78043Y-33380D01*
X78043Y-33493D01*
X77656Y-33880D01*
X77680Y-34025D01*
X77959Y-34136D01*
X78259Y-34133D01*
X78519Y-34025D01*
X78543Y-33880D01*
X78543Y-36452D01*
X78508Y-36367D01*
X78412Y-36271D01*
X78287Y-36220D01*
X78240Y-36220D01*
X77535Y-35514D01*
X77535Y-34705D01*
X77568Y-34672D01*
X77619Y-34547D01*
X77620Y-34412D01*
X77568Y-34287D01*
X77472Y-34191D01*
X77347Y-34140D01*
X77212Y-34139D01*
X77087Y-34191D01*
X76991Y-34287D01*
X76940Y-34412D01*
X76939Y-34547D01*
X76991Y-34672D01*
X77025Y-34705D01*
X77025Y-35620D01*
X77044Y-35717D01*
X77099Y-35800D01*
X77879Y-36580D01*
X77879Y-36627D01*
X77931Y-36752D01*
X78027Y-36848D01*
X78152Y-36899D01*
X78287Y-36900D01*
X78412Y-36848D01*
X78508Y-36752D01*
X78559Y-36627D01*
X78560Y-36492D01*
X78560Y-37603D01*
X75613Y-37616D01*
X75508Y-37572D01*
X75357Y-37572D01*
X75248Y-37617D01*
X74547Y-37620D01*
X74488Y-37561D01*
X74284Y-37476D01*
X74063Y-37476D01*
X73859Y-37560D01*
X73795Y-37624D01*
X73152Y-37626D01*
X73154Y-37820D01*
X73108Y-37851D01*
X73059Y-37899D01*
X73004Y-37982D01*
X72985Y-38080D01*
X72985Y-44340D01*
X73004Y-44437D01*
X73059Y-44520D01*
X73239Y-44699D01*
X73241Y-44867D01*
X73095Y-44964D01*
X72986Y-45128D01*
X72952Y-45296D01*
X72919Y-45128D01*
X72809Y-44964D01*
X72670Y-44871D01*
X72670Y-33862D01*
X72618Y-33737D01*
X72522Y-33641D01*
X72397Y-33590D01*
X72262Y-33589D01*
X72137Y-33641D01*
X72041Y-33737D01*
X72009Y-33815D01*
X71060Y-33815D01*
X70962Y-33834D01*
X70879Y-33889D01*
X70839Y-33929D01*
X70792Y-33929D01*
X70667Y-33981D01*
X70571Y-34077D01*
X70520Y-34202D01*
X70519Y-34337D01*
X70571Y-34462D01*
X70667Y-34558D01*
X70792Y-34609D01*
X70927Y-34610D01*
X71052Y-34558D01*
X71148Y-34462D01*
X71199Y-34337D01*
X71199Y-34325D01*
X72190Y-34325D01*
X72287Y-34305D01*
X72340Y-34270D01*
X72397Y-34270D01*
X72522Y-34218D01*
X72618Y-34122D01*
X72669Y-33997D01*
X72670Y-33862D01*
X72670Y-44871D01*
X72646Y-44855D01*
X72452Y-44816D01*
X72259Y-44855D01*
X72095Y-44964D01*
X71986Y-45128D01*
X71952Y-45296D01*
X71919Y-45128D01*
X71809Y-44964D01*
X71646Y-44855D01*
X71452Y-44816D01*
X71259Y-44855D01*
X71095Y-44964D01*
X71025Y-45070D01*
X71025Y-42460D01*
X70940Y-42256D01*
X70784Y-42099D01*
X70580Y-42015D01*
X70360Y-42014D01*
X70156Y-42099D01*
X69999Y-42255D01*
X69915Y-42459D01*
X69914Y-42679D01*
X69999Y-42883D01*
X70155Y-43040D01*
X70359Y-43124D01*
X70579Y-43125D01*
X70783Y-43040D01*
X70940Y-42884D01*
X71024Y-42680D01*
X71025Y-42460D01*
X71025Y-45070D01*
X70986Y-45128D01*
X70952Y-45296D01*
X70919Y-45128D01*
X70809Y-44964D01*
X70646Y-44855D01*
X70452Y-44816D01*
X70259Y-44855D01*
X70095Y-44964D01*
X69986Y-45128D01*
X69947Y-45321D01*
X69947Y-45749D01*
X69986Y-45942D01*
X70095Y-46106D01*
X70259Y-46215D01*
X70452Y-46254D01*
X70646Y-46215D01*
X70809Y-46106D01*
X70919Y-45942D01*
X70952Y-45774D01*
X70986Y-45942D01*
X71095Y-46106D01*
X71259Y-46215D01*
X71452Y-46254D01*
X71646Y-46215D01*
X71809Y-46106D01*
X71919Y-45942D01*
X71952Y-45774D01*
X71986Y-45942D01*
X72095Y-46106D01*
X72259Y-46215D01*
X72452Y-46254D01*
X72646Y-46215D01*
X72809Y-46106D01*
X72919Y-45942D01*
X72952Y-45774D01*
X72986Y-45942D01*
X73095Y-46106D01*
X73257Y-46214D01*
X73258Y-46307D01*
X67781Y-46307D01*
X67781Y-33433D01*
X67781Y-31512D01*
X67712Y-31344D01*
X67584Y-31216D01*
X67417Y-31147D01*
X67236Y-31147D01*
X67069Y-31216D01*
X66941Y-31344D01*
X66871Y-31511D01*
X66871Y-31692D01*
X66940Y-31859D01*
X67068Y-31987D01*
X67235Y-32057D01*
X67416Y-32057D01*
X67584Y-31988D01*
X67712Y-31860D01*
X67781Y-31693D01*
X67781Y-31512D01*
X67781Y-33433D01*
X67712Y-33266D01*
X67584Y-33138D01*
X67417Y-33068D01*
X67236Y-33068D01*
X67069Y-33137D01*
X66941Y-33265D01*
X66871Y-33432D01*
X66871Y-33613D01*
X66940Y-33781D01*
X67068Y-33909D01*
X67235Y-33978D01*
X67416Y-33978D01*
X67584Y-33909D01*
X67712Y-33781D01*
X67781Y-33614D01*
X67781Y-33433D01*
X67781Y-46307D01*
X64142Y-46307D01*
X64142Y-37384D01*
X64138Y-37084D01*
X64031Y-36824D01*
X63885Y-36800D01*
X63829Y-36857D01*
X63829Y-36743D01*
X63805Y-36598D01*
X63526Y-36487D01*
X63226Y-36491D01*
X62966Y-36598D01*
X62942Y-36743D01*
X63385Y-37187D01*
X63829Y-36743D01*
X63829Y-36857D01*
X63442Y-37244D01*
X63885Y-37687D01*
X64031Y-37663D01*
X64142Y-37384D01*
X64142Y-46307D01*
X63888Y-46307D01*
X63888Y-40007D01*
X63836Y-39881D01*
X63829Y-39875D01*
X63829Y-37744D01*
X63385Y-37300D01*
X63329Y-37357D01*
X63329Y-37244D01*
X62885Y-36800D01*
X62740Y-36824D01*
X62628Y-37103D01*
X62632Y-37403D01*
X62740Y-37663D01*
X62885Y-37687D01*
X63329Y-37244D01*
X63329Y-37357D01*
X62942Y-37744D01*
X62966Y-37889D01*
X63245Y-38000D01*
X63545Y-37997D01*
X63805Y-37889D01*
X63829Y-37744D01*
X63829Y-39875D01*
X63740Y-39786D01*
X63615Y-39734D01*
X63479Y-39733D01*
X63354Y-39785D01*
X63258Y-39881D01*
X63206Y-40006D01*
X63206Y-40142D01*
X63258Y-40267D01*
X63353Y-40363D01*
X63479Y-40415D01*
X63614Y-40415D01*
X63740Y-40363D01*
X63836Y-40268D01*
X63888Y-40142D01*
X63888Y-40007D01*
X63888Y-46307D01*
X63354Y-46307D01*
X63354Y-43730D01*
X63354Y-43513D01*
X63324Y-43360D01*
X63236Y-43229D01*
X63106Y-43142D01*
X63083Y-43137D01*
X63083Y-40160D01*
X63076Y-39945D01*
X63007Y-39779D01*
X62884Y-39782D01*
X62830Y-39836D01*
X62830Y-39602D01*
X62628Y-39526D01*
X62444Y-39532D01*
X62444Y-37134D01*
X62360Y-36930D01*
X62204Y-36773D01*
X62000Y-36689D01*
X61779Y-36688D01*
X61575Y-36773D01*
X61419Y-36929D01*
X61334Y-37133D01*
X61334Y-37354D01*
X61418Y-37558D01*
X61574Y-37714D01*
X61778Y-37798D01*
X61999Y-37799D01*
X62203Y-37714D01*
X62359Y-37558D01*
X62444Y-37354D01*
X62444Y-37134D01*
X62444Y-39532D01*
X62413Y-39533D01*
X62248Y-39602D01*
X62250Y-39725D01*
X62539Y-40014D01*
X62828Y-39725D01*
X62830Y-39602D01*
X62830Y-39836D01*
X62595Y-40070D01*
X62884Y-40359D01*
X63007Y-40361D01*
X63083Y-40160D01*
X63083Y-43137D01*
X62952Y-43111D01*
X62830Y-43136D01*
X62830Y-40539D01*
X62828Y-40416D01*
X62539Y-40127D01*
X62482Y-40184D01*
X62482Y-40070D01*
X62194Y-39782D01*
X62070Y-39779D01*
X61995Y-39981D01*
X62002Y-40196D01*
X62070Y-40361D01*
X62194Y-40359D01*
X62482Y-40070D01*
X62482Y-40184D01*
X62250Y-40416D01*
X62248Y-40539D01*
X62449Y-40614D01*
X62664Y-40607D01*
X62830Y-40539D01*
X62830Y-43136D01*
X62798Y-43142D01*
X62668Y-43229D01*
X62581Y-43360D01*
X62550Y-43513D01*
X62550Y-43730D01*
X62581Y-43884D01*
X62668Y-44014D01*
X62798Y-44101D01*
X62952Y-44132D01*
X63106Y-44101D01*
X63236Y-44014D01*
X63324Y-43884D01*
X63354Y-43730D01*
X63354Y-46307D01*
X62771Y-46307D01*
X62771Y-44582D01*
X62771Y-44315D01*
X62756Y-44255D01*
X62638Y-44051D01*
X62452Y-43908D01*
X62225Y-43846D01*
X62126Y-43846D01*
X62126Y-44408D01*
X62684Y-44408D01*
X62771Y-44315D01*
X62771Y-44582D01*
X62684Y-44488D01*
X62126Y-44488D01*
X62126Y-45050D01*
X62225Y-45050D01*
X62452Y-44989D01*
X62638Y-44846D01*
X62756Y-44642D01*
X62771Y-44582D01*
X62771Y-46307D01*
X62046Y-46307D01*
X62046Y-45050D01*
X62046Y-44488D01*
X62046Y-44408D01*
X62046Y-43846D01*
X61948Y-43846D01*
X61720Y-43908D01*
X61606Y-43996D01*
X61643Y-43948D01*
X61704Y-43721D01*
X61704Y-43622D01*
X61704Y-43542D01*
X61704Y-43444D01*
X61643Y-43216D01*
X61499Y-43030D01*
X61295Y-42912D01*
X61235Y-42897D01*
X61142Y-42985D01*
X61142Y-43542D01*
X61704Y-43542D01*
X61704Y-43622D01*
X61142Y-43622D01*
X61142Y-44180D01*
X61235Y-44267D01*
X61295Y-44252D01*
X61479Y-44146D01*
X61416Y-44255D01*
X61401Y-44315D01*
X61489Y-44408D01*
X62046Y-44408D01*
X62046Y-44488D01*
X61489Y-44488D01*
X61401Y-44582D01*
X61416Y-44642D01*
X61534Y-44846D01*
X61720Y-44989D01*
X61948Y-45050D01*
X62046Y-45050D01*
X62046Y-46307D01*
X60743Y-46307D01*
X60740Y-44155D01*
X60908Y-44252D01*
X60968Y-44267D01*
X61062Y-44180D01*
X61062Y-43622D01*
X61054Y-43622D01*
X61054Y-43542D01*
X61062Y-43542D01*
X61062Y-42985D01*
X60968Y-42897D01*
X60908Y-42912D01*
X60739Y-43010D01*
X60723Y-27745D01*
X64514Y-27741D01*
X64496Y-27749D01*
X64339Y-27905D01*
X64255Y-28109D01*
X64254Y-28329D01*
X64339Y-28533D01*
X64495Y-28690D01*
X64555Y-28715D01*
X64555Y-29160D01*
X64574Y-29257D01*
X64629Y-29340D01*
X65549Y-30260D01*
X65632Y-30315D01*
X65730Y-30335D01*
X72362Y-30335D01*
X72422Y-30359D01*
X72557Y-30360D01*
X72682Y-30308D01*
X72778Y-30212D01*
X72829Y-30087D01*
X72830Y-29952D01*
X72778Y-29827D01*
X72682Y-29731D01*
X72593Y-29695D01*
X73325Y-29695D01*
X73325Y-29791D01*
X73325Y-30000D01*
X73325Y-30288D01*
X73255Y-30358D01*
X73203Y-30483D01*
X73203Y-30618D01*
X73254Y-30743D01*
X73350Y-30839D01*
X73475Y-30891D01*
X73610Y-30891D01*
X73735Y-30839D01*
X73831Y-30744D01*
X73883Y-30619D01*
X73883Y-30483D01*
X73835Y-30366D01*
X73835Y-30046D01*
X75181Y-30046D01*
X75278Y-30026D01*
X75361Y-29971D01*
X76182Y-29151D01*
X76228Y-29151D01*
X76353Y-29099D01*
X76449Y-29003D01*
X76501Y-28878D01*
X76501Y-28743D01*
X76449Y-28618D01*
X76354Y-28522D01*
X76229Y-28471D01*
X76094Y-28470D01*
X75969Y-28522D01*
X75873Y-28618D01*
X75821Y-28743D01*
X75821Y-28790D01*
X75075Y-29536D01*
X73835Y-29536D01*
X73835Y-29440D01*
X73815Y-29342D01*
X73760Y-29259D01*
X73677Y-29204D01*
X73580Y-29185D01*
X68875Y-29185D01*
X68715Y-29024D01*
X68715Y-28725D01*
X68773Y-28700D01*
X68930Y-28544D01*
X69014Y-28340D01*
X69015Y-28120D01*
X68930Y-27916D01*
X68774Y-27759D01*
X68721Y-27737D01*
X69964Y-27736D01*
X69971Y-27752D01*
X70067Y-27848D01*
X70192Y-27899D01*
X70327Y-27900D01*
X70327Y-27900D01*
X70347Y-27900D01*
X70472Y-27848D01*
X70505Y-27815D01*
X72714Y-27815D01*
X72739Y-27840D01*
X72822Y-27895D01*
X72920Y-27915D01*
X80034Y-27915D01*
X80078Y-27959D01*
X79996Y-28156D01*
X79996Y-28377D01*
X80080Y-28581D01*
X80236Y-28737D01*
X80440Y-28822D01*
X80661Y-28822D01*
X80865Y-28738D01*
X81021Y-28582D01*
X81106Y-28378D01*
X81106Y-28157D01*
X81021Y-27953D01*
X80865Y-27797D01*
X80694Y-27726D01*
X81353Y-27725D01*
X81333Y-31510D01*
X85290Y-31510D01*
X85293Y-32624D01*
X85242Y-32499D01*
X85086Y-32343D01*
X84882Y-32258D01*
X84661Y-32258D01*
X84457Y-32342D01*
X84301Y-32498D01*
X84216Y-32702D01*
X84216Y-32923D01*
X84300Y-33127D01*
X84456Y-33283D01*
X84660Y-33368D01*
X84881Y-33368D01*
X85085Y-33284D01*
X85241Y-33128D01*
X85295Y-32999D01*
X85298Y-34013D01*
X85242Y-33877D01*
X85086Y-33721D01*
X84882Y-33636D01*
X84661Y-33636D01*
X84457Y-33720D01*
X84301Y-33876D01*
X84216Y-34080D01*
X84216Y-34301D01*
X84300Y-34505D01*
X84456Y-34661D01*
X84660Y-34746D01*
X84881Y-34746D01*
X85085Y-34662D01*
X85241Y-34506D01*
X85299Y-34367D01*
X85302Y-35402D01*
X85242Y-35255D01*
X85086Y-35099D01*
X84882Y-35014D01*
X84661Y-35014D01*
X84457Y-35098D01*
X84301Y-35254D01*
X84216Y-35458D01*
X84216Y-35679D01*
X84300Y-35883D01*
X84456Y-36039D01*
X84660Y-36124D01*
X84881Y-36124D01*
X85085Y-36040D01*
X85241Y-35884D01*
X85303Y-35734D01*
X85307Y-36791D01*
X85242Y-36633D01*
X85086Y-36477D01*
X84882Y-36392D01*
X84661Y-36392D01*
X84457Y-36476D01*
X84301Y-36632D01*
X84216Y-36836D01*
X84216Y-37057D01*
X84300Y-37261D01*
X84456Y-37417D01*
X84660Y-37502D01*
X84881Y-37502D01*
X85085Y-37418D01*
X85241Y-37262D01*
X85308Y-37101D01*
X85309Y-37573D01*
G54D10*
G36*
X85273Y-38742D02*
X85269Y-39281D01*
X85140Y-39152D01*
X84901Y-39053D01*
X84642Y-39053D01*
X84403Y-39152D01*
X84220Y-39334D01*
X84121Y-39573D01*
X84121Y-39832D01*
X84220Y-40071D01*
X84402Y-40254D01*
X84469Y-40281D01*
X84364Y-40325D01*
X84181Y-40508D01*
X84082Y-40746D01*
X84081Y-41005D01*
X84180Y-41244D01*
X84363Y-41427D01*
X84602Y-41526D01*
X84860Y-41526D01*
X85099Y-41428D01*
X85252Y-41275D01*
X85247Y-41850D01*
X85100Y-41703D01*
X84861Y-41604D01*
X84603Y-41604D01*
X84364Y-41703D01*
X84181Y-41885D01*
X84082Y-42124D01*
X84081Y-42383D01*
X84180Y-42622D01*
X84363Y-42805D01*
X84602Y-42904D01*
X84860Y-42904D01*
X85099Y-42806D01*
X85240Y-42665D01*
X85218Y-45308D01*
X85148Y-45413D01*
X85123Y-45540D01*
X85123Y-46171D01*
X84878Y-46172D01*
X85007Y-45980D01*
X85052Y-45751D01*
X85052Y-45319D01*
X85007Y-45090D01*
X84877Y-44895D01*
X84682Y-44765D01*
X84452Y-44719D01*
X84223Y-44765D01*
X84028Y-44895D01*
X83952Y-45008D01*
X83877Y-44895D01*
X83682Y-44765D01*
X83452Y-44719D01*
X83248Y-44760D01*
X83248Y-43335D01*
X83169Y-43145D01*
X83169Y-40107D01*
X83071Y-39868D01*
X82888Y-39685D01*
X82649Y-39586D01*
X82390Y-39586D01*
X82151Y-39684D01*
X81968Y-39867D01*
X81869Y-40106D01*
X81869Y-40364D01*
X81968Y-40603D01*
X82151Y-40786D01*
X82389Y-40886D01*
X82648Y-40886D01*
X82887Y-40787D01*
X83070Y-40604D01*
X83169Y-40366D01*
X83169Y-40107D01*
X83169Y-43145D01*
X83149Y-43096D01*
X82967Y-42913D01*
X82728Y-42814D01*
X82469Y-42814D01*
X82230Y-42913D01*
X82047Y-43095D01*
X81948Y-43334D01*
X81948Y-43593D01*
X82047Y-43832D01*
X82229Y-44015D01*
X82468Y-44114D01*
X82727Y-44114D01*
X82966Y-44015D01*
X83149Y-43833D01*
X83248Y-43594D01*
X83248Y-43335D01*
X83248Y-44760D01*
X83223Y-44765D01*
X83028Y-44895D01*
X82952Y-45008D01*
X82877Y-44895D01*
X82682Y-44765D01*
X82452Y-44719D01*
X82223Y-44765D01*
X82028Y-44895D01*
X81952Y-45008D01*
X81877Y-44895D01*
X81682Y-44765D01*
X81452Y-44719D01*
X81223Y-44765D01*
X81028Y-44895D01*
X80952Y-45008D01*
X80877Y-44895D01*
X80682Y-44765D01*
X80452Y-44719D01*
X80223Y-44765D01*
X80028Y-44895D01*
X79952Y-45008D01*
X79877Y-44895D01*
X79682Y-44765D01*
X79452Y-44719D01*
X79223Y-44765D01*
X79028Y-44895D01*
X78898Y-45090D01*
X78852Y-45319D01*
X78852Y-45751D01*
X78898Y-45980D01*
X79028Y-46175D01*
X79083Y-46212D01*
X77822Y-46212D01*
X77877Y-46175D01*
X78007Y-45980D01*
X78052Y-45751D01*
X78052Y-45319D01*
X78007Y-45090D01*
X77877Y-44895D01*
X77682Y-44765D01*
X77452Y-44719D01*
X77223Y-44765D01*
X77028Y-44895D01*
X76952Y-45008D01*
X76877Y-44895D01*
X76682Y-44765D01*
X76452Y-44719D01*
X76223Y-44765D01*
X76028Y-44895D01*
X75898Y-45090D01*
X75862Y-45269D01*
X75862Y-45235D01*
X75793Y-45086D01*
X75671Y-44974D01*
X75613Y-44958D01*
X75552Y-44966D01*
X75552Y-45435D01*
X75560Y-45435D01*
X75560Y-45635D01*
X75552Y-45635D01*
X75552Y-46104D01*
X75613Y-46112D01*
X75671Y-46096D01*
X75793Y-45984D01*
X75862Y-45835D01*
X75862Y-45801D01*
X75898Y-45980D01*
X76028Y-46175D01*
X76083Y-46212D01*
X74822Y-46212D01*
X74877Y-46175D01*
X75007Y-45980D01*
X75042Y-45801D01*
X75042Y-45835D01*
X75112Y-45984D01*
X75233Y-46096D01*
X75291Y-46112D01*
X75352Y-46104D01*
X75352Y-45635D01*
X75344Y-45635D01*
X75344Y-45435D01*
X75352Y-45435D01*
X75352Y-44966D01*
X75291Y-44958D01*
X75233Y-44974D01*
X75112Y-45086D01*
X75042Y-45235D01*
X75042Y-45269D01*
X75007Y-45090D01*
X74877Y-44895D01*
X74682Y-44765D01*
X74635Y-44756D01*
X74576Y-44613D01*
X74442Y-44479D01*
X74268Y-44406D01*
X74079Y-44406D01*
X73904Y-44478D01*
X73889Y-44494D01*
X73762Y-44367D01*
X73754Y-41989D01*
X73978Y-41990D01*
X74217Y-41891D01*
X74400Y-41708D01*
X74499Y-41469D01*
X74500Y-41211D01*
X74401Y-40972D01*
X74218Y-40789D01*
X74027Y-40710D01*
X74108Y-40710D01*
X74347Y-40611D01*
X74530Y-40428D01*
X74629Y-40189D01*
X74630Y-39931D01*
X74531Y-39692D01*
X74348Y-39509D01*
X74109Y-39410D01*
X73851Y-39409D01*
X73745Y-39453D01*
X73741Y-38519D01*
X73804Y-38582D01*
X74043Y-38681D01*
X74301Y-38681D01*
X74540Y-38582D01*
X74723Y-38400D01*
X74823Y-38161D01*
X74823Y-38115D01*
X74986Y-38115D01*
X75030Y-38221D01*
X75163Y-38355D01*
X75338Y-38427D01*
X75527Y-38427D01*
X75701Y-38355D01*
X75835Y-38222D01*
X75881Y-38112D01*
X84167Y-38084D01*
X84121Y-38195D01*
X84121Y-38454D01*
X84220Y-38693D01*
X84402Y-38876D01*
X84641Y-38975D01*
X84900Y-38975D01*
X85139Y-38876D01*
X85273Y-38742D01*
X85273Y-38742D01*
G37*
G54D21*
X85273Y-38742D02*
X85269Y-39281D01*
X85140Y-39152D01*
X84901Y-39053D01*
X84642Y-39053D01*
X84403Y-39152D01*
X84220Y-39334D01*
X84121Y-39573D01*
X84121Y-39832D01*
X84220Y-40071D01*
X84402Y-40254D01*
X84469Y-40281D01*
X84364Y-40325D01*
X84181Y-40508D01*
X84082Y-40746D01*
X84081Y-41005D01*
X84180Y-41244D01*
X84363Y-41427D01*
X84602Y-41526D01*
X84860Y-41526D01*
X85099Y-41428D01*
X85252Y-41275D01*
X85247Y-41850D01*
X85100Y-41703D01*
X84861Y-41604D01*
X84603Y-41604D01*
X84364Y-41703D01*
X84181Y-41885D01*
X84082Y-42124D01*
X84081Y-42383D01*
X84180Y-42622D01*
X84363Y-42805D01*
X84602Y-42904D01*
X84860Y-42904D01*
X85099Y-42806D01*
X85240Y-42665D01*
X85218Y-45308D01*
X85148Y-45413D01*
X85123Y-45540D01*
X85123Y-46171D01*
X84878Y-46172D01*
X85007Y-45980D01*
X85052Y-45751D01*
X85052Y-45319D01*
X85007Y-45090D01*
X84877Y-44895D01*
X84682Y-44765D01*
X84452Y-44719D01*
X84223Y-44765D01*
X84028Y-44895D01*
X83952Y-45008D01*
X83877Y-44895D01*
X83682Y-44765D01*
X83452Y-44719D01*
X83248Y-44760D01*
X83248Y-43335D01*
X83169Y-43145D01*
X83169Y-40107D01*
X83071Y-39868D01*
X82888Y-39685D01*
X82649Y-39586D01*
X82390Y-39586D01*
X82151Y-39684D01*
X81968Y-39867D01*
X81869Y-40106D01*
X81869Y-40364D01*
X81968Y-40603D01*
X82151Y-40786D01*
X82389Y-40886D01*
X82648Y-40886D01*
X82887Y-40787D01*
X83070Y-40604D01*
X83169Y-40366D01*
X83169Y-40107D01*
X83169Y-43145D01*
X83149Y-43096D01*
X82967Y-42913D01*
X82728Y-42814D01*
X82469Y-42814D01*
X82230Y-42913D01*
X82047Y-43095D01*
X81948Y-43334D01*
X81948Y-43593D01*
X82047Y-43832D01*
X82229Y-44015D01*
X82468Y-44114D01*
X82727Y-44114D01*
X82966Y-44015D01*
X83149Y-43833D01*
X83248Y-43594D01*
X83248Y-43335D01*
X83248Y-44760D01*
X83223Y-44765D01*
X83028Y-44895D01*
X82952Y-45008D01*
X82877Y-44895D01*
X82682Y-44765D01*
X82452Y-44719D01*
X82223Y-44765D01*
X82028Y-44895D01*
X81952Y-45008D01*
X81877Y-44895D01*
X81682Y-44765D01*
X81452Y-44719D01*
X81223Y-44765D01*
X81028Y-44895D01*
X80952Y-45008D01*
X80877Y-44895D01*
X80682Y-44765D01*
X80452Y-44719D01*
X80223Y-44765D01*
X80028Y-44895D01*
X79952Y-45008D01*
X79877Y-44895D01*
X79682Y-44765D01*
X79452Y-44719D01*
X79223Y-44765D01*
X79028Y-44895D01*
X78898Y-45090D01*
X78852Y-45319D01*
X78852Y-45751D01*
X78898Y-45980D01*
X79028Y-46175D01*
X79083Y-46212D01*
X77822Y-46212D01*
X77877Y-46175D01*
X78007Y-45980D01*
X78052Y-45751D01*
X78052Y-45319D01*
X78007Y-45090D01*
X77877Y-44895D01*
X77682Y-44765D01*
X77452Y-44719D01*
X77223Y-44765D01*
X77028Y-44895D01*
X76952Y-45008D01*
X76877Y-44895D01*
X76682Y-44765D01*
X76452Y-44719D01*
X76223Y-44765D01*
X76028Y-44895D01*
X75898Y-45090D01*
X75862Y-45269D01*
X75862Y-45235D01*
X75793Y-45086D01*
X75671Y-44974D01*
X75613Y-44958D01*
X75552Y-44966D01*
X75552Y-45435D01*
X75560Y-45435D01*
X75560Y-45635D01*
X75552Y-45635D01*
X75552Y-46104D01*
X75613Y-46112D01*
X75671Y-46096D01*
X75793Y-45984D01*
X75862Y-45835D01*
X75862Y-45801D01*
X75898Y-45980D01*
X76028Y-46175D01*
X76083Y-46212D01*
X74822Y-46212D01*
X74877Y-46175D01*
X75007Y-45980D01*
X75042Y-45801D01*
X75042Y-45835D01*
X75112Y-45984D01*
X75233Y-46096D01*
X75291Y-46112D01*
X75352Y-46104D01*
X75352Y-45635D01*
X75344Y-45635D01*
X75344Y-45435D01*
X75352Y-45435D01*
X75352Y-44966D01*
X75291Y-44958D01*
X75233Y-44974D01*
X75112Y-45086D01*
X75042Y-45235D01*
X75042Y-45269D01*
X75007Y-45090D01*
X74877Y-44895D01*
X74682Y-44765D01*
X74635Y-44756D01*
X74576Y-44613D01*
X74442Y-44479D01*
X74268Y-44406D01*
X74079Y-44406D01*
X73904Y-44478D01*
X73889Y-44494D01*
X73762Y-44367D01*
X73754Y-41989D01*
X73978Y-41990D01*
X74217Y-41891D01*
X74400Y-41708D01*
X74499Y-41469D01*
X74500Y-41211D01*
X74401Y-40972D01*
X74218Y-40789D01*
X74027Y-40710D01*
X74108Y-40710D01*
X74347Y-40611D01*
X74530Y-40428D01*
X74629Y-40189D01*
X74630Y-39931D01*
X74531Y-39692D01*
X74348Y-39509D01*
X74109Y-39410D01*
X73851Y-39409D01*
X73745Y-39453D01*
X73741Y-38519D01*
X73804Y-38582D01*
X74043Y-38681D01*
X74301Y-38681D01*
X74540Y-38582D01*
X74723Y-38400D01*
X74823Y-38161D01*
X74823Y-38115D01*
X74986Y-38115D01*
X75030Y-38221D01*
X75163Y-38355D01*
X75338Y-38427D01*
X75527Y-38427D01*
X75701Y-38355D01*
X75835Y-38222D01*
X75881Y-38112D01*
X84167Y-38084D01*
X84121Y-38195D01*
X84121Y-38454D01*
X84220Y-38693D01*
X84402Y-38876D01*
X84641Y-38975D01*
X84900Y-38975D01*
X85139Y-38876D01*
X85273Y-38742D01*
M02*
