G04 (created by PCBNEW (2013-07-07 BZR 4022)-stable) date 9/13/2014 1:49:31 PM*
%MOIN*%
G04 Gerber Fmt 3.4, Leading zero omitted, Abs format*
%FSLAX34Y34*%
G01*
G70*
G90*
G04 APERTURE LIST*
%ADD10C,0.00590551*%
%ADD11C,0.0039*%
%ADD12C,0.005*%
%ADD13C,0.015*%
%ADD14C,0.0043*%
%ADD15C,0.0047*%
%ADD16C,0.008*%
%ADD17C,0.012*%
%ADD18C,0.00984252*%
G04 APERTURE END LIST*
G54D10*
G54D11*
X72161Y-43799D02*
G75*
G03X72161Y-43799I-50J0D01*
G74*
G01*
X72111Y-43349D02*
X72111Y-43749D01*
X72111Y-43749D02*
X71511Y-43749D01*
X71511Y-43749D02*
X71511Y-43349D01*
X71511Y-42949D02*
X71511Y-42549D01*
X71511Y-42549D02*
X72111Y-42549D01*
X72111Y-42549D02*
X72111Y-42949D01*
X67722Y-43031D02*
G75*
G03X67722Y-43031I-50J0D01*
G74*
G01*
X67672Y-43481D02*
X67672Y-43081D01*
X67672Y-43081D02*
X68272Y-43081D01*
X68272Y-43081D02*
X68272Y-43481D01*
X68272Y-43881D02*
X68272Y-44281D01*
X68272Y-44281D02*
X67672Y-44281D01*
X67672Y-44281D02*
X67672Y-43881D01*
X64198Y-41968D02*
G75*
G03X64198Y-41968I-50J0D01*
G74*
G01*
X64148Y-42418D02*
X64148Y-42018D01*
X64148Y-42018D02*
X64748Y-42018D01*
X64748Y-42018D02*
X64748Y-42418D01*
X64748Y-42818D02*
X64748Y-43218D01*
X64748Y-43218D02*
X64148Y-43218D01*
X64148Y-43218D02*
X64148Y-42818D01*
X65104Y-41869D02*
G75*
G03X65104Y-41869I-50J0D01*
G74*
G01*
X65054Y-42319D02*
X65054Y-41919D01*
X65054Y-41919D02*
X65654Y-41919D01*
X65654Y-41919D02*
X65654Y-42319D01*
X65654Y-42719D02*
X65654Y-43119D01*
X65654Y-43119D02*
X65054Y-43119D01*
X65054Y-43119D02*
X65054Y-42719D01*
X75160Y-36020D02*
G75*
G03X75160Y-36020I-50J0D01*
G74*
G01*
X75560Y-36020D02*
X75160Y-36020D01*
X75160Y-36020D02*
X75160Y-35420D01*
X75160Y-35420D02*
X75560Y-35420D01*
X75960Y-35420D02*
X76360Y-35420D01*
X76360Y-35420D02*
X76360Y-36020D01*
X76360Y-36020D02*
X75960Y-36020D01*
X70380Y-36980D02*
G75*
G03X70380Y-36980I-50J0D01*
G74*
G01*
X70780Y-36980D02*
X70380Y-36980D01*
X70380Y-36980D02*
X70380Y-36380D01*
X70380Y-36380D02*
X70780Y-36380D01*
X71180Y-36380D02*
X71580Y-36380D01*
X71580Y-36380D02*
X71580Y-36980D01*
X71580Y-36980D02*
X71180Y-36980D01*
X79566Y-30004D02*
G75*
G03X79566Y-30004I-50J0D01*
G74*
G01*
X79516Y-29554D02*
X79516Y-29954D01*
X79516Y-29954D02*
X78916Y-29954D01*
X78916Y-29954D02*
X78916Y-29554D01*
X78916Y-29154D02*
X78916Y-28754D01*
X78916Y-28754D02*
X79516Y-28754D01*
X79516Y-28754D02*
X79516Y-29154D01*
X72880Y-36000D02*
G75*
G03X72880Y-36000I-50J0D01*
G74*
G01*
X72830Y-36450D02*
X72830Y-36050D01*
X72830Y-36050D02*
X73430Y-36050D01*
X73430Y-36050D02*
X73430Y-36450D01*
X73430Y-36850D02*
X73430Y-37250D01*
X73430Y-37250D02*
X72830Y-37250D01*
X72830Y-37250D02*
X72830Y-36850D01*
X67699Y-37091D02*
G75*
G03X67699Y-37091I-50J0D01*
G74*
G01*
X68099Y-37091D02*
X67699Y-37091D01*
X67699Y-37091D02*
X67699Y-36491D01*
X67699Y-36491D02*
X68099Y-36491D01*
X68499Y-36491D02*
X68899Y-36491D01*
X68899Y-36491D02*
X68899Y-37091D01*
X68899Y-37091D02*
X68499Y-37091D01*
X73105Y-41043D02*
G75*
G03X73105Y-41043I-50J0D01*
G74*
G01*
X73055Y-40593D02*
X73055Y-40993D01*
X73055Y-40993D02*
X72455Y-40993D01*
X72455Y-40993D02*
X72455Y-40593D01*
X72455Y-40193D02*
X72455Y-39793D01*
X72455Y-39793D02*
X73055Y-39793D01*
X73055Y-39793D02*
X73055Y-40193D01*
X67707Y-38429D02*
G75*
G03X67707Y-38429I-50J0D01*
G74*
G01*
X68107Y-38429D02*
X67707Y-38429D01*
X67707Y-38429D02*
X67707Y-37829D01*
X67707Y-37829D02*
X68107Y-37829D01*
X68507Y-37829D02*
X68907Y-37829D01*
X68907Y-37829D02*
X68907Y-38429D01*
X68907Y-38429D02*
X68507Y-38429D01*
X67357Y-36921D02*
G75*
G03X67357Y-36921I-50J0D01*
G74*
G01*
X67307Y-36471D02*
X67307Y-36871D01*
X67307Y-36871D02*
X66707Y-36871D01*
X66707Y-36871D02*
X66707Y-36471D01*
X66707Y-36071D02*
X66707Y-35671D01*
X66707Y-35671D02*
X67307Y-35671D01*
X67307Y-35671D02*
X67307Y-36071D01*
X67829Y-35929D02*
G75*
G03X67829Y-35929I-50J0D01*
G74*
G01*
X68229Y-35929D02*
X67829Y-35929D01*
X67829Y-35929D02*
X67829Y-35329D01*
X67829Y-35329D02*
X68229Y-35329D01*
X68629Y-35329D02*
X69029Y-35329D01*
X69029Y-35329D02*
X69029Y-35929D01*
X69029Y-35929D02*
X68629Y-35929D01*
X64439Y-31079D02*
G75*
G03X64439Y-31079I-50J0D01*
G74*
G01*
X64839Y-31079D02*
X64439Y-31079D01*
X64439Y-31079D02*
X64439Y-30479D01*
X64439Y-30479D02*
X64839Y-30479D01*
X65239Y-30479D02*
X65639Y-30479D01*
X65639Y-30479D02*
X65639Y-31079D01*
X65639Y-31079D02*
X65239Y-31079D01*
X64518Y-32288D02*
G75*
G03X64518Y-32288I-50J0D01*
G74*
G01*
X64918Y-32288D02*
X64518Y-32288D01*
X64518Y-32288D02*
X64518Y-31688D01*
X64518Y-31688D02*
X64918Y-31688D01*
X65318Y-31688D02*
X65718Y-31688D01*
X65718Y-31688D02*
X65718Y-32288D01*
X65718Y-32288D02*
X65318Y-32288D01*
G54D12*
X64818Y-44389D02*
X64738Y-44389D01*
X64218Y-43639D02*
X66018Y-43639D01*
X66018Y-43639D02*
X66018Y-43889D01*
X65378Y-45139D02*
X65378Y-43639D01*
X65508Y-45139D02*
X65508Y-43639D01*
X64218Y-44889D02*
X64218Y-45139D01*
X64218Y-45139D02*
X66018Y-45139D01*
X66018Y-45139D02*
X66018Y-44889D01*
X64218Y-43889D02*
X64218Y-43639D01*
X65068Y-44389D02*
X64818Y-44202D01*
X64818Y-44202D02*
X64818Y-44389D01*
X64818Y-44389D02*
X64818Y-44576D01*
X64818Y-44576D02*
X65068Y-44389D01*
X65068Y-44389D02*
X65068Y-44264D01*
X65068Y-44264D02*
X65006Y-44202D01*
X65068Y-44389D02*
X65068Y-44514D01*
X65068Y-44514D02*
X65130Y-44576D01*
X65068Y-44389D02*
X65505Y-44389D01*
X74480Y-36360D02*
X74480Y-37260D01*
X74480Y-37260D02*
X75130Y-37260D01*
X75830Y-36360D02*
X76480Y-36360D01*
X76480Y-36360D02*
X76480Y-37260D01*
X76480Y-37260D02*
X75830Y-37260D01*
X75130Y-36360D02*
X74480Y-36360D01*
G54D11*
X70527Y-28003D02*
G75*
G03X70527Y-28003I-50J0D01*
G74*
G01*
X70477Y-28453D02*
X70477Y-28053D01*
X70477Y-28053D02*
X71077Y-28053D01*
X71077Y-28053D02*
X71077Y-28453D01*
X71077Y-28853D02*
X71077Y-29253D01*
X71077Y-29253D02*
X70477Y-29253D01*
X70477Y-29253D02*
X70477Y-28853D01*
X72722Y-28033D02*
G75*
G03X72722Y-28033I-50J0D01*
G74*
G01*
X72672Y-28483D02*
X72672Y-28083D01*
X72672Y-28083D02*
X73272Y-28083D01*
X73272Y-28083D02*
X73272Y-28483D01*
X73272Y-28883D02*
X73272Y-29283D01*
X73272Y-29283D02*
X72672Y-29283D01*
X72672Y-29283D02*
X72672Y-28883D01*
X76285Y-27066D02*
G75*
G03X76285Y-27066I-50J0D01*
G74*
G01*
X76235Y-27516D02*
X76235Y-27116D01*
X76235Y-27116D02*
X76835Y-27116D01*
X76835Y-27116D02*
X76835Y-27516D01*
X76835Y-27916D02*
X76835Y-28316D01*
X76835Y-28316D02*
X76235Y-28316D01*
X76235Y-28316D02*
X76235Y-27916D01*
X83844Y-27617D02*
G75*
G03X83844Y-27617I-50J0D01*
G74*
G01*
X83794Y-28067D02*
X83794Y-27667D01*
X83794Y-27667D02*
X84394Y-27667D01*
X84394Y-27667D02*
X84394Y-28067D01*
X84394Y-28467D02*
X84394Y-28867D01*
X84394Y-28867D02*
X83794Y-28867D01*
X83794Y-28867D02*
X83794Y-28467D01*
G54D10*
X70559Y-34051D02*
G75*
G03X70559Y-34051I-141J0D01*
G74*
G01*
X70181Y-32594D02*
X73015Y-32594D01*
X73015Y-32594D02*
X73015Y-34681D01*
X73015Y-34681D02*
X70181Y-34681D01*
X70181Y-34681D02*
X70181Y-32594D01*
G54D12*
X75875Y-40235D02*
X74625Y-40235D01*
X74625Y-40235D02*
X74625Y-40935D01*
X74625Y-40935D02*
X75875Y-40935D01*
X75875Y-38435D02*
X74625Y-38435D01*
X74625Y-38435D02*
X74625Y-39135D01*
X74625Y-39135D02*
X75875Y-39135D01*
X78275Y-41035D02*
X75875Y-41035D01*
X75875Y-41035D02*
X75875Y-38335D01*
X75875Y-38335D02*
X78975Y-38335D01*
X79025Y-38335D02*
X79025Y-41035D01*
X78975Y-41035D02*
X78275Y-41035D01*
G54D11*
X71688Y-28033D02*
G75*
G03X71688Y-28033I-50J0D01*
G74*
G01*
X71638Y-28483D02*
X71638Y-28083D01*
X71638Y-28083D02*
X72238Y-28083D01*
X72238Y-28083D02*
X72238Y-28483D01*
X72238Y-28883D02*
X72238Y-29283D01*
X72238Y-29283D02*
X71638Y-29283D01*
X71638Y-29283D02*
X71638Y-28883D01*
G54D12*
X80708Y-39827D02*
X80708Y-39907D01*
X79958Y-40427D02*
X79958Y-38627D01*
X79958Y-38627D02*
X80208Y-38627D01*
X81458Y-39267D02*
X79958Y-39267D01*
X81458Y-39137D02*
X79958Y-39137D01*
X81208Y-40427D02*
X81458Y-40427D01*
X81458Y-40427D02*
X81458Y-38627D01*
X81458Y-38627D02*
X81208Y-38627D01*
X80208Y-40427D02*
X79958Y-40427D01*
X80708Y-39577D02*
X80521Y-39827D01*
X80521Y-39827D02*
X80708Y-39827D01*
X80708Y-39827D02*
X80895Y-39827D01*
X80895Y-39827D02*
X80708Y-39577D01*
X80708Y-39577D02*
X80583Y-39577D01*
X80583Y-39577D02*
X80521Y-39639D01*
X80708Y-39577D02*
X80833Y-39577D01*
X80833Y-39577D02*
X80895Y-39515D01*
X80708Y-39577D02*
X80708Y-39140D01*
G54D11*
X74350Y-43380D02*
G75*
G03X74350Y-43380I-50J0D01*
G74*
G01*
X74300Y-42930D02*
X74300Y-43330D01*
X74300Y-43330D02*
X73700Y-43330D01*
X73700Y-43330D02*
X73700Y-42930D01*
X73700Y-42530D02*
X73700Y-42130D01*
X73700Y-42130D02*
X74300Y-42130D01*
X74300Y-42130D02*
X74300Y-42530D01*
G54D12*
X75875Y-43305D02*
X74625Y-43305D01*
X74625Y-43305D02*
X74625Y-44005D01*
X74625Y-44005D02*
X75875Y-44005D01*
X75875Y-41505D02*
X74625Y-41505D01*
X74625Y-41505D02*
X74625Y-42205D01*
X74625Y-42205D02*
X75875Y-42205D01*
X78275Y-44105D02*
X75875Y-44105D01*
X75875Y-44105D02*
X75875Y-41405D01*
X75875Y-41405D02*
X78975Y-41405D01*
X79025Y-41405D02*
X79025Y-44105D01*
X78975Y-44105D02*
X78275Y-44105D01*
X77277Y-31201D02*
X77977Y-31201D01*
X77977Y-31201D02*
X77977Y-32401D01*
X77977Y-32401D02*
X77277Y-32401D01*
X77277Y-32401D02*
X77277Y-31201D01*
G54D13*
X67066Y-40797D02*
X67164Y-40679D01*
X67164Y-40679D02*
X67204Y-40620D01*
X67204Y-40620D02*
X67204Y-40954D01*
X66928Y-40206D02*
X66928Y-40915D01*
X66928Y-40206D02*
X67184Y-40206D01*
X68700Y-40206D02*
X68700Y-40915D01*
X68700Y-40206D02*
X68444Y-40206D01*
G54D10*
X61539Y-40562D02*
X64539Y-40562D01*
X64539Y-40562D02*
X64539Y-39578D01*
X64539Y-39578D02*
X61539Y-39578D01*
X61539Y-39578D02*
X61539Y-40562D01*
X68271Y-34673D02*
X68074Y-34830D01*
X66303Y-34673D02*
X66539Y-34830D01*
X66500Y-30303D02*
X68074Y-30303D01*
X66500Y-30303D02*
X66303Y-30460D01*
X68074Y-30303D02*
X68271Y-30500D01*
X66303Y-30460D02*
X66303Y-34673D01*
X66539Y-34830D02*
X68074Y-34830D01*
X68271Y-34673D02*
X68271Y-30500D01*
X86110Y-31920D02*
X86110Y-43337D01*
X86110Y-43337D02*
X83354Y-43337D01*
X83354Y-43337D02*
X83354Y-31920D01*
X83354Y-31920D02*
X86110Y-31920D01*
G54D12*
X70251Y-41496D02*
X70171Y-41496D01*
X69651Y-40746D02*
X71451Y-40746D01*
X71451Y-40746D02*
X71451Y-40996D01*
X70811Y-42246D02*
X70811Y-40746D01*
X70941Y-42246D02*
X70941Y-40746D01*
X69651Y-41996D02*
X69651Y-42246D01*
X69651Y-42246D02*
X71451Y-42246D01*
X71451Y-42246D02*
X71451Y-41996D01*
X69651Y-40996D02*
X69651Y-40746D01*
X70501Y-41496D02*
X70251Y-41309D01*
X70251Y-41309D02*
X70251Y-41496D01*
X70251Y-41496D02*
X70251Y-41683D01*
X70251Y-41683D02*
X70501Y-41496D01*
X70501Y-41496D02*
X70501Y-41371D01*
X70501Y-41371D02*
X70439Y-41309D01*
X70501Y-41496D02*
X70501Y-41621D01*
X70501Y-41621D02*
X70563Y-41683D01*
X70501Y-41496D02*
X70938Y-41496D01*
G54D10*
X59448Y-44685D02*
X59448Y-44763D01*
X59448Y-42519D02*
X59448Y-44724D01*
X58681Y-44458D02*
X58681Y-44783D01*
X58681Y-44783D02*
X58789Y-44783D01*
X63139Y-42500D02*
X63326Y-42500D01*
X63326Y-44448D02*
X63326Y-44783D01*
X58799Y-44783D02*
X63287Y-44783D01*
X63326Y-44468D02*
X63326Y-42500D01*
X63169Y-42500D02*
X58681Y-42500D01*
X58681Y-42500D02*
X58681Y-44468D01*
G54D11*
X78652Y-27731D02*
G75*
G03X78652Y-27731I-50J0D01*
G74*
G01*
X78152Y-27731D02*
X78552Y-27731D01*
X78552Y-27731D02*
X78552Y-28331D01*
X78552Y-28331D02*
X78152Y-28331D01*
X77752Y-28331D02*
X77352Y-28331D01*
X77352Y-28331D02*
X77352Y-27731D01*
X77352Y-27731D02*
X77752Y-27731D01*
X74789Y-27460D02*
G75*
G03X74789Y-27460I-50J0D01*
G74*
G01*
X74739Y-27910D02*
X74739Y-27510D01*
X74739Y-27510D02*
X75339Y-27510D01*
X75339Y-27510D02*
X75339Y-27910D01*
X75339Y-28310D02*
X75339Y-28710D01*
X75339Y-28710D02*
X74739Y-28710D01*
X74739Y-28710D02*
X74739Y-28310D01*
X73760Y-27860D02*
G75*
G03X73760Y-27860I-50J0D01*
G74*
G01*
X73710Y-28310D02*
X73710Y-27910D01*
X73710Y-27910D02*
X74310Y-27910D01*
X74310Y-27910D02*
X74310Y-28310D01*
X74310Y-28710D02*
X74310Y-29110D01*
X74310Y-29110D02*
X73710Y-29110D01*
X73710Y-29110D02*
X73710Y-28710D01*
X72400Y-38430D02*
G75*
G03X72400Y-38430I-50J0D01*
G74*
G01*
X72350Y-37980D02*
X72350Y-38380D01*
X72350Y-38380D02*
X71750Y-38380D01*
X71750Y-38380D02*
X71750Y-37980D01*
X71750Y-37580D02*
X71750Y-37180D01*
X71750Y-37180D02*
X72350Y-37180D01*
X72350Y-37180D02*
X72350Y-37580D01*
G54D12*
X80787Y-43055D02*
X80787Y-43135D01*
X80037Y-43655D02*
X80037Y-41855D01*
X80037Y-41855D02*
X80287Y-41855D01*
X81537Y-42495D02*
X80037Y-42495D01*
X81537Y-42365D02*
X80037Y-42365D01*
X81287Y-43655D02*
X81537Y-43655D01*
X81537Y-43655D02*
X81537Y-41855D01*
X81537Y-41855D02*
X81287Y-41855D01*
X80287Y-43655D02*
X80037Y-43655D01*
X80787Y-42805D02*
X80600Y-43055D01*
X80600Y-43055D02*
X80787Y-43055D01*
X80787Y-43055D02*
X80974Y-43055D01*
X80974Y-43055D02*
X80787Y-42805D01*
X80787Y-42805D02*
X80662Y-42805D01*
X80662Y-42805D02*
X80600Y-42867D01*
X80787Y-42805D02*
X80912Y-42805D01*
X80912Y-42805D02*
X80974Y-42743D01*
X80787Y-42805D02*
X80787Y-42368D01*
G54D10*
X74488Y-29370D02*
X75314Y-29370D01*
X75314Y-29370D02*
X75314Y-30000D01*
X75314Y-30000D02*
X74488Y-30000D01*
X74488Y-30000D02*
X74488Y-29370D01*
G54D11*
X82584Y-27617D02*
G75*
G03X82584Y-27617I-50J0D01*
G74*
G01*
X82534Y-28067D02*
X82534Y-27667D01*
X82534Y-27667D02*
X83134Y-27667D01*
X83134Y-27667D02*
X83134Y-28067D01*
X83134Y-28467D02*
X83134Y-28867D01*
X83134Y-28867D02*
X82534Y-28867D01*
X82534Y-28867D02*
X82534Y-28467D01*
G54D14*
X72457Y-43300D02*
X72363Y-43366D01*
X72457Y-43413D02*
X72260Y-43413D01*
X72260Y-43338D01*
X72270Y-43319D01*
X72279Y-43309D01*
X72298Y-43300D01*
X72326Y-43300D01*
X72345Y-43309D01*
X72354Y-43319D01*
X72363Y-43338D01*
X72363Y-43413D01*
X72260Y-43122D02*
X72260Y-43216D01*
X72354Y-43225D01*
X72345Y-43216D01*
X72335Y-43197D01*
X72335Y-43150D01*
X72345Y-43131D01*
X72354Y-43122D01*
X72373Y-43112D01*
X72420Y-43112D01*
X72438Y-43122D01*
X72448Y-43131D01*
X72457Y-43150D01*
X72457Y-43197D01*
X72448Y-43216D01*
X72438Y-43225D01*
X68608Y-44284D02*
X68617Y-44293D01*
X68626Y-44321D01*
X68626Y-44340D01*
X68617Y-44368D01*
X68598Y-44387D01*
X68580Y-44396D01*
X68542Y-44406D01*
X68514Y-44406D01*
X68476Y-44396D01*
X68458Y-44387D01*
X68439Y-44368D01*
X68429Y-44340D01*
X68429Y-44321D01*
X68439Y-44293D01*
X68448Y-44284D01*
X68626Y-44096D02*
X68626Y-44209D01*
X68626Y-44152D02*
X68429Y-44152D01*
X68458Y-44171D01*
X68476Y-44190D01*
X68486Y-44209D01*
X68626Y-43908D02*
X68626Y-44021D01*
X68626Y-43965D02*
X68429Y-43965D01*
X68458Y-43983D01*
X68476Y-44002D01*
X68486Y-44021D01*
X64260Y-41526D02*
X64270Y-41536D01*
X64279Y-41564D01*
X64279Y-41582D01*
X64270Y-41611D01*
X64251Y-41629D01*
X64232Y-41639D01*
X64195Y-41648D01*
X64167Y-41648D01*
X64129Y-41639D01*
X64110Y-41629D01*
X64092Y-41611D01*
X64082Y-41582D01*
X64082Y-41564D01*
X64092Y-41536D01*
X64101Y-41526D01*
X64279Y-41339D02*
X64279Y-41451D01*
X64279Y-41395D02*
X64082Y-41395D01*
X64110Y-41414D01*
X64129Y-41432D01*
X64139Y-41451D01*
X64082Y-41273D02*
X64082Y-41151D01*
X64157Y-41217D01*
X64157Y-41188D01*
X64167Y-41170D01*
X64176Y-41160D01*
X64195Y-41151D01*
X64242Y-41151D01*
X64260Y-41160D01*
X64270Y-41170D01*
X64279Y-41188D01*
X64279Y-41245D01*
X64270Y-41263D01*
X64260Y-41273D01*
X65260Y-41626D02*
X65270Y-41636D01*
X65279Y-41664D01*
X65279Y-41682D01*
X65270Y-41711D01*
X65251Y-41729D01*
X65232Y-41739D01*
X65195Y-41748D01*
X65167Y-41748D01*
X65129Y-41739D01*
X65110Y-41729D01*
X65092Y-41711D01*
X65082Y-41682D01*
X65082Y-41664D01*
X65092Y-41636D01*
X65101Y-41626D01*
X65279Y-41439D02*
X65279Y-41551D01*
X65279Y-41495D02*
X65082Y-41495D01*
X65110Y-41514D01*
X65129Y-41532D01*
X65139Y-41551D01*
X65101Y-41363D02*
X65092Y-41354D01*
X65082Y-41335D01*
X65082Y-41288D01*
X65092Y-41270D01*
X65101Y-41260D01*
X65120Y-41251D01*
X65139Y-41251D01*
X65167Y-41260D01*
X65279Y-41373D01*
X65279Y-41251D01*
X75053Y-36490D02*
X74988Y-36396D01*
X74941Y-36490D02*
X74941Y-36293D01*
X75016Y-36293D01*
X75035Y-36303D01*
X75044Y-36312D01*
X75053Y-36331D01*
X75053Y-36359D01*
X75044Y-36378D01*
X75035Y-36387D01*
X75016Y-36396D01*
X74941Y-36396D01*
X75222Y-36359D02*
X75222Y-36490D01*
X75175Y-36284D02*
X75128Y-36425D01*
X75250Y-36425D01*
X71262Y-36208D02*
X71196Y-36114D01*
X71149Y-36208D02*
X71149Y-36011D01*
X71224Y-36011D01*
X71243Y-36020D01*
X71252Y-36030D01*
X71262Y-36049D01*
X71262Y-36077D01*
X71252Y-36095D01*
X71243Y-36105D01*
X71224Y-36114D01*
X71149Y-36114D01*
X71327Y-36011D02*
X71449Y-36011D01*
X71384Y-36086D01*
X71412Y-36086D01*
X71430Y-36095D01*
X71440Y-36105D01*
X71449Y-36124D01*
X71449Y-36171D01*
X71440Y-36189D01*
X71430Y-36199D01*
X71412Y-36208D01*
X71355Y-36208D01*
X71337Y-36199D01*
X71327Y-36189D01*
X80004Y-29725D02*
X79911Y-29791D01*
X80004Y-29838D02*
X79807Y-29838D01*
X79807Y-29763D01*
X79817Y-29744D01*
X79826Y-29735D01*
X79845Y-29725D01*
X79873Y-29725D01*
X79892Y-29735D01*
X79901Y-29744D01*
X79911Y-29763D01*
X79911Y-29838D01*
X79826Y-29650D02*
X79817Y-29641D01*
X79807Y-29622D01*
X79807Y-29575D01*
X79817Y-29556D01*
X79826Y-29547D01*
X79845Y-29538D01*
X79864Y-29538D01*
X79892Y-29547D01*
X80004Y-29660D01*
X80004Y-29538D01*
X73722Y-37092D02*
X73731Y-37101D01*
X73741Y-37129D01*
X73741Y-37148D01*
X73731Y-37176D01*
X73713Y-37195D01*
X73694Y-37204D01*
X73656Y-37214D01*
X73628Y-37214D01*
X73591Y-37204D01*
X73572Y-37195D01*
X73553Y-37176D01*
X73544Y-37148D01*
X73544Y-37129D01*
X73553Y-37101D01*
X73562Y-37092D01*
X73562Y-37017D02*
X73553Y-37007D01*
X73544Y-36989D01*
X73544Y-36942D01*
X73553Y-36923D01*
X73562Y-36914D01*
X73581Y-36904D01*
X73600Y-36904D01*
X73628Y-36914D01*
X73741Y-37026D01*
X73741Y-36904D01*
X67667Y-36360D02*
X67657Y-36370D01*
X67629Y-36379D01*
X67610Y-36379D01*
X67582Y-36370D01*
X67563Y-36351D01*
X67554Y-36332D01*
X67545Y-36295D01*
X67545Y-36267D01*
X67554Y-36229D01*
X67563Y-36210D01*
X67582Y-36192D01*
X67610Y-36182D01*
X67629Y-36182D01*
X67657Y-36192D01*
X67667Y-36201D01*
X67836Y-36182D02*
X67798Y-36182D01*
X67779Y-36192D01*
X67770Y-36201D01*
X67751Y-36229D01*
X67742Y-36267D01*
X67742Y-36342D01*
X67751Y-36360D01*
X67760Y-36370D01*
X67779Y-36379D01*
X67817Y-36379D01*
X67836Y-36370D01*
X67845Y-36360D01*
X67854Y-36342D01*
X67854Y-36295D01*
X67845Y-36276D01*
X67836Y-36267D01*
X67817Y-36257D01*
X67779Y-36257D01*
X67760Y-36267D01*
X67751Y-36276D01*
X67742Y-36295D01*
X72168Y-40755D02*
X72074Y-40820D01*
X72168Y-40867D02*
X71971Y-40867D01*
X71971Y-40792D01*
X71980Y-40774D01*
X71990Y-40764D01*
X72008Y-40755D01*
X72036Y-40755D01*
X72055Y-40764D01*
X72065Y-40774D01*
X72074Y-40792D01*
X72074Y-40867D01*
X72168Y-40567D02*
X72168Y-40680D01*
X72168Y-40623D02*
X71971Y-40623D01*
X71999Y-40642D01*
X72018Y-40661D01*
X72027Y-40680D01*
X69207Y-37931D02*
X69197Y-37940D01*
X69169Y-37949D01*
X69151Y-37949D01*
X69122Y-37940D01*
X69104Y-37921D01*
X69094Y-37902D01*
X69085Y-37865D01*
X69085Y-37837D01*
X69094Y-37799D01*
X69104Y-37780D01*
X69122Y-37762D01*
X69151Y-37752D01*
X69169Y-37752D01*
X69197Y-37762D01*
X69207Y-37771D01*
X69319Y-37837D02*
X69301Y-37827D01*
X69291Y-37818D01*
X69282Y-37799D01*
X69282Y-37790D01*
X69291Y-37771D01*
X69301Y-37762D01*
X69319Y-37752D01*
X69357Y-37752D01*
X69376Y-37762D01*
X69385Y-37771D01*
X69394Y-37790D01*
X69394Y-37799D01*
X69385Y-37818D01*
X69376Y-37827D01*
X69357Y-37837D01*
X69319Y-37837D01*
X69301Y-37846D01*
X69291Y-37856D01*
X69282Y-37874D01*
X69282Y-37912D01*
X69291Y-37931D01*
X69301Y-37940D01*
X69319Y-37949D01*
X69357Y-37949D01*
X69376Y-37940D01*
X69385Y-37931D01*
X69394Y-37912D01*
X69394Y-37874D01*
X69385Y-37856D01*
X69376Y-37846D01*
X69357Y-37837D01*
X66160Y-36732D02*
X66170Y-36742D01*
X66179Y-36770D01*
X66179Y-36789D01*
X66170Y-36817D01*
X66151Y-36836D01*
X66132Y-36845D01*
X66095Y-36854D01*
X66067Y-36854D01*
X66029Y-36845D01*
X66010Y-36836D01*
X65992Y-36817D01*
X65982Y-36789D01*
X65982Y-36770D01*
X65992Y-36742D01*
X66001Y-36732D01*
X65982Y-36667D02*
X65982Y-36535D01*
X66179Y-36620D01*
X68367Y-35179D02*
X68273Y-35179D01*
X68273Y-34982D01*
X68526Y-34982D02*
X68432Y-34982D01*
X68423Y-35076D01*
X68432Y-35067D01*
X68451Y-35057D01*
X68498Y-35057D01*
X68517Y-35067D01*
X68526Y-35076D01*
X68536Y-35095D01*
X68536Y-35142D01*
X68526Y-35160D01*
X68517Y-35170D01*
X68498Y-35179D01*
X68451Y-35179D01*
X68432Y-35170D01*
X68423Y-35160D01*
X64567Y-30160D02*
X64557Y-30170D01*
X64529Y-30179D01*
X64510Y-30179D01*
X64482Y-30170D01*
X64463Y-30151D01*
X64454Y-30132D01*
X64445Y-30095D01*
X64445Y-30067D01*
X64454Y-30029D01*
X64463Y-30010D01*
X64482Y-29992D01*
X64510Y-29982D01*
X64529Y-29982D01*
X64557Y-29992D01*
X64567Y-30001D01*
X64745Y-29982D02*
X64651Y-29982D01*
X64642Y-30076D01*
X64651Y-30067D01*
X64670Y-30057D01*
X64717Y-30057D01*
X64736Y-30067D01*
X64745Y-30076D01*
X64754Y-30095D01*
X64754Y-30142D01*
X64745Y-30160D01*
X64736Y-30170D01*
X64717Y-30179D01*
X64670Y-30179D01*
X64651Y-30170D01*
X64642Y-30160D01*
X64467Y-32660D02*
X64457Y-32670D01*
X64429Y-32679D01*
X64410Y-32679D01*
X64382Y-32670D01*
X64363Y-32651D01*
X64354Y-32632D01*
X64345Y-32595D01*
X64345Y-32567D01*
X64354Y-32529D01*
X64363Y-32510D01*
X64382Y-32492D01*
X64410Y-32482D01*
X64429Y-32482D01*
X64457Y-32492D01*
X64467Y-32501D01*
X64636Y-32548D02*
X64636Y-32679D01*
X64589Y-32473D02*
X64542Y-32614D01*
X64664Y-32614D01*
G54D15*
X64109Y-45959D02*
X64109Y-45565D01*
X64203Y-45565D01*
X64259Y-45584D01*
X64296Y-45621D01*
X64315Y-45659D01*
X64334Y-45734D01*
X64334Y-45790D01*
X64315Y-45865D01*
X64296Y-45903D01*
X64259Y-45940D01*
X64203Y-45959D01*
X64109Y-45959D01*
X64484Y-45603D02*
X64503Y-45584D01*
X64540Y-45565D01*
X64634Y-45565D01*
X64672Y-45584D01*
X64690Y-45603D01*
X64709Y-45640D01*
X64709Y-45678D01*
X64690Y-45734D01*
X64465Y-45959D01*
X64709Y-45959D01*
G54D12*
X75981Y-37623D02*
X75966Y-37637D01*
X75924Y-37651D01*
X75895Y-37651D01*
X75852Y-37637D01*
X75824Y-37609D01*
X75809Y-37580D01*
X75795Y-37523D01*
X75795Y-37480D01*
X75809Y-37423D01*
X75824Y-37394D01*
X75852Y-37366D01*
X75895Y-37351D01*
X75924Y-37351D01*
X75966Y-37366D01*
X75981Y-37380D01*
X76266Y-37651D02*
X76095Y-37651D01*
X76181Y-37651D02*
X76181Y-37351D01*
X76152Y-37394D01*
X76124Y-37423D01*
X76095Y-37437D01*
G54D14*
X70249Y-28662D02*
X70155Y-28728D01*
X70249Y-28775D02*
X70052Y-28775D01*
X70052Y-28700D01*
X70062Y-28681D01*
X70071Y-28672D01*
X70090Y-28662D01*
X70118Y-28662D01*
X70137Y-28672D01*
X70146Y-28681D01*
X70155Y-28700D01*
X70155Y-28775D01*
X70052Y-28493D02*
X70052Y-28531D01*
X70062Y-28550D01*
X70071Y-28559D01*
X70099Y-28578D01*
X70137Y-28587D01*
X70212Y-28587D01*
X70230Y-28578D01*
X70240Y-28569D01*
X70249Y-28550D01*
X70249Y-28512D01*
X70240Y-28493D01*
X70230Y-28484D01*
X70212Y-28475D01*
X70165Y-28475D01*
X70146Y-28484D01*
X70137Y-28493D01*
X70127Y-28512D01*
X70127Y-28550D01*
X70137Y-28569D01*
X70146Y-28578D01*
X70165Y-28587D01*
X72559Y-29032D02*
X72465Y-29098D01*
X72559Y-29145D02*
X72362Y-29145D01*
X72362Y-29070D01*
X72372Y-29051D01*
X72381Y-29042D01*
X72400Y-29032D01*
X72428Y-29032D01*
X72447Y-29042D01*
X72456Y-29051D01*
X72465Y-29070D01*
X72465Y-29145D01*
X72447Y-28920D02*
X72437Y-28939D01*
X72428Y-28948D01*
X72409Y-28957D01*
X72400Y-28957D01*
X72381Y-28948D01*
X72372Y-28939D01*
X72362Y-28920D01*
X72362Y-28882D01*
X72372Y-28863D01*
X72381Y-28854D01*
X72400Y-28845D01*
X72409Y-28845D01*
X72428Y-28854D01*
X72437Y-28863D01*
X72447Y-28882D01*
X72447Y-28920D01*
X72456Y-28939D01*
X72465Y-28948D01*
X72484Y-28957D01*
X72522Y-28957D01*
X72540Y-28948D01*
X72550Y-28939D01*
X72559Y-28920D01*
X72559Y-28882D01*
X72550Y-28863D01*
X72540Y-28854D01*
X72522Y-28845D01*
X72484Y-28845D01*
X72465Y-28854D01*
X72456Y-28863D01*
X72447Y-28882D01*
X76109Y-28182D02*
X76015Y-28248D01*
X76109Y-28295D02*
X75912Y-28295D01*
X75912Y-28220D01*
X75922Y-28201D01*
X75931Y-28192D01*
X75950Y-28182D01*
X75978Y-28182D01*
X75997Y-28192D01*
X76006Y-28201D01*
X76015Y-28220D01*
X76015Y-28295D01*
X76109Y-28089D02*
X76109Y-28051D01*
X76100Y-28032D01*
X76090Y-28023D01*
X76062Y-28004D01*
X76025Y-27995D01*
X75950Y-27995D01*
X75931Y-28004D01*
X75922Y-28013D01*
X75912Y-28032D01*
X75912Y-28070D01*
X75922Y-28089D01*
X75931Y-28098D01*
X75950Y-28107D01*
X75997Y-28107D01*
X76015Y-28098D01*
X76025Y-28089D01*
X76034Y-28070D01*
X76034Y-28032D01*
X76025Y-28013D01*
X76015Y-28004D01*
X75997Y-27995D01*
X84745Y-28738D02*
X84651Y-28804D01*
X84745Y-28851D02*
X84548Y-28851D01*
X84548Y-28776D01*
X84557Y-28757D01*
X84566Y-28748D01*
X84585Y-28738D01*
X84613Y-28738D01*
X84632Y-28748D01*
X84641Y-28757D01*
X84651Y-28776D01*
X84651Y-28851D01*
X84745Y-28551D02*
X84745Y-28663D01*
X84745Y-28607D02*
X84548Y-28607D01*
X84576Y-28626D01*
X84594Y-28645D01*
X84604Y-28663D01*
X84548Y-28429D02*
X84548Y-28410D01*
X84557Y-28391D01*
X84566Y-28382D01*
X84585Y-28372D01*
X84623Y-28363D01*
X84670Y-28363D01*
X84707Y-28372D01*
X84726Y-28382D01*
X84735Y-28391D01*
X84745Y-28410D01*
X84745Y-28429D01*
X84735Y-28448D01*
X84726Y-28457D01*
X84707Y-28466D01*
X84670Y-28476D01*
X84623Y-28476D01*
X84585Y-28466D01*
X84566Y-28457D01*
X84557Y-28448D01*
X84548Y-28429D01*
G54D10*
X73100Y-33965D02*
X73100Y-34284D01*
X73118Y-34321D01*
X73137Y-34340D01*
X73175Y-34359D01*
X73250Y-34359D01*
X73287Y-34340D01*
X73306Y-34321D01*
X73325Y-34284D01*
X73325Y-33965D01*
X73493Y-34003D02*
X73512Y-33984D01*
X73549Y-33965D01*
X73643Y-33965D01*
X73681Y-33984D01*
X73699Y-34003D01*
X73718Y-34040D01*
X73718Y-34078D01*
X73699Y-34134D01*
X73474Y-34359D01*
X73718Y-34359D01*
G54D16*
X79625Y-39723D02*
X79601Y-39761D01*
X79554Y-39799D01*
X79482Y-39856D01*
X79458Y-39894D01*
X79458Y-39932D01*
X79577Y-39913D02*
X79554Y-39951D01*
X79506Y-39989D01*
X79411Y-40008D01*
X79244Y-40008D01*
X79149Y-39989D01*
X79101Y-39951D01*
X79077Y-39913D01*
X79077Y-39837D01*
X79101Y-39799D01*
X79149Y-39761D01*
X79244Y-39742D01*
X79411Y-39742D01*
X79506Y-39761D01*
X79554Y-39799D01*
X79577Y-39837D01*
X79577Y-39913D01*
X79577Y-39361D02*
X79577Y-39589D01*
X79577Y-39475D02*
X79077Y-39475D01*
X79149Y-39513D01*
X79197Y-39551D01*
X79220Y-39589D01*
G54D14*
X71479Y-29042D02*
X71385Y-29108D01*
X71479Y-29155D02*
X71282Y-29155D01*
X71282Y-29080D01*
X71292Y-29061D01*
X71301Y-29052D01*
X71320Y-29042D01*
X71348Y-29042D01*
X71367Y-29052D01*
X71376Y-29061D01*
X71385Y-29080D01*
X71385Y-29155D01*
X71282Y-28977D02*
X71282Y-28845D01*
X71479Y-28930D01*
G54D15*
X82836Y-39424D02*
X82442Y-39424D01*
X82442Y-39330D01*
X82461Y-39274D01*
X82498Y-39237D01*
X82536Y-39218D01*
X82611Y-39199D01*
X82667Y-39199D01*
X82742Y-39218D01*
X82780Y-39237D01*
X82817Y-39274D01*
X82836Y-39330D01*
X82836Y-39424D01*
X82836Y-38824D02*
X82836Y-39049D01*
X82836Y-38936D02*
X82442Y-38936D01*
X82498Y-38974D01*
X82536Y-39011D01*
X82555Y-39049D01*
G54D14*
X73422Y-43100D02*
X73328Y-43166D01*
X73422Y-43213D02*
X73225Y-43213D01*
X73225Y-43138D01*
X73234Y-43119D01*
X73244Y-43110D01*
X73262Y-43100D01*
X73290Y-43100D01*
X73309Y-43110D01*
X73319Y-43119D01*
X73328Y-43138D01*
X73328Y-43213D01*
X73422Y-42913D02*
X73422Y-43025D01*
X73422Y-42969D02*
X73225Y-42969D01*
X73253Y-42988D01*
X73272Y-43006D01*
X73281Y-43025D01*
X73422Y-42725D02*
X73422Y-42838D01*
X73422Y-42781D02*
X73225Y-42781D01*
X73253Y-42800D01*
X73272Y-42819D01*
X73281Y-42838D01*
G54D16*
X79625Y-42794D02*
X79601Y-42832D01*
X79554Y-42870D01*
X79482Y-42927D01*
X79458Y-42965D01*
X79458Y-43003D01*
X79577Y-42984D02*
X79554Y-43022D01*
X79506Y-43060D01*
X79411Y-43079D01*
X79244Y-43079D01*
X79149Y-43060D01*
X79101Y-43022D01*
X79077Y-42984D01*
X79077Y-42908D01*
X79101Y-42870D01*
X79149Y-42832D01*
X79244Y-42813D01*
X79411Y-42813D01*
X79506Y-42832D01*
X79554Y-42870D01*
X79577Y-42908D01*
X79577Y-42984D01*
X79125Y-42660D02*
X79101Y-42641D01*
X79077Y-42603D01*
X79077Y-42508D01*
X79101Y-42470D01*
X79125Y-42451D01*
X79173Y-42432D01*
X79220Y-42432D01*
X79292Y-42451D01*
X79577Y-42679D01*
X79577Y-42432D01*
G54D12*
X77242Y-30843D02*
X77242Y-31045D01*
X77254Y-31069D01*
X77266Y-31081D01*
X77290Y-31093D01*
X77337Y-31093D01*
X77361Y-31081D01*
X77373Y-31069D01*
X77385Y-31045D01*
X77385Y-30843D01*
X77635Y-31093D02*
X77492Y-31093D01*
X77564Y-31093D02*
X77564Y-30843D01*
X77540Y-30879D01*
X77516Y-30902D01*
X77492Y-30914D01*
G54D17*
X68964Y-40434D02*
X68964Y-40919D01*
X68992Y-40977D01*
X69021Y-41005D01*
X69078Y-41034D01*
X69192Y-41034D01*
X69249Y-41005D01*
X69278Y-40977D01*
X69306Y-40919D01*
X69306Y-40434D01*
X69535Y-40434D02*
X69906Y-40434D01*
X69706Y-40662D01*
X69792Y-40662D01*
X69849Y-40691D01*
X69878Y-40719D01*
X69906Y-40777D01*
X69906Y-40919D01*
X69878Y-40977D01*
X69849Y-41005D01*
X69792Y-41034D01*
X69621Y-41034D01*
X69564Y-41005D01*
X69535Y-40977D01*
G54D18*
X62059Y-41312D02*
X62059Y-40919D01*
X62209Y-40919D01*
X62247Y-40937D01*
X62266Y-40956D01*
X62284Y-40994D01*
X62284Y-41050D01*
X62266Y-41087D01*
X62247Y-41106D01*
X62209Y-41125D01*
X62059Y-41125D01*
X62434Y-40956D02*
X62453Y-40937D01*
X62491Y-40919D01*
X62584Y-40919D01*
X62622Y-40937D01*
X62640Y-40956D01*
X62659Y-40994D01*
X62659Y-41031D01*
X62640Y-41087D01*
X62416Y-41312D01*
X62659Y-41312D01*
G54D10*
X64665Y-34318D02*
X65059Y-34056D01*
X64665Y-34056D02*
X65059Y-34318D01*
X65059Y-33700D02*
X65059Y-33925D01*
X65059Y-33812D02*
X64665Y-33812D01*
X64721Y-33850D01*
X64759Y-33887D01*
X64778Y-33925D01*
X85757Y-32899D02*
X85363Y-32899D01*
X85363Y-32749D01*
X85382Y-32712D01*
X85401Y-32693D01*
X85438Y-32674D01*
X85495Y-32674D01*
X85532Y-32693D01*
X85551Y-32712D01*
X85570Y-32749D01*
X85570Y-32899D01*
X85757Y-32299D02*
X85757Y-32524D01*
X85757Y-32412D02*
X85363Y-32412D01*
X85420Y-32449D01*
X85457Y-32487D01*
X85476Y-32524D01*
G54D15*
X70260Y-40631D02*
X70260Y-40237D01*
X70354Y-40237D01*
X70410Y-40256D01*
X70447Y-40293D01*
X70466Y-40331D01*
X70485Y-40406D01*
X70485Y-40462D01*
X70466Y-40537D01*
X70447Y-40575D01*
X70410Y-40612D01*
X70354Y-40631D01*
X70260Y-40631D01*
X70616Y-40237D02*
X70860Y-40237D01*
X70729Y-40387D01*
X70785Y-40387D01*
X70823Y-40406D01*
X70841Y-40425D01*
X70860Y-40462D01*
X70860Y-40556D01*
X70841Y-40594D01*
X70823Y-40612D01*
X70785Y-40631D01*
X70673Y-40631D01*
X70635Y-40612D01*
X70616Y-40594D01*
G54D12*
X81687Y-32420D02*
X81801Y-32420D01*
X81744Y-32620D02*
X81744Y-32420D01*
X81868Y-32620D02*
X81868Y-32420D01*
X81944Y-32420D01*
X81963Y-32430D01*
X81973Y-32440D01*
X81982Y-32459D01*
X81982Y-32487D01*
X81973Y-32506D01*
X81963Y-32516D01*
X81944Y-32525D01*
X81868Y-32525D01*
X82173Y-32620D02*
X82059Y-32620D01*
X82116Y-32620D02*
X82116Y-32420D01*
X82097Y-32449D01*
X82078Y-32468D01*
X82059Y-32478D01*
X70217Y-43198D02*
X70331Y-43198D01*
X70274Y-43398D02*
X70274Y-43198D01*
X70398Y-43398D02*
X70398Y-43198D01*
X70474Y-43198D01*
X70493Y-43208D01*
X70503Y-43218D01*
X70512Y-43237D01*
X70512Y-43265D01*
X70503Y-43284D01*
X70493Y-43294D01*
X70474Y-43303D01*
X70398Y-43303D01*
X70608Y-43398D02*
X70646Y-43398D01*
X70665Y-43389D01*
X70674Y-43379D01*
X70693Y-43351D01*
X70703Y-43313D01*
X70703Y-43237D01*
X70693Y-43218D01*
X70684Y-43208D01*
X70665Y-43198D01*
X70627Y-43198D01*
X70608Y-43208D01*
X70598Y-43218D01*
X70589Y-43237D01*
X70589Y-43284D01*
X70598Y-43303D01*
X70608Y-43313D01*
X70627Y-43322D01*
X70665Y-43322D01*
X70684Y-43313D01*
X70693Y-43303D01*
X70703Y-43284D01*
X79352Y-35928D02*
X79466Y-35928D01*
X79409Y-36128D02*
X79409Y-35928D01*
X79533Y-36128D02*
X79533Y-35928D01*
X79609Y-35928D01*
X79628Y-35938D01*
X79638Y-35948D01*
X79647Y-35967D01*
X79647Y-35995D01*
X79638Y-36014D01*
X79628Y-36024D01*
X79609Y-36033D01*
X79533Y-36033D01*
X79838Y-36128D02*
X79723Y-36128D01*
X79780Y-36128D02*
X79780Y-35928D01*
X79761Y-35957D01*
X79742Y-35976D01*
X79723Y-35986D01*
X80028Y-36128D02*
X79914Y-36128D01*
X79971Y-36128D02*
X79971Y-35928D01*
X79952Y-35957D01*
X79933Y-35976D01*
X79914Y-35986D01*
X77752Y-34008D02*
X77866Y-34008D01*
X77809Y-34208D02*
X77809Y-34008D01*
X77933Y-34208D02*
X77933Y-34008D01*
X78009Y-34008D01*
X78028Y-34018D01*
X78038Y-34028D01*
X78047Y-34047D01*
X78047Y-34075D01*
X78038Y-34094D01*
X78028Y-34104D01*
X78009Y-34113D01*
X77933Y-34113D01*
X78238Y-34208D02*
X78123Y-34208D01*
X78180Y-34208D02*
X78180Y-34008D01*
X78161Y-34037D01*
X78142Y-34056D01*
X78123Y-34066D01*
X78361Y-34008D02*
X78380Y-34008D01*
X78400Y-34018D01*
X78409Y-34028D01*
X78419Y-34047D01*
X78428Y-34085D01*
X78428Y-34132D01*
X78419Y-34170D01*
X78409Y-34189D01*
X78400Y-34199D01*
X78380Y-34208D01*
X78361Y-34208D01*
X78342Y-34199D01*
X78333Y-34189D01*
X78323Y-34170D01*
X78314Y-34132D01*
X78314Y-34085D01*
X78323Y-34047D01*
X78333Y-34028D01*
X78342Y-34018D01*
X78361Y-34008D01*
X73632Y-40688D02*
X73746Y-40688D01*
X73689Y-40888D02*
X73689Y-40688D01*
X73813Y-40888D02*
X73813Y-40688D01*
X73889Y-40688D01*
X73908Y-40698D01*
X73918Y-40708D01*
X73927Y-40727D01*
X73927Y-40755D01*
X73918Y-40774D01*
X73908Y-40784D01*
X73889Y-40793D01*
X73813Y-40793D01*
X74118Y-40888D02*
X74003Y-40888D01*
X74060Y-40888D02*
X74060Y-40688D01*
X74041Y-40717D01*
X74022Y-40736D01*
X74003Y-40746D01*
X74194Y-40708D02*
X74203Y-40698D01*
X74222Y-40688D01*
X74270Y-40688D01*
X74289Y-40698D01*
X74299Y-40708D01*
X74308Y-40727D01*
X74308Y-40746D01*
X74299Y-40774D01*
X74184Y-40888D01*
X74308Y-40888D01*
X67087Y-28828D02*
X67201Y-28828D01*
X67144Y-29028D02*
X67144Y-28828D01*
X67268Y-29028D02*
X67268Y-28828D01*
X67344Y-28828D01*
X67363Y-28838D01*
X67373Y-28848D01*
X67382Y-28867D01*
X67382Y-28895D01*
X67373Y-28914D01*
X67363Y-28924D01*
X67344Y-28933D01*
X67268Y-28933D01*
X67459Y-28848D02*
X67468Y-28838D01*
X67487Y-28828D01*
X67535Y-28828D01*
X67554Y-28838D01*
X67563Y-28848D01*
X67573Y-28867D01*
X67573Y-28886D01*
X67563Y-28914D01*
X67449Y-29028D01*
X67573Y-29028D01*
X65867Y-28858D02*
X65981Y-28858D01*
X65924Y-29058D02*
X65924Y-28858D01*
X66048Y-29058D02*
X66048Y-28858D01*
X66124Y-28858D01*
X66143Y-28868D01*
X66153Y-28878D01*
X66162Y-28897D01*
X66162Y-28925D01*
X66153Y-28944D01*
X66143Y-28954D01*
X66124Y-28963D01*
X66048Y-28963D01*
X66229Y-28858D02*
X66353Y-28858D01*
X66286Y-28935D01*
X66315Y-28935D01*
X66334Y-28944D01*
X66343Y-28954D01*
X66353Y-28973D01*
X66353Y-29020D01*
X66343Y-29039D01*
X66334Y-29049D01*
X66315Y-29058D01*
X66258Y-29058D01*
X66239Y-29049D01*
X66229Y-29039D01*
X64557Y-28848D02*
X64671Y-28848D01*
X64614Y-29048D02*
X64614Y-28848D01*
X64738Y-29048D02*
X64738Y-28848D01*
X64814Y-28848D01*
X64833Y-28858D01*
X64843Y-28868D01*
X64852Y-28887D01*
X64852Y-28915D01*
X64843Y-28934D01*
X64833Y-28944D01*
X64814Y-28953D01*
X64738Y-28953D01*
X65024Y-28915D02*
X65024Y-29048D01*
X64976Y-28839D02*
X64929Y-28982D01*
X65052Y-28982D01*
X68207Y-28858D02*
X68321Y-28858D01*
X68264Y-29058D02*
X68264Y-28858D01*
X68388Y-29058D02*
X68388Y-28858D01*
X68464Y-28858D01*
X68483Y-28868D01*
X68493Y-28878D01*
X68502Y-28897D01*
X68502Y-28925D01*
X68493Y-28944D01*
X68483Y-28954D01*
X68464Y-28963D01*
X68388Y-28963D01*
X68683Y-28858D02*
X68588Y-28858D01*
X68579Y-28954D01*
X68588Y-28944D01*
X68607Y-28935D01*
X68655Y-28935D01*
X68674Y-28944D01*
X68683Y-28954D01*
X68693Y-28973D01*
X68693Y-29020D01*
X68683Y-29039D01*
X68674Y-29049D01*
X68655Y-29058D01*
X68607Y-29058D01*
X68588Y-29049D01*
X68579Y-29039D01*
X82109Y-30077D02*
X82224Y-30077D01*
X82166Y-30277D02*
X82166Y-30077D01*
X82290Y-30277D02*
X82290Y-30077D01*
X82366Y-30077D01*
X82386Y-30087D01*
X82395Y-30096D01*
X82405Y-30115D01*
X82405Y-30144D01*
X82395Y-30163D01*
X82386Y-30173D01*
X82366Y-30182D01*
X82290Y-30182D01*
X82576Y-30077D02*
X82538Y-30077D01*
X82519Y-30087D01*
X82509Y-30096D01*
X82490Y-30125D01*
X82481Y-30163D01*
X82481Y-30239D01*
X82490Y-30258D01*
X82500Y-30268D01*
X82519Y-30277D01*
X82557Y-30277D01*
X82576Y-30268D01*
X82586Y-30258D01*
X82595Y-30239D01*
X82595Y-30192D01*
X82586Y-30173D01*
X82576Y-30163D01*
X82557Y-30153D01*
X82519Y-30153D01*
X82500Y-30163D01*
X82490Y-30173D01*
X82481Y-30192D01*
X80298Y-28896D02*
X80413Y-28896D01*
X80355Y-29096D02*
X80355Y-28896D01*
X80479Y-29096D02*
X80479Y-28896D01*
X80555Y-28896D01*
X80574Y-28906D01*
X80584Y-28915D01*
X80594Y-28934D01*
X80594Y-28963D01*
X80584Y-28982D01*
X80574Y-28991D01*
X80555Y-29001D01*
X80479Y-29001D01*
X80660Y-28896D02*
X80794Y-28896D01*
X80708Y-29096D01*
X79307Y-37568D02*
X79421Y-37568D01*
X79364Y-37768D02*
X79364Y-37568D01*
X79488Y-37768D02*
X79488Y-37568D01*
X79564Y-37568D01*
X79583Y-37578D01*
X79593Y-37588D01*
X79602Y-37607D01*
X79602Y-37635D01*
X79593Y-37654D01*
X79583Y-37664D01*
X79564Y-37673D01*
X79488Y-37673D01*
X79717Y-37654D02*
X79698Y-37645D01*
X79688Y-37635D01*
X79679Y-37616D01*
X79679Y-37607D01*
X79688Y-37588D01*
X79698Y-37578D01*
X79717Y-37568D01*
X79755Y-37568D01*
X79774Y-37578D01*
X79783Y-37588D01*
X79793Y-37607D01*
X79793Y-37616D01*
X79783Y-37635D01*
X79774Y-37645D01*
X79755Y-37654D01*
X79717Y-37654D01*
X79698Y-37664D01*
X79688Y-37673D01*
X79679Y-37692D01*
X79679Y-37730D01*
X79688Y-37749D01*
X79698Y-37759D01*
X79717Y-37768D01*
X79755Y-37768D01*
X79774Y-37759D01*
X79783Y-37749D01*
X79793Y-37730D01*
X79793Y-37692D01*
X79783Y-37673D01*
X79774Y-37664D01*
X79755Y-37654D01*
G54D10*
X60742Y-42356D02*
X60723Y-42374D01*
X60667Y-42393D01*
X60629Y-42393D01*
X60573Y-42374D01*
X60536Y-42337D01*
X60517Y-42299D01*
X60498Y-42224D01*
X60498Y-42168D01*
X60517Y-42093D01*
X60536Y-42056D01*
X60573Y-42018D01*
X60629Y-41999D01*
X60667Y-41999D01*
X60723Y-42018D01*
X60742Y-42037D01*
X60986Y-41999D02*
X61061Y-41999D01*
X61098Y-42018D01*
X61136Y-42056D01*
X61154Y-42131D01*
X61154Y-42262D01*
X61136Y-42337D01*
X61098Y-42374D01*
X61061Y-42393D01*
X60986Y-42393D01*
X60948Y-42374D01*
X60911Y-42337D01*
X60892Y-42262D01*
X60892Y-42131D01*
X60911Y-42056D01*
X60948Y-42018D01*
X60986Y-41999D01*
X61323Y-42393D02*
X61323Y-41999D01*
X61548Y-42393D01*
X61548Y-41999D01*
X61942Y-42393D02*
X61717Y-42393D01*
X61829Y-42393D02*
X61829Y-41999D01*
X61792Y-42056D01*
X61754Y-42093D01*
X61717Y-42112D01*
G54D14*
X78843Y-28139D02*
X78777Y-28045D01*
X78730Y-28139D02*
X78730Y-27942D01*
X78805Y-27942D01*
X78824Y-27952D01*
X78833Y-27961D01*
X78843Y-27980D01*
X78843Y-28008D01*
X78833Y-28027D01*
X78824Y-28036D01*
X78805Y-28045D01*
X78730Y-28045D01*
X79030Y-28139D02*
X78918Y-28139D01*
X78974Y-28139D02*
X78974Y-27942D01*
X78955Y-27970D01*
X78937Y-27989D01*
X78918Y-27999D01*
X79199Y-28008D02*
X79199Y-28139D01*
X79152Y-27933D02*
X79106Y-28074D01*
X79227Y-28074D01*
X74719Y-29086D02*
X74625Y-29152D01*
X74719Y-29199D02*
X74522Y-29199D01*
X74522Y-29124D01*
X74532Y-29105D01*
X74541Y-29096D01*
X74560Y-29086D01*
X74588Y-29086D01*
X74607Y-29096D01*
X74616Y-29105D01*
X74625Y-29124D01*
X74625Y-29199D01*
X74719Y-28899D02*
X74719Y-29011D01*
X74719Y-28955D02*
X74522Y-28955D01*
X74550Y-28974D01*
X74569Y-28992D01*
X74579Y-29011D01*
X74522Y-28833D02*
X74522Y-28711D01*
X74597Y-28777D01*
X74597Y-28748D01*
X74607Y-28730D01*
X74616Y-28720D01*
X74635Y-28711D01*
X74682Y-28711D01*
X74700Y-28720D01*
X74710Y-28730D01*
X74719Y-28748D01*
X74719Y-28805D01*
X74710Y-28823D01*
X74700Y-28833D01*
X73609Y-29056D02*
X73515Y-29122D01*
X73609Y-29169D02*
X73412Y-29169D01*
X73412Y-29094D01*
X73422Y-29075D01*
X73431Y-29066D01*
X73450Y-29056D01*
X73478Y-29056D01*
X73497Y-29066D01*
X73506Y-29075D01*
X73515Y-29094D01*
X73515Y-29169D01*
X73609Y-28869D02*
X73609Y-28981D01*
X73609Y-28925D02*
X73412Y-28925D01*
X73440Y-28944D01*
X73459Y-28962D01*
X73469Y-28981D01*
X73431Y-28793D02*
X73422Y-28784D01*
X73412Y-28765D01*
X73412Y-28718D01*
X73422Y-28700D01*
X73431Y-28690D01*
X73450Y-28681D01*
X73469Y-28681D01*
X73497Y-28690D01*
X73609Y-28803D01*
X73609Y-28681D01*
X72004Y-37906D02*
X71910Y-37972D01*
X72004Y-38019D02*
X71807Y-38019D01*
X71807Y-37944D01*
X71817Y-37925D01*
X71826Y-37916D01*
X71845Y-37906D01*
X71873Y-37906D01*
X71892Y-37916D01*
X71901Y-37925D01*
X71910Y-37944D01*
X71910Y-38019D01*
X72004Y-37719D02*
X72004Y-37831D01*
X72004Y-37775D02*
X71807Y-37775D01*
X71835Y-37794D01*
X71854Y-37812D01*
X71864Y-37831D01*
X71807Y-37540D02*
X71807Y-37634D01*
X71901Y-37643D01*
X71892Y-37634D01*
X71882Y-37615D01*
X71882Y-37568D01*
X71892Y-37550D01*
X71901Y-37540D01*
X71920Y-37531D01*
X71967Y-37531D01*
X71985Y-37540D01*
X71995Y-37550D01*
X72004Y-37568D01*
X72004Y-37615D01*
X71995Y-37634D01*
X71985Y-37643D01*
G54D12*
X73825Y-38660D02*
X73939Y-38660D01*
X73882Y-38860D02*
X73882Y-38660D01*
X74006Y-38860D02*
X74006Y-38660D01*
X74082Y-38660D01*
X74101Y-38670D01*
X74111Y-38679D01*
X74120Y-38698D01*
X74120Y-38727D01*
X74111Y-38746D01*
X74101Y-38755D01*
X74082Y-38765D01*
X74006Y-38765D01*
X74311Y-38860D02*
X74197Y-38860D01*
X74254Y-38860D02*
X74254Y-38660D01*
X74235Y-38689D01*
X74216Y-38708D01*
X74197Y-38717D01*
X74482Y-38727D02*
X74482Y-38860D01*
X74435Y-38650D02*
X74387Y-38793D01*
X74511Y-38793D01*
X82172Y-40865D02*
X82286Y-40865D01*
X82229Y-41065D02*
X82229Y-40865D01*
X82353Y-41065D02*
X82353Y-40865D01*
X82429Y-40865D01*
X82448Y-40874D01*
X82457Y-40884D01*
X82467Y-40903D01*
X82467Y-40931D01*
X82457Y-40950D01*
X82448Y-40960D01*
X82429Y-40969D01*
X82353Y-40969D01*
X82657Y-41065D02*
X82543Y-41065D01*
X82600Y-41065D02*
X82600Y-40865D01*
X82581Y-40893D01*
X82562Y-40912D01*
X82543Y-40922D01*
X82838Y-40865D02*
X82743Y-40865D01*
X82733Y-40960D01*
X82743Y-40950D01*
X82762Y-40941D01*
X82810Y-40941D01*
X82829Y-40950D01*
X82838Y-40960D01*
X82848Y-40979D01*
X82848Y-41027D01*
X82838Y-41046D01*
X82829Y-41055D01*
X82810Y-41065D01*
X82762Y-41065D01*
X82743Y-41055D01*
X82733Y-41046D01*
X82250Y-44093D02*
X82365Y-44093D01*
X82307Y-44293D02*
X82307Y-44093D01*
X82431Y-44293D02*
X82431Y-44093D01*
X82507Y-44093D01*
X82526Y-44103D01*
X82536Y-44112D01*
X82546Y-44131D01*
X82546Y-44160D01*
X82536Y-44179D01*
X82526Y-44188D01*
X82507Y-44198D01*
X82431Y-44198D01*
X82736Y-44293D02*
X82622Y-44293D01*
X82679Y-44293D02*
X82679Y-44093D01*
X82660Y-44122D01*
X82641Y-44141D01*
X82622Y-44150D01*
X82907Y-44093D02*
X82869Y-44093D01*
X82850Y-44103D01*
X82841Y-44112D01*
X82822Y-44141D01*
X82812Y-44179D01*
X82812Y-44255D01*
X82822Y-44274D01*
X82831Y-44284D01*
X82850Y-44293D01*
X82888Y-44293D01*
X82907Y-44284D01*
X82917Y-44274D01*
X82926Y-44255D01*
X82926Y-44207D01*
X82917Y-44188D01*
X82907Y-44179D01*
X82888Y-44169D01*
X82850Y-44169D01*
X82831Y-44179D01*
X82822Y-44188D01*
X82812Y-44207D01*
X73502Y-41968D02*
X73616Y-41968D01*
X73559Y-42168D02*
X73559Y-41968D01*
X73683Y-42168D02*
X73683Y-41968D01*
X73759Y-41968D01*
X73778Y-41978D01*
X73788Y-41988D01*
X73797Y-42007D01*
X73797Y-42035D01*
X73788Y-42054D01*
X73778Y-42064D01*
X73759Y-42073D01*
X73683Y-42073D01*
X73988Y-42168D02*
X73873Y-42168D01*
X73930Y-42168D02*
X73930Y-41968D01*
X73911Y-41997D01*
X73892Y-42016D01*
X73873Y-42026D01*
X74054Y-41968D02*
X74178Y-41968D01*
X74111Y-42045D01*
X74140Y-42045D01*
X74159Y-42054D01*
X74169Y-42064D01*
X74178Y-42083D01*
X74178Y-42130D01*
X74169Y-42149D01*
X74159Y-42159D01*
X74140Y-42168D01*
X74083Y-42168D01*
X74064Y-42159D01*
X74054Y-42149D01*
X80124Y-34369D02*
X80239Y-34369D01*
X80181Y-34569D02*
X80181Y-34369D01*
X80305Y-34569D02*
X80305Y-34369D01*
X80381Y-34369D01*
X80401Y-34378D01*
X80410Y-34388D01*
X80420Y-34407D01*
X80420Y-34435D01*
X80410Y-34454D01*
X80401Y-34464D01*
X80381Y-34473D01*
X80305Y-34473D01*
X80610Y-34569D02*
X80496Y-34569D01*
X80553Y-34569D02*
X80553Y-34369D01*
X80534Y-34397D01*
X80515Y-34416D01*
X80496Y-34426D01*
X80724Y-34454D02*
X80705Y-34445D01*
X80696Y-34435D01*
X80686Y-34416D01*
X80686Y-34407D01*
X80696Y-34388D01*
X80705Y-34378D01*
X80724Y-34369D01*
X80762Y-34369D01*
X80781Y-34378D01*
X80791Y-34388D01*
X80801Y-34407D01*
X80801Y-34416D01*
X80791Y-34435D01*
X80781Y-34445D01*
X80762Y-34454D01*
X80724Y-34454D01*
X80705Y-34464D01*
X80696Y-34473D01*
X80686Y-34492D01*
X80686Y-34531D01*
X80696Y-34550D01*
X80705Y-34559D01*
X80724Y-34569D01*
X80762Y-34569D01*
X80781Y-34559D01*
X80791Y-34550D01*
X80801Y-34531D01*
X80801Y-34492D01*
X80791Y-34473D01*
X80781Y-34464D01*
X80762Y-34454D01*
X80294Y-30617D02*
X80408Y-30617D01*
X80351Y-30817D02*
X80351Y-30617D01*
X80475Y-30817D02*
X80475Y-30617D01*
X80551Y-30617D01*
X80570Y-30626D01*
X80579Y-30636D01*
X80589Y-30655D01*
X80589Y-30683D01*
X80579Y-30702D01*
X80570Y-30712D01*
X80551Y-30721D01*
X80475Y-30721D01*
X80779Y-30817D02*
X80665Y-30817D01*
X80722Y-30817D02*
X80722Y-30617D01*
X80703Y-30645D01*
X80684Y-30664D01*
X80665Y-30674D01*
X80846Y-30617D02*
X80979Y-30617D01*
X80894Y-30817D01*
G54D15*
X82679Y-42731D02*
X82285Y-42731D01*
X82285Y-42637D01*
X82303Y-42581D01*
X82341Y-42544D01*
X82378Y-42525D01*
X82454Y-42506D01*
X82510Y-42506D01*
X82585Y-42525D01*
X82622Y-42544D01*
X82660Y-42581D01*
X82679Y-42637D01*
X82679Y-42731D01*
X82285Y-42150D02*
X82285Y-42337D01*
X82472Y-42356D01*
X82454Y-42337D01*
X82435Y-42300D01*
X82435Y-42206D01*
X82454Y-42168D01*
X82472Y-42150D01*
X82510Y-42131D01*
X82604Y-42131D01*
X82641Y-42150D01*
X82660Y-42168D01*
X82679Y-42206D01*
X82679Y-42300D01*
X82660Y-42337D01*
X82641Y-42356D01*
G54D10*
X73783Y-29812D02*
X73783Y-29497D01*
X73858Y-29497D01*
X73903Y-29512D01*
X73933Y-29542D01*
X73948Y-29572D01*
X73963Y-29632D01*
X73963Y-29677D01*
X73948Y-29737D01*
X73933Y-29767D01*
X73903Y-29797D01*
X73858Y-29812D01*
X73783Y-29812D01*
X74233Y-29602D02*
X74233Y-29812D01*
X74158Y-29482D02*
X74083Y-29707D01*
X74278Y-29707D01*
G54D14*
X83544Y-28788D02*
X83450Y-28853D01*
X83544Y-28900D02*
X83347Y-28900D01*
X83347Y-28825D01*
X83356Y-28806D01*
X83366Y-28797D01*
X83384Y-28788D01*
X83412Y-28788D01*
X83431Y-28797D01*
X83441Y-28806D01*
X83450Y-28825D01*
X83450Y-28900D01*
X83544Y-28600D02*
X83544Y-28713D01*
X83544Y-28656D02*
X83347Y-28656D01*
X83375Y-28675D01*
X83394Y-28694D01*
X83403Y-28713D01*
X83347Y-28431D02*
X83347Y-28469D01*
X83356Y-28487D01*
X83366Y-28497D01*
X83394Y-28516D01*
X83431Y-28525D01*
X83506Y-28525D01*
X83525Y-28516D01*
X83534Y-28506D01*
X83544Y-28487D01*
X83544Y-28450D01*
X83534Y-28431D01*
X83525Y-28422D01*
X83506Y-28412D01*
X83459Y-28412D01*
X83441Y-28422D01*
X83431Y-28431D01*
X83422Y-28450D01*
X83422Y-28487D01*
X83431Y-28506D01*
X83441Y-28516D01*
X83459Y-28525D01*
G54D12*
X61542Y-37873D02*
X61656Y-37873D01*
X61599Y-38073D02*
X61599Y-37873D01*
X61723Y-38073D02*
X61723Y-37873D01*
X61799Y-37873D01*
X61818Y-37882D01*
X61827Y-37892D01*
X61837Y-37911D01*
X61837Y-37939D01*
X61827Y-37958D01*
X61818Y-37968D01*
X61799Y-37977D01*
X61723Y-37977D01*
X61913Y-37892D02*
X61923Y-37882D01*
X61942Y-37873D01*
X61989Y-37873D01*
X62008Y-37882D01*
X62018Y-37892D01*
X62027Y-37911D01*
X62027Y-37930D01*
X62018Y-37958D01*
X61904Y-38073D01*
X62027Y-38073D01*
X62151Y-37873D02*
X62170Y-37873D01*
X62189Y-37882D01*
X62199Y-37892D01*
X62208Y-37911D01*
X62218Y-37949D01*
X62218Y-37996D01*
X62208Y-38034D01*
X62199Y-38054D01*
X62189Y-38063D01*
X62170Y-38073D01*
X62151Y-38073D01*
X62132Y-38063D01*
X62123Y-38054D01*
X62113Y-38034D01*
X62104Y-37996D01*
X62104Y-37949D01*
X62113Y-37911D01*
X62123Y-37892D01*
X62132Y-37882D01*
X62151Y-37873D01*
X63038Y-37873D02*
X63152Y-37873D01*
X63095Y-38073D02*
X63095Y-37873D01*
X63219Y-38073D02*
X63219Y-37873D01*
X63295Y-37873D01*
X63314Y-37882D01*
X63323Y-37892D01*
X63333Y-37911D01*
X63333Y-37939D01*
X63323Y-37958D01*
X63314Y-37968D01*
X63295Y-37977D01*
X63219Y-37977D01*
X63523Y-38073D02*
X63409Y-38073D01*
X63466Y-38073D02*
X63466Y-37873D01*
X63447Y-37901D01*
X63428Y-37920D01*
X63409Y-37930D01*
X63619Y-38073D02*
X63657Y-38073D01*
X63676Y-38063D01*
X63685Y-38054D01*
X63704Y-38025D01*
X63714Y-37987D01*
X63714Y-37911D01*
X63704Y-37892D01*
X63695Y-37882D01*
X63676Y-37873D01*
X63638Y-37873D01*
X63619Y-37882D01*
X63609Y-37892D01*
X63600Y-37911D01*
X63600Y-37958D01*
X63609Y-37977D01*
X63619Y-37987D01*
X63638Y-37996D01*
X63676Y-37996D01*
X63695Y-37987D01*
X63704Y-37977D01*
X63714Y-37958D01*
M02*
