M48
;DRILL file {Pcbnew (2013-07-07 BZR 4022)-stable} date 9/15/2014 1:50:34 PM
;FORMAT={-:-/ absolute / inch / decimal}
FMAT,2
INCH,TZ
T1C0.013
T2C0.016
T3C0.017
T4C0.035
T5C0.039
T6C0.039
T7C0.040
%
G90
G05
M72
T1
X6.4004Y-3.2039
X6.528Y-4.348
X6.65Y-4.14
X6.66Y-3.76
X6.989Y-2.976
X6.997Y-4.355
X7.028Y-2.756
X7.086Y-3.427
X7.12Y-3.85
X7.233Y-3.393
X7.249Y-3.002
X7.3116Y-3.1406
X7.325Y-3.517
X7.355Y-3.03
X7.375Y-3.7
X7.605Y-3.665
X7.745Y-3.545
X7.79Y-3.43
X7.86Y-3.18
X7.918Y-3.336
T3
X7.521Y-4.275
X7.5636Y-3.9866
X7.88Y-3.695
X8.21Y-4.305
X8.23Y-4.095
T4
X6.7327Y-3.1602
X6.7327Y-3.3524
T5
X8.4771Y-3.6948
T6
X8.4732Y-4.0877
X8.4732Y-4.2255
X8.4771Y-3.2814
X8.4771Y-3.4192
X8.4771Y-3.557
X8.4771Y-3.8326
X8.4771Y-3.9703
T7
X6.189Y-3.7244
X6.2548Y-4.0084
X6.3386Y-3.7244
X6.3556Y-4.0088
X6.481Y-2.822
X6.612Y-2.823
X6.734Y-2.82
X6.846Y-2.823
X6.8853Y-2.6535
X6.9853Y-2.6535
X7.0453Y-4.5535
X7.047Y-4.257
X7.0853Y-2.6535
X7.1453Y-4.5535
X7.1853Y-2.6535
X7.2453Y-4.5535
X7.2853Y-2.6535
X7.3453Y-4.5535
X7.385Y-3.84
X7.385Y-4.134
X7.3853Y-2.6535
X7.4453Y-4.5535
X7.4853Y-2.6535
X7.5453Y-4.5535
X7.5853Y-2.6535
X7.6453Y-4.5535
X7.7453Y-2.6535
X7.7453Y-4.5535
X7.81Y-3.338
X7.8453Y-2.6535
X7.9453Y-2.6535
X7.9453Y-4.5535
X7.9552Y-3.4694
X7.971Y-4.128
X8.0453Y-2.6535
X8.0453Y-4.5535
X8.0472Y-3.374
X8.0551Y-2.8268
X8.0642Y-2.9988
X8.1453Y-2.6535
X8.1453Y-4.5535
X8.185Y-3.55
X8.2362Y-2.9449
X8.2453Y-2.6535
X8.2453Y-4.5535
X8.265Y-3.293
X8.27Y-3.81
X8.29Y-4.165
X8.3453Y-2.6535
X8.3453Y-4.5535
X8.4453Y-2.6535
X8.4453Y-4.5535
T2
X6.1102Y-4.372G85X6.1102Y-4.3445
G05
X6.2224Y-4.4449G85X6.1949Y-4.4449
G05
X6.2953Y-4.376G85X6.2953Y-4.3484
G05
T0
M30
