M48
;DRILL file {Pcbnew (2013-07-07 BZR 4022)-stable} date 9/14/2014 5:25:12 AM
;FORMAT={-:-/ absolute / inch / decimal}
FMAT,2
INCH,TZ
T1C0.013
T2C0.013
T3C0.016
T4C0.017
T5C0.035
T6C0.039
T7C0.039
T8C0.040
%
G90
G05
M72
T1
X6.4004Y-3.2039
X6.528Y-4.348
X6.65Y-4.14
X6.66Y-3.76
X6.989Y-2.976
X6.997Y-4.355
X6.998Y-4.355
X7.026Y-2.756
X7.028Y-2.756
X7.086Y-3.427
X7.1365Y-3.822
X7.233Y-3.393
X7.249Y-3.002
X7.3116Y-3.1406
X7.325Y-3.517
X7.3543Y-3.0551
X7.371Y-3.703
X7.4173Y-4.4882
X7.5433Y-3.7953
X7.5768Y-2.732
X7.6161Y-2.8811
X7.6645Y-3.5735
X7.728Y-3.448
X7.822Y-3.656
X7.86Y-3.18
X7.918Y-3.336
X8.4705Y-2.9469
T2
X6.2539Y-4.0071
X6.3547Y-4.0075
T4
X7.4252Y-4.0787
X7.521Y-4.275
T5
X6.7327Y-3.1602
X6.7327Y-3.3524
T6
X8.4771Y-3.6948
T7
X8.4732Y-4.0877
X8.4732Y-4.2255
X8.4771Y-3.2814
X8.4771Y-3.4192
X8.4771Y-3.557
X8.4771Y-3.8326
X8.4771Y-3.9703
T8
X6.189Y-3.7244
X6.3386Y-3.7244
X6.481Y-2.822
X6.612Y-2.823
X6.734Y-2.82
X6.846Y-2.823
X6.8853Y-2.6535
X6.9853Y-2.6535
X7.0453Y-4.5535
X7.047Y-4.257
X7.0853Y-2.6535
X7.1453Y-4.5535
X7.1853Y-2.6535
X7.2453Y-4.5535
X7.2853Y-2.6535
X7.3453Y-4.5535
X7.385Y-4.134
X7.3853Y-2.6535
X7.398Y-4.006
X7.4173Y-3.8031
X7.4453Y-4.5535
X7.4853Y-2.6535
X7.5453Y-4.5535
X7.5853Y-2.6535
X7.6453Y-4.5535
X7.7453Y-2.6535
X7.7453Y-4.5535
X7.81Y-3.338
X7.8453Y-2.6535
X7.9453Y-2.6535
X7.9453Y-4.5535
X7.956Y-3.694
X7.97Y-3.53
X8.0453Y-2.6535
X8.0453Y-4.5535
X8.0472Y-3.374
X8.0551Y-2.8268
X8.0642Y-2.9988
X8.1453Y-2.6535
X8.1453Y-4.5535
X8.2362Y-2.9449
X8.2453Y-2.6535
X8.2453Y-4.5535
X8.252Y-4.0236
X8.2598Y-4.3465
X8.265Y-3.293
X8.3453Y-2.6535
X8.3453Y-4.5535
X8.4453Y-2.6535
X8.4453Y-4.5535
T3
X6.1102Y-4.372G85X6.1102Y-4.3445
G05
X6.2224Y-4.4449G85X6.1949Y-4.4449
G05
X6.2953Y-4.376G85X6.2953Y-4.3484
G05
T0
M30
