G04 (created by PCBNEW (2013-07-07 BZR 4022)-stable) date 9/15/2014 1:50:29 PM*
%MOIN*%
G04 Gerber Fmt 3.4, Leading zero omitted, Abs format*
%FSLAX34Y34*%
G01*
G70*
G90*
G04 APERTURE LIST*
%ADD10C,0.00590551*%
%ADD11O,0.06X0.1*%
%ADD12C,0.05*%
%ADD13C,0.07*%
%ADD14O,0.0393701X0.0590551*%
%ADD15O,0.0590551X0.0393701*%
%ADD16C,0.035*%
%ADD17C,0.027*%
%ADD18C,0.01*%
%ADD19C,0.024*%
%ADD20C,0.019*%
G04 APERTURE END LIST*
G54D10*
G54D11*
X75852Y-26535D03*
X74852Y-26535D03*
X73852Y-26535D03*
X72852Y-26535D03*
X71852Y-26535D03*
X70852Y-26535D03*
X69852Y-26535D03*
X68852Y-26535D03*
X73452Y-45535D03*
X72452Y-45535D03*
X71452Y-45535D03*
X70452Y-45535D03*
X74452Y-45535D03*
X75452Y-45535D03*
X76452Y-45535D03*
X77452Y-45535D03*
X79452Y-45535D03*
X80452Y-45535D03*
X81452Y-45535D03*
X82452Y-45535D03*
X83452Y-45535D03*
X84452Y-45535D03*
X84452Y-26535D03*
X83452Y-26535D03*
X82452Y-26535D03*
X81452Y-26535D03*
X80452Y-26535D03*
X79452Y-26535D03*
X78452Y-26535D03*
X77452Y-26535D03*
G54D12*
X67326Y-31602D03*
X67326Y-33523D03*
G54D13*
X84771Y-32813D03*
X84771Y-34191D03*
X84771Y-35569D03*
X84771Y-36947D03*
X84771Y-38325D03*
X84771Y-39703D03*
X84732Y-40876D03*
X84732Y-42254D03*
X82650Y-32930D03*
X70470Y-42570D03*
X79552Y-34694D03*
X78100Y-33380D03*
X79710Y-41280D03*
X67340Y-28200D03*
X66120Y-28230D03*
X64810Y-28220D03*
X68460Y-28230D03*
X82362Y-29448D03*
X80551Y-28267D03*
X81850Y-35500D03*
G54D14*
X61102Y-43582D03*
G54D15*
X62086Y-44448D03*
G54D14*
X62952Y-43622D03*
G54D13*
X73850Y-38400D03*
X82700Y-38100D03*
X82900Y-41650D03*
X73850Y-41340D03*
X80472Y-33740D03*
X80641Y-29988D03*
X61889Y-37244D03*
X63385Y-37244D03*
X62548Y-40083D03*
X63555Y-40087D03*
G54D16*
X78800Y-36950D03*
X82300Y-40950D03*
X82100Y-43050D03*
G54D17*
X69890Y-29760D03*
X72490Y-30020D03*
X77900Y-34300D03*
X72330Y-33930D03*
X70860Y-34270D03*
X73550Y-30300D03*
X70280Y-27560D03*
X71200Y-38500D03*
X76050Y-36650D03*
X73750Y-37000D03*
X77450Y-35450D03*
X69970Y-43550D03*
X79180Y-33360D03*
G54D16*
X78600Y-31800D03*
G54D17*
X73250Y-35170D03*
X73116Y-31406D03*
G54D16*
X66600Y-37600D03*
X66500Y-41400D03*
X64003Y-32039D03*
X65279Y-43480D03*
X75636Y-39866D03*
X75210Y-42750D03*
G54D18*
X76645Y-35735D02*
X76645Y-35750D01*
G54D19*
X73000Y-44300D02*
X73900Y-44300D01*
X74452Y-45535D02*
X74452Y-44852D01*
X74452Y-44852D02*
X74200Y-44600D01*
X73350Y-38400D02*
X73000Y-38750D01*
X73000Y-38750D02*
X73000Y-44300D01*
X73350Y-38400D02*
X73850Y-38400D01*
X73900Y-44300D02*
X74200Y-44600D01*
X78800Y-36950D02*
X78700Y-36950D01*
X74350Y-37900D02*
X73850Y-38400D01*
X77750Y-37900D02*
X74350Y-37900D01*
X78700Y-36950D02*
X77750Y-37900D01*
X82300Y-42850D02*
X82300Y-40950D01*
X82100Y-43050D02*
X82300Y-42850D01*
G54D18*
X80452Y-26811D02*
X80452Y-26535D01*
X66120Y-28220D02*
X66120Y-28810D01*
X67070Y-29760D02*
X69890Y-29760D01*
X66120Y-28810D02*
X67070Y-29760D01*
X64810Y-28220D02*
X64810Y-29160D01*
X72430Y-30080D02*
X72490Y-30020D01*
X65730Y-30080D02*
X72430Y-30080D01*
X64810Y-29160D02*
X65730Y-30080D01*
X79100Y-35500D02*
X81850Y-35500D01*
X77900Y-34300D02*
X79100Y-35500D01*
X72190Y-34070D02*
X72330Y-33930D01*
X71060Y-34070D02*
X72190Y-34070D01*
X70860Y-34270D02*
X71060Y-34070D01*
X73600Y-29950D02*
X73580Y-29950D01*
X73580Y-29970D02*
X73600Y-29950D01*
X73580Y-30270D02*
X73580Y-29970D01*
X73550Y-30300D02*
X73580Y-30270D01*
X73580Y-29440D02*
X73580Y-29791D01*
X68460Y-29130D02*
X68770Y-29440D01*
X68770Y-29440D02*
X73580Y-29440D01*
X68460Y-28230D02*
X68460Y-29130D01*
X73580Y-29791D02*
X73580Y-29950D01*
X73580Y-29950D02*
X73580Y-30000D01*
X80551Y-28267D02*
X80551Y-28071D01*
X70260Y-27560D02*
X70240Y-27540D01*
X70280Y-27560D02*
X70260Y-27560D01*
X72820Y-27560D02*
X70280Y-27560D01*
X72920Y-27660D02*
X72820Y-27560D01*
X80140Y-27660D02*
X72920Y-27660D01*
X80551Y-28071D02*
X80140Y-27660D01*
X69970Y-43550D02*
X69980Y-43550D01*
X73250Y-35170D02*
X73250Y-35160D01*
X73116Y-31406D02*
X73103Y-31406D01*
G54D10*
G36*
X86104Y-44365D02*
X85723Y-44809D01*
X85416Y-45116D01*
X85416Y-39575D01*
X85318Y-39338D01*
X85137Y-39156D01*
X84900Y-39058D01*
X84643Y-39058D01*
X84406Y-39156D01*
X84224Y-39337D01*
X84126Y-39574D01*
X84126Y-39831D01*
X84224Y-40068D01*
X84405Y-40249D01*
X84482Y-40281D01*
X84367Y-40329D01*
X84185Y-40510D01*
X84087Y-40747D01*
X84086Y-41004D01*
X84184Y-41241D01*
X84366Y-41423D01*
X84603Y-41521D01*
X84859Y-41521D01*
X85096Y-41423D01*
X85278Y-41242D01*
X85376Y-41005D01*
X85377Y-40748D01*
X85279Y-40511D01*
X85097Y-40330D01*
X85020Y-40298D01*
X85136Y-40250D01*
X85317Y-40069D01*
X85416Y-39832D01*
X85416Y-39575D01*
X85416Y-45116D01*
X85377Y-45156D01*
X85377Y-42126D01*
X85279Y-41889D01*
X85097Y-41708D01*
X84860Y-41609D01*
X84604Y-41609D01*
X84367Y-41707D01*
X84185Y-41888D01*
X84087Y-42125D01*
X84086Y-42382D01*
X84184Y-42619D01*
X84366Y-42801D01*
X84603Y-42899D01*
X84859Y-42899D01*
X85096Y-42801D01*
X85278Y-42620D01*
X85376Y-42383D01*
X85377Y-42126D01*
X85377Y-45156D01*
X85223Y-45310D01*
X85152Y-45415D01*
X85128Y-45540D01*
X85128Y-45930D01*
X85082Y-46217D01*
X84805Y-46217D01*
X84873Y-46171D01*
X85002Y-45978D01*
X85047Y-45751D01*
X85047Y-45319D01*
X85002Y-45092D01*
X84873Y-44899D01*
X84680Y-44770D01*
X84452Y-44724D01*
X84225Y-44770D01*
X84032Y-44899D01*
X83952Y-45017D01*
X83873Y-44899D01*
X83680Y-44770D01*
X83545Y-44743D01*
X83545Y-41522D01*
X83447Y-41285D01*
X83345Y-41182D01*
X83345Y-37972D01*
X83247Y-37735D01*
X83065Y-37553D01*
X82828Y-37455D01*
X82572Y-37454D01*
X82335Y-37552D01*
X82153Y-37734D01*
X82055Y-37971D01*
X82054Y-38227D01*
X82152Y-38464D01*
X82334Y-38646D01*
X82571Y-38744D01*
X82827Y-38745D01*
X83064Y-38647D01*
X83246Y-38465D01*
X83344Y-38228D01*
X83345Y-37972D01*
X83345Y-41182D01*
X83265Y-41103D01*
X83028Y-41005D01*
X82772Y-41004D01*
X82769Y-41005D01*
X82770Y-40856D01*
X82698Y-40684D01*
X82566Y-40551D01*
X82393Y-40480D01*
X82206Y-40479D01*
X82034Y-40551D01*
X81901Y-40683D01*
X81830Y-40856D01*
X81829Y-41043D01*
X81885Y-41176D01*
X81885Y-42630D01*
X81834Y-42651D01*
X81701Y-42783D01*
X81630Y-42956D01*
X81629Y-43143D01*
X81701Y-43315D01*
X81833Y-43448D01*
X82006Y-43519D01*
X82193Y-43520D01*
X82365Y-43448D01*
X82498Y-43316D01*
X82553Y-43183D01*
X82593Y-43143D01*
X82593Y-43143D01*
X82638Y-43076D01*
X82683Y-43008D01*
X82683Y-43008D01*
X82714Y-42850D01*
X82715Y-42850D01*
X82715Y-42271D01*
X82771Y-42294D01*
X83027Y-42295D01*
X83264Y-42197D01*
X83446Y-42015D01*
X83544Y-41778D01*
X83545Y-41522D01*
X83545Y-44743D01*
X83452Y-44724D01*
X83225Y-44770D01*
X83032Y-44899D01*
X82952Y-45017D01*
X82873Y-44899D01*
X82680Y-44770D01*
X82452Y-44724D01*
X82225Y-44770D01*
X82032Y-44899D01*
X81952Y-45017D01*
X81873Y-44899D01*
X81680Y-44770D01*
X81452Y-44724D01*
X81225Y-44770D01*
X81032Y-44899D01*
X80952Y-45017D01*
X80873Y-44899D01*
X80680Y-44770D01*
X80452Y-44724D01*
X80355Y-44744D01*
X80355Y-41152D01*
X80257Y-40915D01*
X80075Y-40733D01*
X79838Y-40635D01*
X79582Y-40634D01*
X79345Y-40732D01*
X79163Y-40914D01*
X79065Y-41151D01*
X79064Y-41407D01*
X79162Y-41644D01*
X79344Y-41826D01*
X79581Y-41924D01*
X79837Y-41925D01*
X80074Y-41827D01*
X80256Y-41645D01*
X80354Y-41408D01*
X80355Y-41152D01*
X80355Y-44744D01*
X80225Y-44770D01*
X80032Y-44899D01*
X79952Y-45017D01*
X79873Y-44899D01*
X79680Y-44770D01*
X79452Y-44724D01*
X79225Y-44770D01*
X79032Y-44899D01*
X78903Y-45092D01*
X78857Y-45319D01*
X78857Y-45751D01*
X78903Y-45978D01*
X79032Y-46171D01*
X79099Y-46217D01*
X77805Y-46217D01*
X77873Y-46171D01*
X78002Y-45978D01*
X78047Y-45751D01*
X78047Y-45319D01*
X78002Y-45092D01*
X77873Y-44899D01*
X77680Y-44770D01*
X77452Y-44724D01*
X77225Y-44770D01*
X77032Y-44899D01*
X76952Y-45017D01*
X76873Y-44899D01*
X76680Y-44770D01*
X76452Y-44724D01*
X76225Y-44770D01*
X76032Y-44899D01*
X75947Y-45025D01*
X75869Y-44911D01*
X75675Y-44783D01*
X75550Y-44748D01*
X75457Y-44814D01*
X75457Y-45530D01*
X75465Y-45530D01*
X75465Y-45540D01*
X75457Y-45540D01*
X75457Y-45548D01*
X75447Y-45548D01*
X75447Y-45540D01*
X75439Y-45540D01*
X75439Y-45530D01*
X75447Y-45530D01*
X75447Y-44814D01*
X75354Y-44748D01*
X75229Y-44783D01*
X75035Y-44911D01*
X74957Y-45025D01*
X74873Y-44899D01*
X74867Y-44895D01*
X74867Y-44852D01*
X74836Y-44693D01*
X74836Y-44693D01*
X74746Y-44559D01*
X74493Y-44306D01*
X74493Y-44306D01*
X74493Y-44306D01*
X74193Y-44006D01*
X74058Y-43916D01*
X73900Y-43885D01*
X73415Y-43885D01*
X73415Y-41817D01*
X73484Y-41886D01*
X73721Y-41984D01*
X73977Y-41985D01*
X74214Y-41887D01*
X74396Y-41705D01*
X74494Y-41468D01*
X74495Y-41212D01*
X74397Y-40975D01*
X74215Y-40793D01*
X73978Y-40695D01*
X73722Y-40694D01*
X73485Y-40792D01*
X73415Y-40862D01*
X73415Y-38921D01*
X73437Y-38899D01*
X73484Y-38946D01*
X73721Y-39044D01*
X73977Y-39045D01*
X74214Y-38947D01*
X74396Y-38765D01*
X74494Y-38528D01*
X74495Y-38341D01*
X74521Y-38315D01*
X77750Y-38315D01*
X77908Y-38283D01*
X77908Y-38283D01*
X78043Y-38193D01*
X78816Y-37420D01*
X78893Y-37420D01*
X79065Y-37348D01*
X79198Y-37216D01*
X79269Y-37043D01*
X79270Y-36856D01*
X79198Y-36684D01*
X79109Y-36595D01*
X83564Y-36595D01*
X84128Y-37081D01*
X84224Y-37312D01*
X84405Y-37494D01*
X84642Y-37592D01*
X84721Y-37592D01*
X84823Y-37680D01*
X84643Y-37680D01*
X84406Y-37778D01*
X84224Y-37959D01*
X84126Y-38196D01*
X84126Y-38453D01*
X84224Y-38690D01*
X84405Y-38871D01*
X84642Y-38970D01*
X84899Y-38970D01*
X85136Y-38872D01*
X85317Y-38691D01*
X85416Y-38454D01*
X85416Y-38197D01*
X85318Y-37960D01*
X85287Y-37929D01*
X86006Y-38168D01*
X86104Y-44365D01*
X86104Y-44365D01*
G37*
G54D20*
X86104Y-44365D02*
X85723Y-44809D01*
X85416Y-45116D01*
X85416Y-39575D01*
X85318Y-39338D01*
X85137Y-39156D01*
X84900Y-39058D01*
X84643Y-39058D01*
X84406Y-39156D01*
X84224Y-39337D01*
X84126Y-39574D01*
X84126Y-39831D01*
X84224Y-40068D01*
X84405Y-40249D01*
X84482Y-40281D01*
X84367Y-40329D01*
X84185Y-40510D01*
X84087Y-40747D01*
X84086Y-41004D01*
X84184Y-41241D01*
X84366Y-41423D01*
X84603Y-41521D01*
X84859Y-41521D01*
X85096Y-41423D01*
X85278Y-41242D01*
X85376Y-41005D01*
X85377Y-40748D01*
X85279Y-40511D01*
X85097Y-40330D01*
X85020Y-40298D01*
X85136Y-40250D01*
X85317Y-40069D01*
X85416Y-39832D01*
X85416Y-39575D01*
X85416Y-45116D01*
X85377Y-45156D01*
X85377Y-42126D01*
X85279Y-41889D01*
X85097Y-41708D01*
X84860Y-41609D01*
X84604Y-41609D01*
X84367Y-41707D01*
X84185Y-41888D01*
X84087Y-42125D01*
X84086Y-42382D01*
X84184Y-42619D01*
X84366Y-42801D01*
X84603Y-42899D01*
X84859Y-42899D01*
X85096Y-42801D01*
X85278Y-42620D01*
X85376Y-42383D01*
X85377Y-42126D01*
X85377Y-45156D01*
X85223Y-45310D01*
X85152Y-45415D01*
X85128Y-45540D01*
X85128Y-45930D01*
X85082Y-46217D01*
X84805Y-46217D01*
X84873Y-46171D01*
X85002Y-45978D01*
X85047Y-45751D01*
X85047Y-45319D01*
X85002Y-45092D01*
X84873Y-44899D01*
X84680Y-44770D01*
X84452Y-44724D01*
X84225Y-44770D01*
X84032Y-44899D01*
X83952Y-45017D01*
X83873Y-44899D01*
X83680Y-44770D01*
X83545Y-44743D01*
X83545Y-41522D01*
X83447Y-41285D01*
X83345Y-41182D01*
X83345Y-37972D01*
X83247Y-37735D01*
X83065Y-37553D01*
X82828Y-37455D01*
X82572Y-37454D01*
X82335Y-37552D01*
X82153Y-37734D01*
X82055Y-37971D01*
X82054Y-38227D01*
X82152Y-38464D01*
X82334Y-38646D01*
X82571Y-38744D01*
X82827Y-38745D01*
X83064Y-38647D01*
X83246Y-38465D01*
X83344Y-38228D01*
X83345Y-37972D01*
X83345Y-41182D01*
X83265Y-41103D01*
X83028Y-41005D01*
X82772Y-41004D01*
X82769Y-41005D01*
X82770Y-40856D01*
X82698Y-40684D01*
X82566Y-40551D01*
X82393Y-40480D01*
X82206Y-40479D01*
X82034Y-40551D01*
X81901Y-40683D01*
X81830Y-40856D01*
X81829Y-41043D01*
X81885Y-41176D01*
X81885Y-42630D01*
X81834Y-42651D01*
X81701Y-42783D01*
X81630Y-42956D01*
X81629Y-43143D01*
X81701Y-43315D01*
X81833Y-43448D01*
X82006Y-43519D01*
X82193Y-43520D01*
X82365Y-43448D01*
X82498Y-43316D01*
X82553Y-43183D01*
X82593Y-43143D01*
X82593Y-43143D01*
X82638Y-43076D01*
X82683Y-43008D01*
X82683Y-43008D01*
X82714Y-42850D01*
X82715Y-42850D01*
X82715Y-42271D01*
X82771Y-42294D01*
X83027Y-42295D01*
X83264Y-42197D01*
X83446Y-42015D01*
X83544Y-41778D01*
X83545Y-41522D01*
X83545Y-44743D01*
X83452Y-44724D01*
X83225Y-44770D01*
X83032Y-44899D01*
X82952Y-45017D01*
X82873Y-44899D01*
X82680Y-44770D01*
X82452Y-44724D01*
X82225Y-44770D01*
X82032Y-44899D01*
X81952Y-45017D01*
X81873Y-44899D01*
X81680Y-44770D01*
X81452Y-44724D01*
X81225Y-44770D01*
X81032Y-44899D01*
X80952Y-45017D01*
X80873Y-44899D01*
X80680Y-44770D01*
X80452Y-44724D01*
X80355Y-44744D01*
X80355Y-41152D01*
X80257Y-40915D01*
X80075Y-40733D01*
X79838Y-40635D01*
X79582Y-40634D01*
X79345Y-40732D01*
X79163Y-40914D01*
X79065Y-41151D01*
X79064Y-41407D01*
X79162Y-41644D01*
X79344Y-41826D01*
X79581Y-41924D01*
X79837Y-41925D01*
X80074Y-41827D01*
X80256Y-41645D01*
X80354Y-41408D01*
X80355Y-41152D01*
X80355Y-44744D01*
X80225Y-44770D01*
X80032Y-44899D01*
X79952Y-45017D01*
X79873Y-44899D01*
X79680Y-44770D01*
X79452Y-44724D01*
X79225Y-44770D01*
X79032Y-44899D01*
X78903Y-45092D01*
X78857Y-45319D01*
X78857Y-45751D01*
X78903Y-45978D01*
X79032Y-46171D01*
X79099Y-46217D01*
X77805Y-46217D01*
X77873Y-46171D01*
X78002Y-45978D01*
X78047Y-45751D01*
X78047Y-45319D01*
X78002Y-45092D01*
X77873Y-44899D01*
X77680Y-44770D01*
X77452Y-44724D01*
X77225Y-44770D01*
X77032Y-44899D01*
X76952Y-45017D01*
X76873Y-44899D01*
X76680Y-44770D01*
X76452Y-44724D01*
X76225Y-44770D01*
X76032Y-44899D01*
X75947Y-45025D01*
X75869Y-44911D01*
X75675Y-44783D01*
X75550Y-44748D01*
X75457Y-44814D01*
X75457Y-45530D01*
X75465Y-45530D01*
X75465Y-45540D01*
X75457Y-45540D01*
X75457Y-45548D01*
X75447Y-45548D01*
X75447Y-45540D01*
X75439Y-45540D01*
X75439Y-45530D01*
X75447Y-45530D01*
X75447Y-44814D01*
X75354Y-44748D01*
X75229Y-44783D01*
X75035Y-44911D01*
X74957Y-45025D01*
X74873Y-44899D01*
X74867Y-44895D01*
X74867Y-44852D01*
X74836Y-44693D01*
X74836Y-44693D01*
X74746Y-44559D01*
X74493Y-44306D01*
X74493Y-44306D01*
X74493Y-44306D01*
X74193Y-44006D01*
X74058Y-43916D01*
X73900Y-43885D01*
X73415Y-43885D01*
X73415Y-41817D01*
X73484Y-41886D01*
X73721Y-41984D01*
X73977Y-41985D01*
X74214Y-41887D01*
X74396Y-41705D01*
X74494Y-41468D01*
X74495Y-41212D01*
X74397Y-40975D01*
X74215Y-40793D01*
X73978Y-40695D01*
X73722Y-40694D01*
X73485Y-40792D01*
X73415Y-40862D01*
X73415Y-38921D01*
X73437Y-38899D01*
X73484Y-38946D01*
X73721Y-39044D01*
X73977Y-39045D01*
X74214Y-38947D01*
X74396Y-38765D01*
X74494Y-38528D01*
X74495Y-38341D01*
X74521Y-38315D01*
X77750Y-38315D01*
X77908Y-38283D01*
X77908Y-38283D01*
X78043Y-38193D01*
X78816Y-37420D01*
X78893Y-37420D01*
X79065Y-37348D01*
X79198Y-37216D01*
X79269Y-37043D01*
X79270Y-36856D01*
X79198Y-36684D01*
X79109Y-36595D01*
X83564Y-36595D01*
X84128Y-37081D01*
X84224Y-37312D01*
X84405Y-37494D01*
X84642Y-37592D01*
X84721Y-37592D01*
X84823Y-37680D01*
X84643Y-37680D01*
X84406Y-37778D01*
X84224Y-37959D01*
X84126Y-38196D01*
X84126Y-38453D01*
X84224Y-38690D01*
X84405Y-38871D01*
X84642Y-38970D01*
X84899Y-38970D01*
X85136Y-38872D01*
X85317Y-38691D01*
X85416Y-38454D01*
X85416Y-38197D01*
X85318Y-37960D01*
X85287Y-37929D01*
X86006Y-38168D01*
X86104Y-44365D01*
G54D10*
G36*
X86043Y-36056D02*
X85187Y-36065D01*
X85317Y-35935D01*
X85416Y-35698D01*
X85416Y-35441D01*
X85416Y-34063D01*
X85416Y-32685D01*
X85318Y-32448D01*
X85137Y-32267D01*
X84900Y-32168D01*
X84643Y-32168D01*
X84406Y-32266D01*
X84224Y-32447D01*
X84126Y-32684D01*
X84126Y-32941D01*
X84224Y-33178D01*
X84405Y-33360D01*
X84642Y-33458D01*
X84899Y-33458D01*
X85136Y-33360D01*
X85317Y-33179D01*
X85416Y-32942D01*
X85416Y-32685D01*
X85416Y-34063D01*
X85318Y-33826D01*
X85137Y-33645D01*
X84900Y-33546D01*
X84643Y-33546D01*
X84406Y-33644D01*
X84224Y-33825D01*
X84126Y-34062D01*
X84126Y-34319D01*
X84224Y-34556D01*
X84405Y-34738D01*
X84642Y-34836D01*
X84899Y-34836D01*
X85136Y-34738D01*
X85317Y-34557D01*
X85416Y-34320D01*
X85416Y-34063D01*
X85416Y-35441D01*
X85318Y-35204D01*
X85137Y-35023D01*
X84900Y-34924D01*
X84643Y-34924D01*
X84406Y-35022D01*
X84224Y-35203D01*
X84126Y-35440D01*
X84126Y-35697D01*
X84224Y-35934D01*
X84364Y-36075D01*
X83295Y-36087D01*
X83295Y-32802D01*
X83197Y-32565D01*
X83015Y-32383D01*
X83007Y-32379D01*
X83007Y-29321D01*
X82909Y-29083D01*
X82728Y-28902D01*
X82491Y-28803D01*
X82234Y-28803D01*
X81997Y-28901D01*
X81815Y-29082D01*
X81717Y-29319D01*
X81717Y-29576D01*
X81815Y-29813D01*
X81996Y-29995D01*
X82233Y-30093D01*
X82489Y-30093D01*
X82727Y-29995D01*
X82908Y-29814D01*
X83007Y-29577D01*
X83007Y-29321D01*
X83007Y-32379D01*
X82778Y-32285D01*
X82522Y-32284D01*
X82285Y-32382D01*
X82103Y-32564D01*
X82005Y-32801D01*
X82004Y-33057D01*
X82102Y-33294D01*
X82284Y-33476D01*
X82521Y-33574D01*
X82777Y-33575D01*
X83014Y-33477D01*
X83196Y-33295D01*
X83294Y-33058D01*
X83295Y-32802D01*
X83295Y-36087D01*
X82084Y-36100D01*
X82214Y-36047D01*
X82396Y-35865D01*
X82494Y-35628D01*
X82495Y-35372D01*
X82397Y-35135D01*
X82215Y-34953D01*
X81978Y-34855D01*
X81722Y-34854D01*
X81485Y-34952D01*
X81303Y-35134D01*
X81294Y-35155D01*
X81286Y-35155D01*
X81286Y-29860D01*
X81188Y-29623D01*
X81007Y-29441D01*
X80770Y-29343D01*
X80513Y-29343D01*
X80276Y-29441D01*
X80095Y-29622D01*
X79996Y-29859D01*
X79996Y-30115D01*
X80094Y-30353D01*
X80275Y-30534D01*
X80512Y-30633D01*
X80769Y-30633D01*
X81006Y-30535D01*
X81188Y-30354D01*
X81286Y-30117D01*
X81286Y-29860D01*
X81286Y-35155D01*
X81117Y-35155D01*
X81117Y-33612D01*
X81019Y-33375D01*
X80838Y-33193D01*
X80601Y-33095D01*
X80344Y-33095D01*
X80107Y-33193D01*
X79925Y-33374D01*
X79827Y-33611D01*
X79827Y-33867D01*
X79925Y-34105D01*
X80106Y-34286D01*
X80343Y-34385D01*
X80600Y-34385D01*
X80837Y-34287D01*
X81018Y-34105D01*
X81117Y-33869D01*
X81117Y-33612D01*
X81117Y-35155D01*
X80003Y-35155D01*
X80098Y-35059D01*
X80196Y-34822D01*
X80197Y-34566D01*
X80099Y-34329D01*
X79917Y-34147D01*
X79680Y-34049D01*
X79424Y-34048D01*
X79187Y-34146D01*
X79005Y-34328D01*
X78907Y-34565D01*
X78906Y-34818D01*
X78748Y-34660D01*
X78748Y-33272D01*
X78658Y-33032D01*
X78634Y-32997D01*
X78516Y-32970D01*
X78509Y-32977D01*
X78509Y-32963D01*
X78482Y-32845D01*
X78248Y-32739D01*
X77992Y-32731D01*
X77752Y-32821D01*
X77717Y-32845D01*
X77690Y-32963D01*
X78100Y-33372D01*
X78509Y-32963D01*
X78509Y-32977D01*
X78107Y-33380D01*
X78516Y-33789D01*
X78634Y-33762D01*
X78740Y-33528D01*
X78748Y-33272D01*
X78748Y-34660D01*
X78330Y-34242D01*
X78330Y-34214D01*
X78264Y-34056D01*
X78228Y-34020D01*
X78447Y-33938D01*
X78482Y-33914D01*
X78509Y-33796D01*
X78100Y-33387D01*
X78092Y-33394D01*
X78092Y-33380D01*
X77683Y-32970D01*
X77565Y-32997D01*
X77459Y-33231D01*
X77451Y-33487D01*
X77541Y-33727D01*
X77565Y-33762D01*
X77683Y-33789D01*
X78092Y-33380D01*
X78092Y-33394D01*
X77690Y-33796D01*
X77716Y-33910D01*
X77656Y-33935D01*
X77535Y-34056D01*
X77470Y-34214D01*
X77469Y-34385D01*
X77535Y-34543D01*
X77656Y-34664D01*
X77814Y-34729D01*
X77842Y-34729D01*
X78856Y-35743D01*
X78856Y-35743D01*
X78939Y-35799D01*
X78967Y-35818D01*
X78967Y-35818D01*
X79067Y-35838D01*
X79099Y-35845D01*
X79099Y-35844D01*
X79100Y-35845D01*
X81294Y-35845D01*
X81302Y-35864D01*
X81484Y-36046D01*
X81627Y-36106D01*
X77208Y-36156D01*
X77158Y-37355D01*
X76990Y-37357D01*
X76990Y-35750D01*
X76990Y-35735D01*
X76963Y-35602D01*
X76888Y-35491D01*
X76777Y-35416D01*
X76645Y-35390D01*
X76512Y-35416D01*
X76401Y-35491D01*
X76326Y-35602D01*
X76300Y-35735D01*
X76300Y-35750D01*
X76326Y-35882D01*
X76401Y-35993D01*
X76512Y-36068D01*
X76645Y-36095D01*
X76777Y-36068D01*
X76888Y-35993D01*
X76963Y-35882D01*
X76990Y-35750D01*
X76990Y-37357D01*
X73980Y-37390D01*
X73980Y-30214D01*
X73925Y-30081D01*
X73925Y-30050D01*
X73925Y-30050D01*
X73945Y-29950D01*
X73925Y-29849D01*
X73925Y-29849D01*
X73925Y-29791D01*
X73925Y-29440D01*
X73898Y-29307D01*
X73823Y-29196D01*
X73712Y-29121D01*
X73580Y-29095D01*
X68912Y-29095D01*
X68805Y-28987D01*
X68805Y-28785D01*
X68824Y-28777D01*
X69006Y-28595D01*
X69104Y-28358D01*
X69105Y-28102D01*
X69007Y-27865D01*
X68825Y-27683D01*
X68588Y-27585D01*
X68332Y-27584D01*
X68095Y-27682D01*
X67913Y-27864D01*
X67906Y-27881D01*
X67887Y-27835D01*
X67705Y-27653D01*
X67468Y-27555D01*
X67212Y-27554D01*
X66975Y-27652D01*
X66793Y-27834D01*
X66723Y-28002D01*
X66667Y-27865D01*
X66485Y-27683D01*
X66248Y-27585D01*
X65992Y-27584D01*
X65755Y-27682D01*
X65573Y-27864D01*
X65475Y-28101D01*
X65474Y-28357D01*
X65572Y-28594D01*
X65754Y-28776D01*
X65775Y-28785D01*
X65775Y-28810D01*
X65801Y-28942D01*
X65876Y-29053D01*
X66557Y-29735D01*
X65872Y-29735D01*
X65155Y-29017D01*
X65155Y-28775D01*
X65174Y-28767D01*
X65356Y-28585D01*
X65454Y-28348D01*
X65455Y-28092D01*
X65357Y-27855D01*
X65175Y-27673D01*
X64938Y-27575D01*
X64682Y-27574D01*
X64445Y-27672D01*
X64263Y-27854D01*
X64165Y-28091D01*
X64164Y-28347D01*
X64262Y-28584D01*
X64444Y-28766D01*
X64465Y-28775D01*
X64465Y-29160D01*
X64491Y-29292D01*
X64566Y-29403D01*
X65486Y-30323D01*
X65486Y-30323D01*
X65597Y-30398D01*
X65597Y-30398D01*
X65730Y-30425D01*
X72344Y-30425D01*
X72404Y-30449D01*
X72575Y-30450D01*
X72733Y-30384D01*
X72854Y-30263D01*
X72919Y-30105D01*
X72920Y-29934D01*
X72858Y-29785D01*
X73235Y-29785D01*
X73235Y-29791D01*
X73235Y-29950D01*
X73235Y-29970D01*
X73235Y-30000D01*
X73235Y-30006D01*
X73185Y-30056D01*
X73120Y-30214D01*
X73119Y-30385D01*
X73185Y-30543D01*
X73306Y-30664D01*
X73464Y-30729D01*
X73635Y-30730D01*
X73793Y-30664D01*
X73914Y-30543D01*
X73979Y-30385D01*
X73980Y-30214D01*
X73980Y-37390D01*
X72760Y-37404D01*
X72760Y-33844D01*
X72694Y-33686D01*
X72573Y-33565D01*
X72415Y-33500D01*
X72244Y-33499D01*
X72086Y-33565D01*
X71965Y-33686D01*
X71949Y-33725D01*
X71060Y-33725D01*
X70927Y-33751D01*
X70816Y-33826D01*
X70816Y-33826D01*
X70802Y-33839D01*
X70774Y-33839D01*
X70616Y-33905D01*
X70495Y-34026D01*
X70430Y-34184D01*
X70429Y-34355D01*
X70495Y-34513D01*
X70616Y-34634D01*
X70774Y-34699D01*
X70945Y-34700D01*
X71103Y-34634D01*
X71224Y-34513D01*
X71265Y-34415D01*
X72190Y-34415D01*
X72322Y-34388D01*
X72322Y-34388D01*
X72364Y-34360D01*
X72415Y-34360D01*
X72573Y-34294D01*
X72694Y-34173D01*
X72759Y-34015D01*
X72760Y-33844D01*
X72760Y-37404D01*
X72699Y-37405D01*
X72455Y-37405D01*
X72413Y-44732D01*
X72225Y-44770D01*
X72032Y-44899D01*
X71952Y-45017D01*
X71873Y-44899D01*
X71680Y-44770D01*
X71452Y-44724D01*
X71225Y-44770D01*
X71115Y-44843D01*
X71115Y-42442D01*
X71017Y-42205D01*
X70835Y-42023D01*
X70598Y-41925D01*
X70342Y-41924D01*
X70105Y-42022D01*
X69923Y-42204D01*
X69825Y-42441D01*
X69824Y-42697D01*
X69922Y-42934D01*
X70104Y-43116D01*
X70341Y-43214D01*
X70597Y-43215D01*
X70834Y-43117D01*
X71016Y-42935D01*
X71114Y-42698D01*
X71115Y-42442D01*
X71115Y-44843D01*
X71032Y-44899D01*
X70952Y-45017D01*
X70873Y-44899D01*
X70680Y-44770D01*
X70452Y-44724D01*
X70225Y-44770D01*
X70032Y-44899D01*
X69903Y-45092D01*
X69857Y-45319D01*
X69857Y-45751D01*
X69903Y-45978D01*
X70026Y-46164D01*
X67871Y-46172D01*
X67871Y-33415D01*
X67871Y-31494D01*
X67789Y-31294D01*
X67635Y-31140D01*
X67435Y-31057D01*
X67218Y-31057D01*
X67018Y-31140D01*
X66865Y-31293D01*
X66781Y-31493D01*
X66781Y-31710D01*
X66864Y-31910D01*
X67017Y-32064D01*
X67217Y-32147D01*
X67434Y-32147D01*
X67635Y-32064D01*
X67788Y-31911D01*
X67871Y-31711D01*
X67871Y-31494D01*
X67871Y-33415D01*
X67789Y-33215D01*
X67635Y-33061D01*
X67435Y-32978D01*
X67218Y-32978D01*
X67018Y-33061D01*
X66865Y-33214D01*
X66781Y-33414D01*
X66781Y-33631D01*
X66864Y-33831D01*
X67017Y-33985D01*
X67217Y-34068D01*
X67434Y-34068D01*
X67635Y-33985D01*
X67788Y-33832D01*
X67871Y-33632D01*
X67871Y-33415D01*
X67871Y-46172D01*
X64200Y-46187D01*
X64200Y-39960D01*
X64102Y-39722D01*
X64034Y-39654D01*
X64034Y-37136D01*
X63943Y-36896D01*
X63920Y-36861D01*
X63802Y-36834D01*
X63795Y-36841D01*
X63795Y-36827D01*
X63768Y-36709D01*
X63534Y-36603D01*
X63278Y-36595D01*
X63037Y-36685D01*
X63003Y-36709D01*
X62976Y-36827D01*
X63385Y-37237D01*
X63795Y-36827D01*
X63795Y-36841D01*
X63392Y-37244D01*
X63802Y-37653D01*
X63920Y-37626D01*
X64026Y-37392D01*
X64034Y-37136D01*
X64034Y-39654D01*
X63921Y-39541D01*
X63795Y-39488D01*
X63795Y-37660D01*
X63385Y-37251D01*
X63378Y-37258D01*
X63378Y-37244D01*
X62969Y-36834D01*
X62850Y-36861D01*
X62745Y-37095D01*
X62737Y-37351D01*
X62827Y-37591D01*
X62850Y-37626D01*
X62969Y-37653D01*
X63378Y-37244D01*
X63378Y-37258D01*
X62976Y-37660D01*
X63003Y-37779D01*
X63237Y-37884D01*
X63493Y-37892D01*
X63733Y-37802D01*
X63768Y-37779D01*
X63795Y-37660D01*
X63795Y-39488D01*
X63684Y-39442D01*
X63428Y-39442D01*
X63190Y-39540D01*
X63039Y-39691D01*
X62964Y-39674D01*
X62957Y-39681D01*
X62957Y-39667D01*
X62930Y-39548D01*
X62696Y-39443D01*
X62534Y-39438D01*
X62534Y-37116D01*
X62436Y-36879D01*
X62255Y-36697D01*
X62018Y-36599D01*
X61762Y-36598D01*
X61524Y-36696D01*
X61343Y-36878D01*
X61244Y-37115D01*
X61244Y-37371D01*
X61342Y-37608D01*
X61523Y-37790D01*
X61760Y-37888D01*
X62017Y-37889D01*
X62254Y-37791D01*
X62436Y-37609D01*
X62534Y-37372D01*
X62534Y-37116D01*
X62534Y-39438D01*
X62440Y-39435D01*
X62200Y-39525D01*
X62165Y-39548D01*
X62138Y-39667D01*
X62548Y-40076D01*
X62957Y-39667D01*
X62957Y-39681D01*
X62555Y-40083D01*
X62964Y-40493D01*
X63033Y-40477D01*
X63190Y-40634D01*
X63427Y-40732D01*
X63683Y-40732D01*
X63920Y-40634D01*
X64102Y-40453D01*
X64200Y-40216D01*
X64200Y-39960D01*
X64200Y-46187D01*
X63444Y-46190D01*
X63444Y-43732D01*
X63444Y-43512D01*
X63407Y-43323D01*
X63300Y-43164D01*
X63140Y-43057D01*
X62957Y-43021D01*
X62957Y-40500D01*
X62548Y-40090D01*
X62540Y-40098D01*
X62540Y-40083D01*
X62131Y-39674D01*
X62013Y-39701D01*
X61907Y-39935D01*
X61899Y-40191D01*
X61989Y-40431D01*
X62013Y-40466D01*
X62131Y-40493D01*
X62540Y-40083D01*
X62540Y-40098D01*
X62138Y-40500D01*
X62165Y-40618D01*
X62399Y-40724D01*
X62655Y-40732D01*
X62895Y-40641D01*
X62930Y-40618D01*
X62957Y-40500D01*
X62957Y-43021D01*
X62952Y-43020D01*
X62764Y-43057D01*
X62604Y-43164D01*
X62498Y-43323D01*
X62460Y-43512D01*
X62460Y-43732D01*
X62498Y-43920D01*
X62604Y-44079D01*
X62764Y-44186D01*
X62952Y-44223D01*
X63140Y-44186D01*
X63300Y-44079D01*
X63407Y-43920D01*
X63444Y-43732D01*
X63444Y-46190D01*
X62670Y-46193D01*
X62670Y-44530D01*
X62670Y-44366D01*
X62641Y-44265D01*
X62536Y-44104D01*
X62377Y-43996D01*
X62190Y-43956D01*
X62091Y-43956D01*
X62091Y-44443D01*
X62603Y-44443D01*
X62670Y-44366D01*
X62670Y-44530D01*
X62603Y-44453D01*
X62091Y-44453D01*
X62091Y-44940D01*
X62190Y-44940D01*
X62377Y-44901D01*
X62536Y-44793D01*
X62641Y-44632D01*
X62670Y-44530D01*
X62670Y-46193D01*
X62081Y-46195D01*
X62081Y-44940D01*
X62081Y-44453D01*
X62081Y-44443D01*
X62081Y-43956D01*
X61983Y-43956D01*
X61795Y-43996D01*
X61636Y-44104D01*
X61594Y-44169D01*
X61594Y-43686D01*
X61594Y-43587D01*
X61594Y-43577D01*
X61594Y-43479D01*
X61554Y-43291D01*
X61446Y-43132D01*
X61285Y-43027D01*
X61184Y-42999D01*
X61107Y-43066D01*
X61107Y-43577D01*
X61594Y-43577D01*
X61594Y-43587D01*
X61107Y-43587D01*
X61107Y-44099D01*
X61184Y-44166D01*
X61285Y-44137D01*
X61446Y-44032D01*
X61554Y-43873D01*
X61594Y-43686D01*
X61594Y-44169D01*
X61531Y-44265D01*
X61503Y-44366D01*
X61570Y-44443D01*
X62081Y-44443D01*
X62081Y-44453D01*
X61570Y-44453D01*
X61503Y-44530D01*
X61531Y-44632D01*
X61636Y-44793D01*
X61795Y-44901D01*
X61983Y-44940D01*
X62081Y-44940D01*
X62081Y-46195D01*
X61097Y-46199D01*
X61097Y-44099D01*
X61097Y-43587D01*
X61097Y-43577D01*
X61097Y-43066D01*
X61020Y-42999D01*
X60918Y-43027D01*
X60758Y-43132D01*
X60649Y-43291D01*
X60610Y-43479D01*
X60610Y-43577D01*
X61097Y-43577D01*
X61097Y-43587D01*
X60610Y-43587D01*
X60610Y-43686D01*
X60649Y-43873D01*
X60758Y-44032D01*
X60918Y-44137D01*
X61020Y-44166D01*
X61097Y-44099D01*
X61097Y-46199D01*
X59845Y-46204D01*
X59894Y-26144D01*
X68313Y-26076D01*
X68303Y-26092D01*
X68257Y-26319D01*
X68257Y-26751D01*
X68303Y-26978D01*
X68432Y-27171D01*
X68625Y-27300D01*
X68852Y-27346D01*
X69080Y-27300D01*
X69273Y-27171D01*
X69352Y-27053D01*
X69432Y-27171D01*
X69625Y-27300D01*
X69852Y-27346D01*
X69907Y-27335D01*
X69850Y-27474D01*
X69849Y-27645D01*
X69915Y-27803D01*
X70036Y-27924D01*
X70194Y-27989D01*
X70365Y-27990D01*
X70523Y-27924D01*
X70543Y-27905D01*
X72677Y-27905D01*
X72677Y-27905D01*
X72787Y-27978D01*
X72787Y-27978D01*
X72920Y-28005D01*
X79961Y-28005D01*
X79906Y-28138D01*
X79906Y-28395D01*
X80004Y-28632D01*
X80185Y-28814D01*
X80422Y-28912D01*
X80678Y-28912D01*
X80916Y-28814D01*
X81097Y-28633D01*
X81196Y-28396D01*
X81196Y-28139D01*
X81098Y-27902D01*
X80917Y-27721D01*
X80680Y-27622D01*
X80590Y-27622D01*
X80383Y-27416D01*
X80272Y-27341D01*
X80140Y-27315D01*
X79608Y-27315D01*
X79680Y-27300D01*
X79873Y-27171D01*
X79952Y-27053D01*
X80032Y-27171D01*
X80225Y-27300D01*
X80452Y-27346D01*
X80680Y-27300D01*
X80873Y-27171D01*
X80952Y-27053D01*
X81032Y-27171D01*
X81225Y-27300D01*
X81452Y-27346D01*
X81680Y-27300D01*
X81873Y-27171D01*
X81952Y-27053D01*
X82032Y-27171D01*
X82225Y-27300D01*
X82452Y-27346D01*
X82680Y-27300D01*
X82873Y-27171D01*
X82952Y-27053D01*
X83032Y-27171D01*
X83225Y-27300D01*
X83452Y-27346D01*
X83680Y-27300D01*
X83873Y-27171D01*
X83952Y-27053D01*
X84032Y-27171D01*
X84225Y-27300D01*
X84452Y-27346D01*
X84680Y-27300D01*
X84736Y-27263D01*
X84805Y-30432D01*
X85906Y-31883D01*
X86043Y-36056D01*
X86043Y-36056D01*
G37*
G54D20*
X86043Y-36056D02*
X85187Y-36065D01*
X85317Y-35935D01*
X85416Y-35698D01*
X85416Y-35441D01*
X85416Y-34063D01*
X85416Y-32685D01*
X85318Y-32448D01*
X85137Y-32267D01*
X84900Y-32168D01*
X84643Y-32168D01*
X84406Y-32266D01*
X84224Y-32447D01*
X84126Y-32684D01*
X84126Y-32941D01*
X84224Y-33178D01*
X84405Y-33360D01*
X84642Y-33458D01*
X84899Y-33458D01*
X85136Y-33360D01*
X85317Y-33179D01*
X85416Y-32942D01*
X85416Y-32685D01*
X85416Y-34063D01*
X85318Y-33826D01*
X85137Y-33645D01*
X84900Y-33546D01*
X84643Y-33546D01*
X84406Y-33644D01*
X84224Y-33825D01*
X84126Y-34062D01*
X84126Y-34319D01*
X84224Y-34556D01*
X84405Y-34738D01*
X84642Y-34836D01*
X84899Y-34836D01*
X85136Y-34738D01*
X85317Y-34557D01*
X85416Y-34320D01*
X85416Y-34063D01*
X85416Y-35441D01*
X85318Y-35204D01*
X85137Y-35023D01*
X84900Y-34924D01*
X84643Y-34924D01*
X84406Y-35022D01*
X84224Y-35203D01*
X84126Y-35440D01*
X84126Y-35697D01*
X84224Y-35934D01*
X84364Y-36075D01*
X83295Y-36087D01*
X83295Y-32802D01*
X83197Y-32565D01*
X83015Y-32383D01*
X83007Y-32379D01*
X83007Y-29321D01*
X82909Y-29083D01*
X82728Y-28902D01*
X82491Y-28803D01*
X82234Y-28803D01*
X81997Y-28901D01*
X81815Y-29082D01*
X81717Y-29319D01*
X81717Y-29576D01*
X81815Y-29813D01*
X81996Y-29995D01*
X82233Y-30093D01*
X82489Y-30093D01*
X82727Y-29995D01*
X82908Y-29814D01*
X83007Y-29577D01*
X83007Y-29321D01*
X83007Y-32379D01*
X82778Y-32285D01*
X82522Y-32284D01*
X82285Y-32382D01*
X82103Y-32564D01*
X82005Y-32801D01*
X82004Y-33057D01*
X82102Y-33294D01*
X82284Y-33476D01*
X82521Y-33574D01*
X82777Y-33575D01*
X83014Y-33477D01*
X83196Y-33295D01*
X83294Y-33058D01*
X83295Y-32802D01*
X83295Y-36087D01*
X82084Y-36100D01*
X82214Y-36047D01*
X82396Y-35865D01*
X82494Y-35628D01*
X82495Y-35372D01*
X82397Y-35135D01*
X82215Y-34953D01*
X81978Y-34855D01*
X81722Y-34854D01*
X81485Y-34952D01*
X81303Y-35134D01*
X81294Y-35155D01*
X81286Y-35155D01*
X81286Y-29860D01*
X81188Y-29623D01*
X81007Y-29441D01*
X80770Y-29343D01*
X80513Y-29343D01*
X80276Y-29441D01*
X80095Y-29622D01*
X79996Y-29859D01*
X79996Y-30115D01*
X80094Y-30353D01*
X80275Y-30534D01*
X80512Y-30633D01*
X80769Y-30633D01*
X81006Y-30535D01*
X81188Y-30354D01*
X81286Y-30117D01*
X81286Y-29860D01*
X81286Y-35155D01*
X81117Y-35155D01*
X81117Y-33612D01*
X81019Y-33375D01*
X80838Y-33193D01*
X80601Y-33095D01*
X80344Y-33095D01*
X80107Y-33193D01*
X79925Y-33374D01*
X79827Y-33611D01*
X79827Y-33867D01*
X79925Y-34105D01*
X80106Y-34286D01*
X80343Y-34385D01*
X80600Y-34385D01*
X80837Y-34287D01*
X81018Y-34105D01*
X81117Y-33869D01*
X81117Y-33612D01*
X81117Y-35155D01*
X80003Y-35155D01*
X80098Y-35059D01*
X80196Y-34822D01*
X80197Y-34566D01*
X80099Y-34329D01*
X79917Y-34147D01*
X79680Y-34049D01*
X79424Y-34048D01*
X79187Y-34146D01*
X79005Y-34328D01*
X78907Y-34565D01*
X78906Y-34818D01*
X78748Y-34660D01*
X78748Y-33272D01*
X78658Y-33032D01*
X78634Y-32997D01*
X78516Y-32970D01*
X78509Y-32977D01*
X78509Y-32963D01*
X78482Y-32845D01*
X78248Y-32739D01*
X77992Y-32731D01*
X77752Y-32821D01*
X77717Y-32845D01*
X77690Y-32963D01*
X78100Y-33372D01*
X78509Y-32963D01*
X78509Y-32977D01*
X78107Y-33380D01*
X78516Y-33789D01*
X78634Y-33762D01*
X78740Y-33528D01*
X78748Y-33272D01*
X78748Y-34660D01*
X78330Y-34242D01*
X78330Y-34214D01*
X78264Y-34056D01*
X78228Y-34020D01*
X78447Y-33938D01*
X78482Y-33914D01*
X78509Y-33796D01*
X78100Y-33387D01*
X78092Y-33394D01*
X78092Y-33380D01*
X77683Y-32970D01*
X77565Y-32997D01*
X77459Y-33231D01*
X77451Y-33487D01*
X77541Y-33727D01*
X77565Y-33762D01*
X77683Y-33789D01*
X78092Y-33380D01*
X78092Y-33394D01*
X77690Y-33796D01*
X77716Y-33910D01*
X77656Y-33935D01*
X77535Y-34056D01*
X77470Y-34214D01*
X77469Y-34385D01*
X77535Y-34543D01*
X77656Y-34664D01*
X77814Y-34729D01*
X77842Y-34729D01*
X78856Y-35743D01*
X78856Y-35743D01*
X78939Y-35799D01*
X78967Y-35818D01*
X78967Y-35818D01*
X79067Y-35838D01*
X79099Y-35845D01*
X79099Y-35844D01*
X79100Y-35845D01*
X81294Y-35845D01*
X81302Y-35864D01*
X81484Y-36046D01*
X81627Y-36106D01*
X77208Y-36156D01*
X77158Y-37355D01*
X76990Y-37357D01*
X76990Y-35750D01*
X76990Y-35735D01*
X76963Y-35602D01*
X76888Y-35491D01*
X76777Y-35416D01*
X76645Y-35390D01*
X76512Y-35416D01*
X76401Y-35491D01*
X76326Y-35602D01*
X76300Y-35735D01*
X76300Y-35750D01*
X76326Y-35882D01*
X76401Y-35993D01*
X76512Y-36068D01*
X76645Y-36095D01*
X76777Y-36068D01*
X76888Y-35993D01*
X76963Y-35882D01*
X76990Y-35750D01*
X76990Y-37357D01*
X73980Y-37390D01*
X73980Y-30214D01*
X73925Y-30081D01*
X73925Y-30050D01*
X73925Y-30050D01*
X73945Y-29950D01*
X73925Y-29849D01*
X73925Y-29849D01*
X73925Y-29791D01*
X73925Y-29440D01*
X73898Y-29307D01*
X73823Y-29196D01*
X73712Y-29121D01*
X73580Y-29095D01*
X68912Y-29095D01*
X68805Y-28987D01*
X68805Y-28785D01*
X68824Y-28777D01*
X69006Y-28595D01*
X69104Y-28358D01*
X69105Y-28102D01*
X69007Y-27865D01*
X68825Y-27683D01*
X68588Y-27585D01*
X68332Y-27584D01*
X68095Y-27682D01*
X67913Y-27864D01*
X67906Y-27881D01*
X67887Y-27835D01*
X67705Y-27653D01*
X67468Y-27555D01*
X67212Y-27554D01*
X66975Y-27652D01*
X66793Y-27834D01*
X66723Y-28002D01*
X66667Y-27865D01*
X66485Y-27683D01*
X66248Y-27585D01*
X65992Y-27584D01*
X65755Y-27682D01*
X65573Y-27864D01*
X65475Y-28101D01*
X65474Y-28357D01*
X65572Y-28594D01*
X65754Y-28776D01*
X65775Y-28785D01*
X65775Y-28810D01*
X65801Y-28942D01*
X65876Y-29053D01*
X66557Y-29735D01*
X65872Y-29735D01*
X65155Y-29017D01*
X65155Y-28775D01*
X65174Y-28767D01*
X65356Y-28585D01*
X65454Y-28348D01*
X65455Y-28092D01*
X65357Y-27855D01*
X65175Y-27673D01*
X64938Y-27575D01*
X64682Y-27574D01*
X64445Y-27672D01*
X64263Y-27854D01*
X64165Y-28091D01*
X64164Y-28347D01*
X64262Y-28584D01*
X64444Y-28766D01*
X64465Y-28775D01*
X64465Y-29160D01*
X64491Y-29292D01*
X64566Y-29403D01*
X65486Y-30323D01*
X65486Y-30323D01*
X65597Y-30398D01*
X65597Y-30398D01*
X65730Y-30425D01*
X72344Y-30425D01*
X72404Y-30449D01*
X72575Y-30450D01*
X72733Y-30384D01*
X72854Y-30263D01*
X72919Y-30105D01*
X72920Y-29934D01*
X72858Y-29785D01*
X73235Y-29785D01*
X73235Y-29791D01*
X73235Y-29950D01*
X73235Y-29970D01*
X73235Y-30000D01*
X73235Y-30006D01*
X73185Y-30056D01*
X73120Y-30214D01*
X73119Y-30385D01*
X73185Y-30543D01*
X73306Y-30664D01*
X73464Y-30729D01*
X73635Y-30730D01*
X73793Y-30664D01*
X73914Y-30543D01*
X73979Y-30385D01*
X73980Y-30214D01*
X73980Y-37390D01*
X72760Y-37404D01*
X72760Y-33844D01*
X72694Y-33686D01*
X72573Y-33565D01*
X72415Y-33500D01*
X72244Y-33499D01*
X72086Y-33565D01*
X71965Y-33686D01*
X71949Y-33725D01*
X71060Y-33725D01*
X70927Y-33751D01*
X70816Y-33826D01*
X70816Y-33826D01*
X70802Y-33839D01*
X70774Y-33839D01*
X70616Y-33905D01*
X70495Y-34026D01*
X70430Y-34184D01*
X70429Y-34355D01*
X70495Y-34513D01*
X70616Y-34634D01*
X70774Y-34699D01*
X70945Y-34700D01*
X71103Y-34634D01*
X71224Y-34513D01*
X71265Y-34415D01*
X72190Y-34415D01*
X72322Y-34388D01*
X72322Y-34388D01*
X72364Y-34360D01*
X72415Y-34360D01*
X72573Y-34294D01*
X72694Y-34173D01*
X72759Y-34015D01*
X72760Y-33844D01*
X72760Y-37404D01*
X72699Y-37405D01*
X72455Y-37405D01*
X72413Y-44732D01*
X72225Y-44770D01*
X72032Y-44899D01*
X71952Y-45017D01*
X71873Y-44899D01*
X71680Y-44770D01*
X71452Y-44724D01*
X71225Y-44770D01*
X71115Y-44843D01*
X71115Y-42442D01*
X71017Y-42205D01*
X70835Y-42023D01*
X70598Y-41925D01*
X70342Y-41924D01*
X70105Y-42022D01*
X69923Y-42204D01*
X69825Y-42441D01*
X69824Y-42697D01*
X69922Y-42934D01*
X70104Y-43116D01*
X70341Y-43214D01*
X70597Y-43215D01*
X70834Y-43117D01*
X71016Y-42935D01*
X71114Y-42698D01*
X71115Y-42442D01*
X71115Y-44843D01*
X71032Y-44899D01*
X70952Y-45017D01*
X70873Y-44899D01*
X70680Y-44770D01*
X70452Y-44724D01*
X70225Y-44770D01*
X70032Y-44899D01*
X69903Y-45092D01*
X69857Y-45319D01*
X69857Y-45751D01*
X69903Y-45978D01*
X70026Y-46164D01*
X67871Y-46172D01*
X67871Y-33415D01*
X67871Y-31494D01*
X67789Y-31294D01*
X67635Y-31140D01*
X67435Y-31057D01*
X67218Y-31057D01*
X67018Y-31140D01*
X66865Y-31293D01*
X66781Y-31493D01*
X66781Y-31710D01*
X66864Y-31910D01*
X67017Y-32064D01*
X67217Y-32147D01*
X67434Y-32147D01*
X67635Y-32064D01*
X67788Y-31911D01*
X67871Y-31711D01*
X67871Y-31494D01*
X67871Y-33415D01*
X67789Y-33215D01*
X67635Y-33061D01*
X67435Y-32978D01*
X67218Y-32978D01*
X67018Y-33061D01*
X66865Y-33214D01*
X66781Y-33414D01*
X66781Y-33631D01*
X66864Y-33831D01*
X67017Y-33985D01*
X67217Y-34068D01*
X67434Y-34068D01*
X67635Y-33985D01*
X67788Y-33832D01*
X67871Y-33632D01*
X67871Y-33415D01*
X67871Y-46172D01*
X64200Y-46187D01*
X64200Y-39960D01*
X64102Y-39722D01*
X64034Y-39654D01*
X64034Y-37136D01*
X63943Y-36896D01*
X63920Y-36861D01*
X63802Y-36834D01*
X63795Y-36841D01*
X63795Y-36827D01*
X63768Y-36709D01*
X63534Y-36603D01*
X63278Y-36595D01*
X63037Y-36685D01*
X63003Y-36709D01*
X62976Y-36827D01*
X63385Y-37237D01*
X63795Y-36827D01*
X63795Y-36841D01*
X63392Y-37244D01*
X63802Y-37653D01*
X63920Y-37626D01*
X64026Y-37392D01*
X64034Y-37136D01*
X64034Y-39654D01*
X63921Y-39541D01*
X63795Y-39488D01*
X63795Y-37660D01*
X63385Y-37251D01*
X63378Y-37258D01*
X63378Y-37244D01*
X62969Y-36834D01*
X62850Y-36861D01*
X62745Y-37095D01*
X62737Y-37351D01*
X62827Y-37591D01*
X62850Y-37626D01*
X62969Y-37653D01*
X63378Y-37244D01*
X63378Y-37258D01*
X62976Y-37660D01*
X63003Y-37779D01*
X63237Y-37884D01*
X63493Y-37892D01*
X63733Y-37802D01*
X63768Y-37779D01*
X63795Y-37660D01*
X63795Y-39488D01*
X63684Y-39442D01*
X63428Y-39442D01*
X63190Y-39540D01*
X63039Y-39691D01*
X62964Y-39674D01*
X62957Y-39681D01*
X62957Y-39667D01*
X62930Y-39548D01*
X62696Y-39443D01*
X62534Y-39438D01*
X62534Y-37116D01*
X62436Y-36879D01*
X62255Y-36697D01*
X62018Y-36599D01*
X61762Y-36598D01*
X61524Y-36696D01*
X61343Y-36878D01*
X61244Y-37115D01*
X61244Y-37371D01*
X61342Y-37608D01*
X61523Y-37790D01*
X61760Y-37888D01*
X62017Y-37889D01*
X62254Y-37791D01*
X62436Y-37609D01*
X62534Y-37372D01*
X62534Y-37116D01*
X62534Y-39438D01*
X62440Y-39435D01*
X62200Y-39525D01*
X62165Y-39548D01*
X62138Y-39667D01*
X62548Y-40076D01*
X62957Y-39667D01*
X62957Y-39681D01*
X62555Y-40083D01*
X62964Y-40493D01*
X63033Y-40477D01*
X63190Y-40634D01*
X63427Y-40732D01*
X63683Y-40732D01*
X63920Y-40634D01*
X64102Y-40453D01*
X64200Y-40216D01*
X64200Y-39960D01*
X64200Y-46187D01*
X63444Y-46190D01*
X63444Y-43732D01*
X63444Y-43512D01*
X63407Y-43323D01*
X63300Y-43164D01*
X63140Y-43057D01*
X62957Y-43021D01*
X62957Y-40500D01*
X62548Y-40090D01*
X62540Y-40098D01*
X62540Y-40083D01*
X62131Y-39674D01*
X62013Y-39701D01*
X61907Y-39935D01*
X61899Y-40191D01*
X61989Y-40431D01*
X62013Y-40466D01*
X62131Y-40493D01*
X62540Y-40083D01*
X62540Y-40098D01*
X62138Y-40500D01*
X62165Y-40618D01*
X62399Y-40724D01*
X62655Y-40732D01*
X62895Y-40641D01*
X62930Y-40618D01*
X62957Y-40500D01*
X62957Y-43021D01*
X62952Y-43020D01*
X62764Y-43057D01*
X62604Y-43164D01*
X62498Y-43323D01*
X62460Y-43512D01*
X62460Y-43732D01*
X62498Y-43920D01*
X62604Y-44079D01*
X62764Y-44186D01*
X62952Y-44223D01*
X63140Y-44186D01*
X63300Y-44079D01*
X63407Y-43920D01*
X63444Y-43732D01*
X63444Y-46190D01*
X62670Y-46193D01*
X62670Y-44530D01*
X62670Y-44366D01*
X62641Y-44265D01*
X62536Y-44104D01*
X62377Y-43996D01*
X62190Y-43956D01*
X62091Y-43956D01*
X62091Y-44443D01*
X62603Y-44443D01*
X62670Y-44366D01*
X62670Y-44530D01*
X62603Y-44453D01*
X62091Y-44453D01*
X62091Y-44940D01*
X62190Y-44940D01*
X62377Y-44901D01*
X62536Y-44793D01*
X62641Y-44632D01*
X62670Y-44530D01*
X62670Y-46193D01*
X62081Y-46195D01*
X62081Y-44940D01*
X62081Y-44453D01*
X62081Y-44443D01*
X62081Y-43956D01*
X61983Y-43956D01*
X61795Y-43996D01*
X61636Y-44104D01*
X61594Y-44169D01*
X61594Y-43686D01*
X61594Y-43587D01*
X61594Y-43577D01*
X61594Y-43479D01*
X61554Y-43291D01*
X61446Y-43132D01*
X61285Y-43027D01*
X61184Y-42999D01*
X61107Y-43066D01*
X61107Y-43577D01*
X61594Y-43577D01*
X61594Y-43587D01*
X61107Y-43587D01*
X61107Y-44099D01*
X61184Y-44166D01*
X61285Y-44137D01*
X61446Y-44032D01*
X61554Y-43873D01*
X61594Y-43686D01*
X61594Y-44169D01*
X61531Y-44265D01*
X61503Y-44366D01*
X61570Y-44443D01*
X62081Y-44443D01*
X62081Y-44453D01*
X61570Y-44453D01*
X61503Y-44530D01*
X61531Y-44632D01*
X61636Y-44793D01*
X61795Y-44901D01*
X61983Y-44940D01*
X62081Y-44940D01*
X62081Y-46195D01*
X61097Y-46199D01*
X61097Y-44099D01*
X61097Y-43587D01*
X61097Y-43577D01*
X61097Y-43066D01*
X61020Y-42999D01*
X60918Y-43027D01*
X60758Y-43132D01*
X60649Y-43291D01*
X60610Y-43479D01*
X60610Y-43577D01*
X61097Y-43577D01*
X61097Y-43587D01*
X60610Y-43587D01*
X60610Y-43686D01*
X60649Y-43873D01*
X60758Y-44032D01*
X60918Y-44137D01*
X61020Y-44166D01*
X61097Y-44099D01*
X61097Y-46199D01*
X59845Y-46204D01*
X59894Y-26144D01*
X68313Y-26076D01*
X68303Y-26092D01*
X68257Y-26319D01*
X68257Y-26751D01*
X68303Y-26978D01*
X68432Y-27171D01*
X68625Y-27300D01*
X68852Y-27346D01*
X69080Y-27300D01*
X69273Y-27171D01*
X69352Y-27053D01*
X69432Y-27171D01*
X69625Y-27300D01*
X69852Y-27346D01*
X69907Y-27335D01*
X69850Y-27474D01*
X69849Y-27645D01*
X69915Y-27803D01*
X70036Y-27924D01*
X70194Y-27989D01*
X70365Y-27990D01*
X70523Y-27924D01*
X70543Y-27905D01*
X72677Y-27905D01*
X72677Y-27905D01*
X72787Y-27978D01*
X72787Y-27978D01*
X72920Y-28005D01*
X79961Y-28005D01*
X79906Y-28138D01*
X79906Y-28395D01*
X80004Y-28632D01*
X80185Y-28814D01*
X80422Y-28912D01*
X80678Y-28912D01*
X80916Y-28814D01*
X81097Y-28633D01*
X81196Y-28396D01*
X81196Y-28139D01*
X81098Y-27902D01*
X80917Y-27721D01*
X80680Y-27622D01*
X80590Y-27622D01*
X80383Y-27416D01*
X80272Y-27341D01*
X80140Y-27315D01*
X79608Y-27315D01*
X79680Y-27300D01*
X79873Y-27171D01*
X79952Y-27053D01*
X80032Y-27171D01*
X80225Y-27300D01*
X80452Y-27346D01*
X80680Y-27300D01*
X80873Y-27171D01*
X80952Y-27053D01*
X81032Y-27171D01*
X81225Y-27300D01*
X81452Y-27346D01*
X81680Y-27300D01*
X81873Y-27171D01*
X81952Y-27053D01*
X82032Y-27171D01*
X82225Y-27300D01*
X82452Y-27346D01*
X82680Y-27300D01*
X82873Y-27171D01*
X82952Y-27053D01*
X83032Y-27171D01*
X83225Y-27300D01*
X83452Y-27346D01*
X83680Y-27300D01*
X83873Y-27171D01*
X83952Y-27053D01*
X84032Y-27171D01*
X84225Y-27300D01*
X84452Y-27346D01*
X84680Y-27300D01*
X84736Y-27263D01*
X84805Y-30432D01*
X85906Y-31883D01*
X86043Y-36056D01*
G54D10*
G36*
X86150Y-36400D02*
X86141Y-36150D01*
X86150Y-36150D01*
X86150Y-36400D01*
X86150Y-36400D01*
G37*
G54D20*
X86150Y-36400D02*
X86141Y-36150D01*
X86150Y-36150D01*
X86150Y-36400D01*
M02*
