G04 (created by PCBNEW (2013-07-07 BZR 4022)-stable) date 9/13/2014 1:49:31 PM*
%MOIN*%
G04 Gerber Fmt 3.4, Leading zero omitted, Abs format*
%FSLAX34Y34*%
G01*
G70*
G90*
G04 APERTURE LIST*
%ADD10C,0.00590551*%
%ADD11O,0.06X0.1*%
%ADD12R,0.055X0.035*%
%ADD13R,0.035X0.055*%
%ADD14R,0.063X0.0866*%
%ADD15R,0.06X0.08*%
%ADD16R,0.011811X0.0984252*%
%ADD17R,0.12X0.065*%
%ADD18R,0.24X0.24*%
%ADD19R,0.0866X0.063*%
%ADD20R,0.03X0.02*%
%ADD21R,0.0394X0.0591*%
%ADD22R,0.0787X0.1181*%
%ADD23C,0.0271654*%
%ADD24C,0.05*%
%ADD25C,0.07*%
%ADD26O,0.0393701X0.0590551*%
%ADD27O,0.0590551X0.0393701*%
%ADD28R,0.0295276X0.0177165*%
%ADD29C,0.035*%
%ADD30C,0.027*%
%ADD31C,0.01*%
%ADD32C,0.024*%
G04 APERTURE END LIST*
G54D10*
G54D11*
X75852Y-26535D03*
X74852Y-26535D03*
X73852Y-26535D03*
X72852Y-26535D03*
X71852Y-26535D03*
X70852Y-26535D03*
X69852Y-26535D03*
X68852Y-26535D03*
X73452Y-45535D03*
X72452Y-45535D03*
X71452Y-45535D03*
X70452Y-45535D03*
X74452Y-45535D03*
X75452Y-45535D03*
X76452Y-45535D03*
X77452Y-45535D03*
X79452Y-45535D03*
X80452Y-45535D03*
X81452Y-45535D03*
X82452Y-45535D03*
X83452Y-45535D03*
X84452Y-45535D03*
X84452Y-26535D03*
X83452Y-26535D03*
X82452Y-26535D03*
X81452Y-26535D03*
X80452Y-26535D03*
X79452Y-26535D03*
X78452Y-26535D03*
X77452Y-26535D03*
G54D12*
X71811Y-43524D03*
X71811Y-42774D03*
X67972Y-43306D03*
X67972Y-44056D03*
X64448Y-42243D03*
X64448Y-42993D03*
X65354Y-42144D03*
X65354Y-42894D03*
G54D13*
X75385Y-35720D03*
X76135Y-35720D03*
X70605Y-36680D03*
X71355Y-36680D03*
G54D12*
X79216Y-29729D03*
X79216Y-28979D03*
X73130Y-36275D03*
X73130Y-37025D03*
G54D13*
X67924Y-36791D03*
X68674Y-36791D03*
G54D12*
X72755Y-40768D03*
X72755Y-40018D03*
G54D13*
X67932Y-38129D03*
X68682Y-38129D03*
G54D12*
X67007Y-36646D03*
X67007Y-35896D03*
G54D13*
X68054Y-35629D03*
X68804Y-35629D03*
X64664Y-30779D03*
X65414Y-30779D03*
X64743Y-31988D03*
X65493Y-31988D03*
G54D14*
X64370Y-44389D03*
X65866Y-44389D03*
G54D15*
X74830Y-36810D03*
X76130Y-36810D03*
G54D12*
X70777Y-28278D03*
X70777Y-29028D03*
X72972Y-28308D03*
X72972Y-29058D03*
X76535Y-27341D03*
X76535Y-28091D03*
X84094Y-27892D03*
X84094Y-28642D03*
G54D16*
X70437Y-35173D03*
X70692Y-35173D03*
X70948Y-35173D03*
X71204Y-35173D03*
X71460Y-35173D03*
X71716Y-35173D03*
X71972Y-35173D03*
X72228Y-35173D03*
X72484Y-35173D03*
X72740Y-35173D03*
X72720Y-32122D03*
X72464Y-32122D03*
X72208Y-32122D03*
X71952Y-32122D03*
X71696Y-32122D03*
X71440Y-32122D03*
X71185Y-32122D03*
X70929Y-32122D03*
X70673Y-32122D03*
X70417Y-32122D03*
G54D17*
X75275Y-38785D03*
G54D18*
X77775Y-39685D03*
G54D17*
X75275Y-40585D03*
G54D12*
X71938Y-28308D03*
X71938Y-29058D03*
G54D19*
X80708Y-40275D03*
X80708Y-38779D03*
G54D12*
X74000Y-43105D03*
X74000Y-42355D03*
G54D17*
X75275Y-41855D03*
G54D18*
X77775Y-42755D03*
G54D17*
X75275Y-43655D03*
G54D20*
X78127Y-32176D03*
X78127Y-31426D03*
X77127Y-32176D03*
X78127Y-31801D03*
X77127Y-31426D03*
G54D21*
X67223Y-41447D03*
X67814Y-41447D03*
X68405Y-41447D03*
G54D22*
X67814Y-40285D03*
G54D10*
G36*
X68208Y-40866D02*
X68011Y-41161D01*
X67617Y-41161D01*
X67420Y-40866D01*
X68208Y-40866D01*
X68208Y-40866D01*
G37*
G54D23*
X62539Y-40070D03*
X63547Y-40074D03*
G54D24*
X67326Y-31602D03*
X67326Y-33523D03*
G54D25*
X84771Y-32813D03*
X84771Y-34191D03*
X84771Y-35569D03*
X84771Y-36947D03*
X84771Y-38325D03*
X84771Y-39703D03*
X84732Y-40876D03*
X84732Y-42254D03*
G54D14*
X69803Y-41496D03*
X71299Y-41496D03*
G54D25*
X82650Y-32930D03*
X70470Y-42570D03*
X79700Y-35300D03*
X78100Y-33380D03*
X73980Y-40060D03*
X67340Y-28200D03*
X66120Y-28230D03*
X64810Y-28220D03*
X68460Y-28230D03*
X82362Y-29448D03*
X80551Y-28267D03*
X79560Y-36940D03*
G54D26*
X61102Y-43582D03*
G54D27*
X62086Y-44448D03*
G54D26*
X62952Y-43622D03*
G54D13*
X78327Y-28031D03*
X77577Y-28031D03*
G54D12*
X75039Y-27735D03*
X75039Y-28485D03*
X74010Y-28135D03*
X74010Y-28885D03*
X72050Y-38155D03*
X72050Y-37405D03*
G54D25*
X74173Y-38031D03*
X82519Y-40236D03*
X82598Y-43464D03*
X73850Y-41340D03*
X80472Y-33740D03*
X80641Y-29988D03*
G54D19*
X80787Y-43503D03*
X80787Y-42007D03*
G54D28*
X74637Y-29460D03*
X75157Y-29460D03*
X74637Y-29913D03*
X75157Y-29913D03*
G54D12*
X82834Y-27892D03*
X82834Y-28642D03*
G54D25*
X61889Y-37244D03*
X63385Y-37244D03*
G54D29*
X74173Y-44881D03*
X75433Y-37952D03*
G54D30*
X75767Y-27320D03*
X84704Y-29468D03*
X69890Y-29760D03*
X72490Y-30020D03*
X72330Y-33930D03*
X70860Y-34270D03*
X78220Y-36560D03*
X77280Y-34480D03*
X76161Y-28811D03*
X73543Y-30551D03*
X70260Y-27560D03*
X70280Y-27560D03*
X69980Y-43550D03*
X69970Y-43550D03*
X76645Y-35735D03*
X73710Y-37030D03*
X71365Y-38220D03*
X79180Y-33360D03*
G54D29*
X78600Y-31800D03*
G54D30*
X73250Y-35170D03*
X73116Y-31406D03*
G54D29*
X66600Y-37600D03*
X66500Y-41400D03*
X64003Y-32039D03*
X65279Y-43480D03*
X75210Y-42750D03*
X74251Y-40787D03*
G54D31*
X71852Y-26535D02*
X71852Y-28221D01*
X71852Y-28221D02*
X71938Y-28308D01*
X72025Y-28221D02*
X71938Y-28308D01*
X72852Y-26535D02*
X72852Y-28188D01*
X72852Y-28188D02*
X72972Y-28308D01*
X73025Y-28254D02*
X72972Y-28308D01*
X74020Y-44251D02*
X74020Y-43125D01*
X74020Y-43125D02*
X74000Y-43105D01*
X80452Y-44862D02*
X80452Y-45535D01*
X79842Y-44251D02*
X80452Y-44862D01*
X74015Y-44251D02*
X74020Y-44251D01*
X74020Y-44251D02*
X79842Y-44251D01*
X70852Y-26535D02*
X70852Y-28203D01*
X70852Y-28203D02*
X70777Y-28278D01*
G54D32*
X74452Y-45161D02*
X74173Y-44881D01*
X74452Y-45535D02*
X74452Y-45161D01*
G54D31*
X85490Y-38976D02*
X85490Y-31178D01*
X84704Y-30393D02*
X84704Y-29468D01*
X85490Y-31178D02*
X84704Y-30393D01*
X75748Y-27339D02*
X75748Y-29606D01*
X75748Y-29606D02*
X75440Y-29913D01*
X75440Y-29913D02*
X75157Y-29913D01*
G54D32*
X76614Y-37920D02*
X75465Y-37920D01*
X75465Y-37920D02*
X75433Y-37952D01*
X75433Y-37952D02*
X74251Y-37952D01*
X74251Y-37952D02*
X74173Y-38031D01*
X80787Y-42007D02*
X82716Y-42007D01*
X83847Y-40876D02*
X84732Y-40876D01*
X82716Y-42007D02*
X83847Y-40876D01*
X80708Y-38779D02*
X80708Y-37920D01*
X84365Y-37920D02*
X84771Y-38325D01*
X76600Y-37920D02*
X76614Y-37920D01*
X76614Y-37920D02*
X80708Y-37920D01*
X80708Y-37920D02*
X84365Y-37920D01*
X84771Y-38325D02*
X84935Y-38325D01*
X85490Y-40118D02*
X84732Y-40876D01*
X85490Y-38880D02*
X85490Y-38976D01*
X85490Y-38976D02*
X85490Y-40118D01*
X84935Y-38325D02*
X85490Y-38880D01*
G54D31*
X84763Y-38354D02*
X84763Y-38523D01*
X84763Y-38354D02*
X84763Y-38316D01*
X76535Y-27341D02*
X76535Y-27218D01*
X76535Y-27218D02*
X75852Y-26535D01*
X82452Y-26535D02*
X82452Y-26783D01*
X83524Y-27322D02*
X84094Y-27892D01*
X82992Y-27322D02*
X83524Y-27322D01*
X82452Y-26783D02*
X82992Y-27322D01*
X80452Y-26535D02*
X80452Y-26673D01*
X80452Y-26673D02*
X81259Y-27480D01*
X81259Y-27480D02*
X82422Y-27480D01*
X82422Y-27480D02*
X82834Y-27892D01*
X70052Y-29922D02*
X70052Y-30042D01*
X69890Y-29760D02*
X70052Y-29922D01*
X70641Y-32909D02*
X70027Y-32909D01*
X70673Y-32877D02*
X70641Y-32909D01*
X70673Y-32122D02*
X70673Y-32877D01*
X70027Y-32909D02*
X69968Y-32850D01*
X69968Y-30330D02*
X69968Y-30125D01*
X71938Y-29911D02*
X71938Y-29058D01*
X71889Y-29960D02*
X71938Y-29911D01*
X70133Y-29960D02*
X71889Y-29960D01*
X69968Y-30125D02*
X70052Y-30042D01*
X70052Y-30042D02*
X70133Y-29960D01*
X69968Y-32850D02*
X69968Y-30330D01*
X72540Y-30070D02*
X72988Y-30070D01*
X72490Y-30020D02*
X72540Y-30070D01*
X72988Y-29073D02*
X72988Y-30070D01*
X72988Y-30070D02*
X72988Y-30311D01*
X72972Y-29058D02*
X72988Y-29073D01*
X72968Y-30330D02*
X70566Y-30330D01*
X72988Y-30311D02*
X72968Y-30330D01*
X70417Y-30370D02*
X70417Y-32122D01*
X70417Y-30370D02*
X70566Y-30330D01*
X67330Y-28230D02*
X67330Y-28350D01*
X68190Y-29210D02*
X69900Y-29210D01*
X67330Y-28350D02*
X68190Y-29210D01*
X69570Y-29681D02*
X69570Y-29539D01*
X70081Y-29028D02*
X70777Y-29028D01*
X69570Y-29539D02*
X69900Y-29210D01*
X69900Y-29210D02*
X70081Y-29028D01*
X70929Y-32122D02*
X70929Y-33066D01*
X69570Y-33051D02*
X69570Y-29681D01*
X69685Y-33165D02*
X69570Y-33051D01*
X70830Y-33165D02*
X69685Y-33165D01*
X70929Y-33066D02*
X70830Y-33165D01*
X70948Y-35173D02*
X70948Y-34358D01*
X72600Y-33660D02*
X77127Y-33660D01*
X72330Y-33930D02*
X72600Y-33660D01*
X70948Y-34358D02*
X70860Y-34270D01*
X79560Y-36940D02*
X78420Y-36940D01*
X78420Y-36940D02*
X78220Y-36740D01*
X78220Y-36740D02*
X78220Y-36560D01*
X77280Y-34480D02*
X77127Y-34327D01*
X77127Y-34327D02*
X77127Y-33660D01*
X77127Y-33660D02*
X77127Y-32176D01*
X84771Y-36947D02*
X79567Y-36947D01*
X79567Y-36947D02*
X79560Y-36940D01*
X70605Y-36680D02*
X68785Y-36680D01*
X68785Y-36680D02*
X68674Y-36791D01*
X70948Y-35173D02*
X70948Y-36336D01*
X70948Y-36336D02*
X70605Y-36680D01*
X67814Y-40285D02*
X69498Y-40285D01*
X69763Y-41456D02*
X69803Y-41496D01*
X69763Y-40551D02*
X69763Y-41456D01*
X69498Y-40285D02*
X69763Y-40551D01*
G54D32*
X68682Y-38802D02*
X68682Y-38129D01*
X68674Y-36791D02*
X68674Y-38122D01*
X68674Y-38122D02*
X68682Y-38129D01*
X68804Y-35629D02*
X68804Y-36661D01*
X68804Y-36661D02*
X68674Y-36791D01*
G54D31*
X84755Y-36968D02*
X84763Y-36976D01*
X64448Y-42243D02*
X64448Y-41218D01*
X63547Y-40317D02*
X63547Y-40074D01*
X64448Y-41218D02*
X63547Y-40317D01*
G54D32*
X67814Y-41447D02*
X67814Y-40285D01*
X67814Y-40285D02*
X67814Y-39125D01*
X65354Y-42144D02*
X67705Y-42144D01*
X67814Y-42035D02*
X67814Y-41447D01*
X67705Y-42144D02*
X67814Y-42035D01*
G54D31*
X67814Y-40285D02*
X67814Y-41013D01*
G54D32*
X64448Y-42243D02*
X65255Y-42243D01*
X65255Y-42243D02*
X65354Y-42144D01*
G54D31*
X67893Y-40561D02*
X67893Y-40531D01*
G54D32*
X68562Y-38921D02*
X68682Y-38802D01*
X68018Y-38921D02*
X68562Y-38921D01*
X67814Y-39125D02*
X68018Y-38921D01*
G54D31*
X78127Y-32176D02*
X81816Y-32176D01*
X82570Y-32930D02*
X82650Y-32930D01*
X81816Y-32176D02*
X82570Y-32930D01*
X71204Y-34464D02*
X71204Y-34352D01*
X71539Y-34018D02*
X72459Y-33098D01*
X73220Y-33200D02*
X72459Y-33098D01*
X71204Y-34464D02*
X71204Y-35173D01*
X71204Y-34352D02*
X71539Y-34018D01*
X76253Y-31426D02*
X77127Y-31426D01*
X74740Y-32940D02*
X76253Y-31426D01*
X73480Y-32940D02*
X74740Y-32940D01*
X73220Y-33200D02*
X73480Y-32940D01*
X72498Y-33076D02*
X73220Y-33200D01*
X78127Y-32176D02*
X77877Y-32176D01*
X77877Y-32176D02*
X77127Y-31426D01*
X84771Y-34191D02*
X82068Y-34191D01*
X81616Y-33740D02*
X80472Y-33740D01*
X82068Y-34191D02*
X81616Y-33740D01*
X80472Y-33740D02*
X79459Y-33740D01*
X78315Y-34885D02*
X75385Y-34885D01*
X79459Y-33740D02*
X78315Y-34885D01*
X71460Y-35173D02*
X71460Y-34419D01*
X75385Y-34885D02*
X75385Y-35720D01*
X74740Y-34240D02*
X75385Y-34885D01*
X71640Y-34240D02*
X74740Y-34240D01*
X71460Y-34419D02*
X71640Y-34240D01*
X71460Y-35173D02*
X71460Y-36574D01*
X71460Y-36574D02*
X71355Y-36680D01*
X84763Y-33996D02*
X84763Y-34220D01*
X84763Y-34220D02*
X84763Y-34370D01*
X76535Y-28091D02*
X76535Y-28437D01*
X76535Y-28437D02*
X76161Y-28811D01*
X73307Y-30755D02*
X73338Y-30755D01*
X73338Y-30755D02*
X73543Y-30551D01*
X71185Y-31401D02*
X71185Y-32122D01*
X71590Y-30755D02*
X73307Y-30755D01*
X73307Y-30755D02*
X73326Y-30755D01*
X71185Y-31401D02*
X71590Y-30755D01*
X82362Y-29448D02*
X81023Y-29448D01*
X80554Y-28979D02*
X79216Y-28979D01*
X81023Y-29448D02*
X80554Y-28979D01*
X84094Y-28642D02*
X84094Y-29055D01*
X82440Y-29370D02*
X82362Y-29448D01*
X83779Y-29370D02*
X82440Y-29370D01*
X84094Y-29055D02*
X83779Y-29370D01*
X73622Y-31050D02*
X75249Y-31050D01*
X75249Y-31050D02*
X77244Y-29055D01*
X77244Y-29055D02*
X79140Y-29055D01*
X79140Y-29055D02*
X79216Y-28979D01*
X71952Y-32122D02*
X71952Y-31060D01*
X79105Y-29090D02*
X79216Y-28979D01*
X71963Y-31050D02*
X73622Y-31050D01*
X73622Y-31050D02*
X73711Y-31050D01*
X71952Y-31060D02*
X71963Y-31050D01*
X82834Y-28642D02*
X80926Y-28642D01*
X80926Y-28642D02*
X80551Y-28267D01*
X70240Y-27540D02*
X62700Y-27540D01*
X62700Y-27540D02*
X62380Y-27860D01*
X62380Y-27860D02*
X62380Y-34060D01*
X62380Y-34060D02*
X62820Y-34500D01*
X62820Y-34500D02*
X69566Y-34500D01*
X70437Y-35173D02*
X70240Y-35173D01*
X70240Y-35173D02*
X69566Y-34500D01*
X79452Y-45535D02*
X79452Y-44649D01*
X72755Y-44330D02*
X72755Y-40768D01*
X73070Y-44488D02*
X72755Y-44330D01*
X79448Y-44488D02*
X73070Y-44488D01*
X79452Y-44649D02*
X79448Y-44488D01*
X80708Y-40275D02*
X78366Y-40275D01*
X78366Y-40275D02*
X77775Y-39685D01*
X82519Y-40236D02*
X80748Y-40236D01*
X80748Y-40236D02*
X80708Y-40275D01*
X84771Y-39703D02*
X83839Y-39703D01*
X83307Y-40236D02*
X82519Y-40236D01*
X83839Y-39703D02*
X83307Y-40236D01*
X80787Y-43503D02*
X78523Y-43503D01*
X78523Y-43503D02*
X77775Y-42755D01*
X82598Y-43464D02*
X80826Y-43464D01*
X80826Y-43464D02*
X80787Y-43503D01*
X84732Y-42254D02*
X84674Y-42254D01*
X83464Y-43464D02*
X82598Y-43464D01*
X84674Y-42254D02*
X83464Y-43464D01*
G54D32*
X78663Y-43813D02*
X78400Y-43550D01*
G54D31*
X71972Y-35173D02*
X71972Y-37327D01*
X71972Y-37327D02*
X72050Y-37405D01*
X78810Y-36190D02*
X77360Y-36190D01*
X77360Y-36190D02*
X77280Y-36270D01*
X72670Y-37470D02*
X72115Y-37470D01*
X72115Y-37470D02*
X72050Y-37405D01*
X77280Y-37460D02*
X77280Y-36270D01*
X72670Y-37470D02*
X76740Y-37470D01*
X76740Y-37470D02*
X77270Y-37470D01*
X77270Y-37470D02*
X77280Y-37460D01*
X77280Y-36270D02*
X77280Y-36200D01*
X72590Y-37470D02*
X72670Y-37470D01*
X84771Y-35569D02*
X84349Y-35569D01*
X84080Y-35300D02*
X79700Y-35300D01*
X84349Y-35569D02*
X84080Y-35300D01*
X78800Y-36200D02*
X78810Y-36190D01*
X78810Y-36190D02*
X79700Y-35300D01*
X80641Y-29988D02*
X80641Y-31351D01*
X80641Y-31351D02*
X80716Y-31426D01*
X78853Y-31426D02*
X78953Y-31426D01*
X78127Y-31426D02*
X78953Y-31426D01*
X78953Y-31426D02*
X80716Y-31426D01*
X80716Y-31426D02*
X83365Y-31426D01*
X84763Y-32824D02*
X84763Y-32842D01*
X83365Y-31426D02*
X84763Y-32824D01*
X71811Y-43524D02*
X69995Y-43524D01*
X69473Y-44056D02*
X67972Y-44056D01*
X69980Y-43550D02*
X69473Y-44056D01*
X69995Y-43524D02*
X69970Y-43550D01*
X76135Y-35720D02*
X76630Y-35720D01*
X76630Y-35720D02*
X76645Y-35735D01*
X76135Y-35720D02*
X76135Y-36805D01*
X76135Y-36805D02*
X76130Y-36810D01*
X73130Y-37025D02*
X73705Y-37025D01*
X73705Y-37025D02*
X73710Y-37030D01*
X72050Y-38155D02*
X71430Y-38155D01*
X71430Y-38155D02*
X71365Y-38220D01*
X78100Y-33380D02*
X79160Y-33380D01*
X79160Y-33380D02*
X79180Y-33360D01*
X71720Y-35329D02*
X71720Y-34540D01*
X71723Y-34536D02*
X72196Y-34500D01*
X71720Y-34540D02*
X71723Y-34536D01*
X72228Y-35173D02*
X72208Y-34488D01*
X72196Y-34500D02*
X73160Y-34500D01*
X73160Y-34500D02*
X73170Y-34510D01*
X73170Y-34510D02*
X73250Y-35170D01*
X72208Y-34488D02*
X72196Y-34500D01*
X63385Y-37244D02*
X63464Y-37244D01*
X68089Y-44173D02*
X67972Y-44056D01*
G54D32*
X78127Y-31801D02*
X78598Y-31801D01*
X78598Y-31801D02*
X78600Y-31800D01*
G54D31*
X72740Y-35173D02*
X73246Y-35173D01*
X73246Y-35173D02*
X73250Y-35170D01*
X72720Y-32122D02*
X72720Y-31801D01*
X72720Y-31801D02*
X73116Y-31406D01*
G54D32*
X67188Y-37700D02*
X66700Y-37700D01*
X66700Y-37700D02*
X66600Y-37600D01*
X67223Y-41447D02*
X66547Y-41447D01*
X66547Y-41447D02*
X66500Y-41400D01*
X67924Y-36791D02*
X67791Y-36791D01*
X67188Y-38129D02*
X67932Y-38129D01*
X67791Y-36791D02*
X67188Y-37393D01*
X67188Y-37822D02*
X67188Y-38129D01*
X67188Y-37393D02*
X67188Y-37700D01*
X67188Y-37700D02*
X67188Y-37822D01*
X67007Y-36646D02*
X67779Y-36646D01*
X67779Y-36646D02*
X67924Y-36791D01*
X64664Y-30779D02*
X64200Y-30779D01*
X64055Y-31988D02*
X64003Y-32039D01*
X64743Y-31988D02*
X64055Y-31988D01*
X64200Y-30779D02*
X64003Y-30976D01*
X64003Y-30976D02*
X64003Y-32039D01*
X64448Y-42993D02*
X64448Y-43200D01*
X64448Y-43200D02*
X64728Y-43480D01*
X64728Y-43480D02*
X65279Y-43480D01*
X65354Y-43405D02*
X65279Y-43480D01*
X65354Y-43405D02*
X65354Y-42894D01*
X75275Y-43655D02*
X75275Y-42815D01*
X75275Y-42815D02*
X75210Y-42750D01*
X75275Y-43655D02*
X75175Y-43655D01*
X75275Y-40585D02*
X74454Y-40585D01*
X74454Y-40585D02*
X74251Y-40787D01*
G54D31*
X73850Y-41340D02*
X73850Y-42205D01*
X73850Y-42205D02*
X74000Y-42355D01*
X73622Y-41417D02*
X74488Y-41417D01*
X74926Y-41855D02*
X75275Y-41855D01*
X74488Y-41417D02*
X74926Y-41855D01*
X72755Y-40018D02*
X73938Y-40018D01*
X73938Y-40018D02*
X73980Y-40060D01*
X75118Y-39842D02*
X75118Y-39861D01*
X75118Y-39842D02*
X75275Y-39685D01*
X75275Y-38785D02*
X75275Y-39685D01*
X74920Y-40060D02*
X73980Y-40060D01*
X75118Y-39861D02*
X74920Y-40060D01*
X72484Y-35173D02*
X72484Y-36074D01*
X72685Y-36275D02*
X73130Y-36275D01*
X72484Y-36074D02*
X72685Y-36275D01*
X73130Y-36275D02*
X74295Y-36275D01*
X74295Y-36275D02*
X74830Y-36810D01*
X73130Y-36275D02*
X73075Y-36275D01*
X70692Y-34615D02*
X70692Y-34582D01*
X70455Y-34145D02*
X70720Y-33880D01*
X70455Y-34345D02*
X70455Y-34145D01*
X70692Y-34582D02*
X70455Y-34345D01*
X70692Y-35173D02*
X70692Y-34615D01*
X70692Y-34615D02*
X70692Y-34597D01*
X69703Y-35856D02*
X69736Y-35856D01*
X70640Y-35920D02*
X70640Y-35881D01*
X69800Y-35920D02*
X70640Y-35920D01*
X69736Y-35856D02*
X69800Y-35920D01*
X69643Y-35796D02*
X69476Y-35629D01*
X69728Y-35881D02*
X69703Y-35856D01*
X69703Y-35856D02*
X69643Y-35796D01*
X69476Y-35629D02*
X69476Y-35185D01*
X69476Y-35185D02*
X69255Y-34964D01*
X69255Y-34964D02*
X68145Y-34964D01*
X68145Y-34964D02*
X68054Y-35056D01*
X68054Y-35629D02*
X68054Y-35056D01*
X70580Y-35881D02*
X70640Y-35881D01*
X70640Y-35881D02*
X70673Y-35881D01*
X70673Y-35881D02*
X70692Y-35862D01*
X70692Y-35862D02*
X70692Y-35173D01*
X72700Y-32880D02*
X73100Y-32880D01*
X73260Y-32700D02*
X73260Y-32433D01*
X73260Y-32433D02*
X73297Y-32396D01*
X77532Y-29729D02*
X74865Y-32396D01*
X74865Y-32396D02*
X73409Y-32396D01*
X77532Y-29729D02*
X79216Y-29729D01*
X73297Y-32396D02*
X73409Y-32396D01*
X73260Y-32720D02*
X73260Y-32700D01*
X73100Y-32880D02*
X73260Y-32720D01*
X72420Y-32840D02*
X72700Y-32880D01*
X71420Y-33840D02*
X72420Y-32840D01*
X70720Y-33880D02*
X71420Y-33840D01*
X72700Y-32880D02*
X72820Y-32880D01*
X70692Y-33907D02*
X70720Y-33880D01*
X79216Y-29729D02*
X79130Y-29814D01*
X68054Y-35629D02*
X67274Y-35629D01*
X67274Y-35629D02*
X67007Y-35896D01*
X70692Y-35901D02*
X70673Y-35881D01*
X65493Y-31988D02*
X65700Y-31988D01*
X65700Y-31988D02*
X67251Y-33539D01*
X71672Y-31702D02*
X71672Y-33225D01*
X67393Y-33681D02*
X67251Y-33539D01*
X67688Y-33681D02*
X67393Y-33681D01*
X68110Y-33600D02*
X67688Y-33681D01*
X71342Y-33600D02*
X68110Y-33600D01*
X71672Y-33225D02*
X71342Y-33600D01*
X69204Y-33244D02*
X69204Y-33279D01*
X69204Y-33244D02*
X69208Y-32078D01*
X69208Y-32078D02*
X68748Y-31618D01*
X68748Y-31618D02*
X67251Y-31618D01*
X66413Y-30779D02*
X67251Y-31618D01*
X65414Y-30779D02*
X66413Y-30779D01*
X71440Y-33129D02*
X71440Y-32122D01*
X71200Y-33370D02*
X71440Y-33129D01*
X69295Y-33370D02*
X71200Y-33370D01*
X69204Y-33279D02*
X69295Y-33370D01*
X71299Y-41496D02*
X72047Y-41496D01*
X72204Y-42380D02*
X71811Y-42774D01*
X72204Y-41653D02*
X72204Y-42380D01*
X72047Y-41496D02*
X72204Y-41653D01*
X70470Y-42570D02*
X68479Y-42570D01*
X68479Y-42570D02*
X68405Y-42496D01*
X68405Y-41447D02*
X68405Y-42496D01*
X67972Y-42930D02*
X67972Y-43306D01*
X68405Y-42496D02*
X67972Y-42930D01*
X65866Y-44389D02*
X66624Y-44389D01*
X67707Y-43306D02*
X67972Y-43306D01*
X66624Y-44389D02*
X67707Y-43306D01*
X61889Y-37244D02*
X60551Y-37244D01*
X62047Y-43622D02*
X62952Y-43622D01*
X60236Y-41811D02*
X62047Y-43622D01*
X60236Y-37559D02*
X60236Y-41811D01*
X60551Y-37244D02*
X60236Y-37559D01*
X63051Y-43484D02*
X63464Y-43484D01*
X63464Y-43484D02*
X64370Y-44389D01*
X74637Y-29460D02*
X74000Y-29460D01*
X74010Y-29451D02*
X74010Y-28885D01*
X74000Y-29460D02*
X74010Y-29451D01*
X78452Y-26535D02*
X78452Y-27906D01*
X78452Y-27906D02*
X78327Y-28031D01*
X78452Y-27906D02*
X78327Y-28031D01*
X73852Y-26535D02*
X73852Y-27977D01*
X73852Y-27977D02*
X74010Y-28135D01*
X73852Y-28272D02*
X73840Y-28285D01*
X73852Y-28135D02*
X73966Y-28249D01*
X75039Y-28485D02*
X75039Y-29342D01*
X75039Y-29342D02*
X75157Y-29460D01*
X75039Y-27735D02*
X75039Y-26722D01*
X75039Y-26722D02*
X74852Y-26535D01*
X77577Y-28031D02*
X77577Y-28563D01*
X74617Y-30770D02*
X74637Y-29913D01*
X74625Y-30779D02*
X74617Y-30770D01*
X75177Y-30779D02*
X74625Y-30779D01*
X76850Y-28818D02*
X75177Y-30779D01*
X77322Y-28818D02*
X76850Y-28818D01*
X77577Y-28563D02*
X77322Y-28818D01*
M02*
