G04 (created by PCBNEW (2013-07-07 BZR 4022)-stable) date 8/21/2014 7:52:51 AM*
%MOIN*%
G04 Gerber Fmt 3.4, Leading zero omitted, Abs format*
%FSLAX34Y34*%
G01*
G70*
G90*
G04 APERTURE LIST*
%ADD10C,0.00590551*%
%ADD11O,0.06X0.1*%
%ADD12O,0.011811X0.0393701*%
%ADD13O,0.0393701X0.011811*%
%ADD14C,0.0271654*%
%ADD15C,0.05*%
%ADD16C,0.07*%
%ADD17C,0.027*%
%ADD18C,0.035*%
%ADD19C,0.01*%
%ADD20C,0.02*%
G04 APERTURE END LIST*
G54D10*
G54D11*
X75852Y-26535D03*
X74852Y-26535D03*
X73852Y-26535D03*
X72852Y-26535D03*
X71852Y-26535D03*
X70852Y-26535D03*
X69852Y-26535D03*
X68852Y-26535D03*
X73452Y-45535D03*
X72452Y-45535D03*
X71452Y-45535D03*
X70452Y-45535D03*
X74452Y-45535D03*
X75452Y-45535D03*
X76452Y-45535D03*
X77452Y-45535D03*
X79452Y-45535D03*
X80452Y-45535D03*
X81452Y-45535D03*
X82452Y-45535D03*
X83452Y-45535D03*
X84452Y-45535D03*
X84452Y-26535D03*
X83452Y-26535D03*
X82452Y-26535D03*
X81452Y-26535D03*
X80452Y-26535D03*
X79452Y-26535D03*
X78452Y-26535D03*
X77452Y-26535D03*
G54D12*
X61082Y-43484D03*
G54D13*
X62066Y-44547D03*
G54D12*
X63051Y-43484D03*
G54D14*
X62539Y-40070D03*
X63547Y-40074D03*
G54D15*
X67326Y-31602D03*
X67326Y-33523D03*
G54D16*
X84771Y-32813D03*
X84771Y-34191D03*
X84771Y-35569D03*
X84771Y-36947D03*
X84771Y-38325D03*
X84771Y-39703D03*
X84732Y-40876D03*
X84732Y-42254D03*
X82650Y-32930D03*
X70470Y-42570D03*
X77670Y-33810D03*
X77700Y-36150D03*
X82790Y-35990D03*
X67340Y-28200D03*
X66120Y-28230D03*
X64810Y-28220D03*
X68460Y-28230D03*
X82360Y-29420D03*
X78190Y-28210D03*
X78750Y-35530D03*
G54D17*
X62893Y-27263D03*
X69890Y-29760D03*
X72490Y-30020D03*
X75909Y-33326D03*
X76244Y-32354D03*
X71023Y-36476D03*
X74610Y-36700D03*
X73650Y-29510D03*
X72960Y-36401D03*
X71940Y-36370D03*
G54D18*
X78600Y-31800D03*
G54D17*
X71385Y-40530D03*
X73250Y-35170D03*
G54D18*
X71900Y-37500D03*
G54D17*
X73116Y-31406D03*
G54D18*
X69200Y-44100D03*
X66600Y-37600D03*
X66500Y-41400D03*
X64003Y-32039D03*
X65279Y-43480D03*
X81584Y-35610D03*
X78400Y-43550D03*
X78200Y-40500D03*
X75750Y-40050D03*
G54D19*
X78230Y-28280D02*
X78230Y-27370D01*
X78230Y-27370D02*
X78336Y-27263D01*
X80452Y-27125D02*
X80452Y-26535D01*
X80314Y-27263D02*
X78336Y-27263D01*
X78336Y-27263D02*
X77560Y-27263D01*
X77560Y-27263D02*
X62893Y-27263D01*
X80452Y-27125D02*
X80314Y-27263D01*
X66120Y-28220D02*
X66120Y-28810D01*
X67070Y-29760D02*
X69890Y-29760D01*
X66120Y-28810D02*
X67070Y-29760D01*
X64810Y-28220D02*
X64810Y-29160D01*
X72430Y-30080D02*
X72490Y-30020D01*
X65730Y-30080D02*
X72430Y-30080D01*
X64810Y-29160D02*
X65730Y-30080D01*
X75909Y-33326D02*
X76244Y-32992D01*
X76244Y-32992D02*
X76244Y-32354D01*
X71023Y-36476D02*
X71248Y-36700D01*
X71248Y-36700D02*
X74610Y-36700D01*
X68460Y-28230D02*
X68460Y-29130D01*
X73580Y-29440D02*
X73650Y-29510D01*
X68770Y-29440D02*
X73580Y-29440D01*
X68460Y-29130D02*
X68770Y-29440D01*
X71972Y-36401D02*
X72960Y-36401D01*
X71940Y-36370D02*
X71972Y-36401D01*
X73250Y-35170D02*
X73250Y-35160D01*
X73116Y-31406D02*
X73103Y-31406D01*
G54D10*
G36*
X85261Y-36589D02*
X85111Y-36439D01*
X84891Y-36347D01*
X84652Y-36347D01*
X84431Y-36438D01*
X84263Y-36607D01*
X84171Y-36827D01*
X84171Y-37066D01*
X84262Y-37286D01*
X84431Y-37455D01*
X84614Y-37531D01*
X83390Y-37537D01*
X83390Y-35871D01*
X83298Y-35650D01*
X83250Y-35601D01*
X83250Y-32811D01*
X83158Y-32590D01*
X82990Y-32421D01*
X82769Y-32330D01*
X82531Y-32329D01*
X82310Y-32421D01*
X82141Y-32589D01*
X82050Y-32810D01*
X82049Y-33048D01*
X82141Y-33269D01*
X82309Y-33438D01*
X82530Y-33529D01*
X82768Y-33530D01*
X82989Y-33438D01*
X83158Y-33270D01*
X83249Y-33049D01*
X83250Y-32811D01*
X83250Y-35601D01*
X83130Y-35481D01*
X82909Y-35390D01*
X82671Y-35389D01*
X82450Y-35481D01*
X82281Y-35649D01*
X82190Y-35870D01*
X82189Y-36108D01*
X82281Y-36329D01*
X82449Y-36498D01*
X82670Y-36589D01*
X82908Y-36590D01*
X83129Y-36498D01*
X83298Y-36330D01*
X83389Y-36109D01*
X83390Y-35871D01*
X83390Y-37537D01*
X79350Y-37554D01*
X79350Y-35411D01*
X79258Y-35190D01*
X79090Y-35021D01*
X78869Y-34930D01*
X78631Y-34929D01*
X78410Y-35021D01*
X78270Y-35161D01*
X78270Y-33691D01*
X78178Y-33470D01*
X78010Y-33301D01*
X77789Y-33210D01*
X77551Y-33209D01*
X77330Y-33301D01*
X77161Y-33469D01*
X77070Y-33690D01*
X77069Y-33928D01*
X77161Y-34149D01*
X77329Y-34318D01*
X77550Y-34409D01*
X77788Y-34410D01*
X78009Y-34318D01*
X78178Y-34150D01*
X78269Y-33929D01*
X78270Y-33691D01*
X78270Y-35161D01*
X78241Y-35189D01*
X78150Y-35410D01*
X78149Y-35648D01*
X78241Y-35869D01*
X78409Y-36038D01*
X78630Y-36129D01*
X78868Y-36130D01*
X79089Y-36038D01*
X79258Y-35870D01*
X79349Y-35649D01*
X79350Y-35411D01*
X79350Y-37554D01*
X78304Y-37559D01*
X78304Y-36243D01*
X78294Y-36005D01*
X78222Y-35832D01*
X78122Y-35798D01*
X78051Y-35869D01*
X78051Y-35727D01*
X78017Y-35627D01*
X77793Y-35545D01*
X77555Y-35555D01*
X77382Y-35627D01*
X77348Y-35727D01*
X77700Y-36079D01*
X78051Y-35727D01*
X78051Y-35869D01*
X77770Y-36150D01*
X78122Y-36501D01*
X78222Y-36467D01*
X78304Y-36243D01*
X78304Y-37559D01*
X78051Y-37560D01*
X78051Y-36572D01*
X77700Y-36220D01*
X77629Y-36291D01*
X77629Y-36150D01*
X77277Y-35798D01*
X77177Y-35832D01*
X77095Y-36056D01*
X77105Y-36294D01*
X77177Y-36467D01*
X77277Y-36501D01*
X77629Y-36150D01*
X77629Y-36291D01*
X77348Y-36572D01*
X77382Y-36672D01*
X77606Y-36754D01*
X77844Y-36744D01*
X78017Y-36672D01*
X78051Y-36572D01*
X78051Y-37560D01*
X76629Y-37566D01*
X76629Y-32278D01*
X76570Y-32136D01*
X76462Y-32028D01*
X76321Y-31969D01*
X76167Y-31969D01*
X76026Y-32027D01*
X75917Y-32135D01*
X75859Y-32277D01*
X75859Y-32430D01*
X75917Y-32572D01*
X75944Y-32598D01*
X75944Y-32867D01*
X75870Y-32941D01*
X75833Y-32941D01*
X75691Y-33000D01*
X75583Y-33108D01*
X75524Y-33249D01*
X75524Y-33403D01*
X75582Y-33544D01*
X75691Y-33652D01*
X75832Y-33711D01*
X75985Y-33711D01*
X76127Y-33653D01*
X76235Y-33545D01*
X76294Y-33403D01*
X76294Y-33366D01*
X76456Y-33204D01*
X76456Y-33204D01*
X76521Y-33106D01*
X76544Y-32992D01*
X76544Y-32992D01*
X76544Y-32598D01*
X76570Y-32572D01*
X76629Y-32431D01*
X76629Y-32278D01*
X76629Y-37566D01*
X74995Y-37573D01*
X74995Y-36624D01*
X74936Y-36482D01*
X74828Y-36374D01*
X74687Y-36315D01*
X74533Y-36315D01*
X74392Y-36374D01*
X74365Y-36400D01*
X73345Y-36400D01*
X73345Y-36325D01*
X73287Y-36183D01*
X73178Y-36075D01*
X73037Y-36016D01*
X72884Y-36016D01*
X72742Y-36074D01*
X72716Y-36101D01*
X72216Y-36101D01*
X72159Y-36043D01*
X72017Y-35985D01*
X71864Y-35985D01*
X71723Y-36043D01*
X71614Y-36151D01*
X71556Y-36293D01*
X71555Y-36400D01*
X71408Y-36400D01*
X71408Y-36400D01*
X71350Y-36258D01*
X71241Y-36150D01*
X71100Y-36091D01*
X70947Y-36091D01*
X70805Y-36149D01*
X70697Y-36258D01*
X70638Y-36399D01*
X70638Y-36552D01*
X70697Y-36694D01*
X70805Y-36802D01*
X70946Y-36861D01*
X70984Y-36861D01*
X71035Y-36912D01*
X71035Y-36912D01*
X71133Y-36977D01*
X71248Y-37000D01*
X71248Y-37000D01*
X74365Y-37000D01*
X74391Y-37026D01*
X74533Y-37085D01*
X74686Y-37085D01*
X74828Y-37027D01*
X74936Y-36919D01*
X74995Y-36777D01*
X74995Y-36624D01*
X74995Y-37573D01*
X73106Y-37582D01*
X73196Y-44843D01*
X73063Y-44931D01*
X72952Y-45098D01*
X72841Y-44931D01*
X72663Y-44812D01*
X72452Y-44770D01*
X72242Y-44812D01*
X72063Y-44931D01*
X71952Y-45098D01*
X71841Y-44931D01*
X71663Y-44812D01*
X71452Y-44770D01*
X71242Y-44812D01*
X71070Y-44927D01*
X71070Y-42451D01*
X70978Y-42230D01*
X70810Y-42061D01*
X70589Y-41970D01*
X70351Y-41969D01*
X70130Y-42061D01*
X69961Y-42229D01*
X69870Y-42450D01*
X69869Y-42688D01*
X69961Y-42909D01*
X70129Y-43078D01*
X70350Y-43169D01*
X70588Y-43170D01*
X70809Y-43078D01*
X70978Y-42910D01*
X71069Y-42689D01*
X71070Y-42451D01*
X71070Y-44927D01*
X71063Y-44931D01*
X70952Y-45098D01*
X70841Y-44931D01*
X70663Y-44812D01*
X70452Y-44770D01*
X70242Y-44812D01*
X70063Y-44931D01*
X69944Y-45110D01*
X69902Y-45320D01*
X69902Y-45750D01*
X69944Y-45960D01*
X70063Y-46139D01*
X70242Y-46258D01*
X70261Y-46262D01*
X67826Y-46262D01*
X67826Y-33424D01*
X67826Y-31503D01*
X67750Y-31319D01*
X67610Y-31178D01*
X67426Y-31102D01*
X67227Y-31102D01*
X67043Y-31178D01*
X66903Y-31318D01*
X66826Y-31502D01*
X66826Y-31701D01*
X66902Y-31885D01*
X67043Y-32025D01*
X67226Y-32102D01*
X67425Y-32102D01*
X67609Y-32026D01*
X67750Y-31885D01*
X67826Y-31702D01*
X67826Y-31503D01*
X67826Y-33424D01*
X67750Y-33240D01*
X67610Y-33099D01*
X67426Y-33023D01*
X67227Y-33023D01*
X67043Y-33099D01*
X66903Y-33240D01*
X66826Y-33423D01*
X66826Y-33622D01*
X66902Y-33806D01*
X67043Y-33947D01*
X67226Y-34023D01*
X67425Y-34023D01*
X67609Y-33947D01*
X67750Y-33807D01*
X67826Y-33623D01*
X67826Y-33424D01*
X67826Y-46262D01*
X63933Y-46262D01*
X63933Y-39998D01*
X63874Y-39856D01*
X63766Y-39747D01*
X63624Y-39689D01*
X63470Y-39688D01*
X63328Y-39747D01*
X63220Y-39855D01*
X63161Y-39997D01*
X63161Y-40151D01*
X63219Y-40293D01*
X63328Y-40401D01*
X63470Y-40460D01*
X63623Y-40460D01*
X63765Y-40402D01*
X63874Y-40293D01*
X63933Y-40151D01*
X63933Y-39998D01*
X63933Y-46262D01*
X63360Y-46262D01*
X63360Y-43630D01*
X63360Y-43337D01*
X63336Y-43219D01*
X63269Y-43119D01*
X63169Y-43052D01*
X63051Y-43028D01*
X62932Y-43052D01*
X62930Y-43053D01*
X62930Y-40113D01*
X62916Y-39960D01*
X62884Y-39881D01*
X62806Y-39874D01*
X62735Y-39945D01*
X62735Y-39804D01*
X62728Y-39725D01*
X62581Y-39679D01*
X62428Y-39693D01*
X62350Y-39725D01*
X62343Y-39804D01*
X62539Y-40000D01*
X62735Y-39804D01*
X62735Y-39945D01*
X62610Y-40070D01*
X62806Y-40266D01*
X62884Y-40259D01*
X62930Y-40113D01*
X62930Y-43053D01*
X62832Y-43119D01*
X62765Y-43219D01*
X62742Y-43337D01*
X62742Y-43630D01*
X62765Y-43749D01*
X62832Y-43849D01*
X62932Y-43916D01*
X63051Y-43939D01*
X63169Y-43916D01*
X63269Y-43849D01*
X63336Y-43749D01*
X63360Y-43630D01*
X63360Y-46262D01*
X62735Y-46262D01*
X62735Y-40337D01*
X62539Y-40141D01*
X62468Y-40212D01*
X62468Y-40070D01*
X62272Y-39874D01*
X62194Y-39881D01*
X62148Y-40028D01*
X62161Y-40181D01*
X62194Y-40259D01*
X62272Y-40266D01*
X62468Y-40070D01*
X62468Y-40212D01*
X62343Y-40337D01*
X62350Y-40415D01*
X62496Y-40461D01*
X62649Y-40448D01*
X62728Y-40415D01*
X62735Y-40337D01*
X62735Y-46262D01*
X62503Y-46262D01*
X62503Y-44624D01*
X62503Y-44469D01*
X62458Y-44364D01*
X62369Y-44280D01*
X62254Y-44238D01*
X62116Y-44238D01*
X62116Y-44517D01*
X62449Y-44517D01*
X62503Y-44469D01*
X62503Y-44624D01*
X62449Y-44576D01*
X62116Y-44576D01*
X62116Y-44856D01*
X62254Y-44856D01*
X62369Y-44813D01*
X62458Y-44730D01*
X62503Y-44624D01*
X62503Y-46262D01*
X62016Y-46262D01*
X62016Y-44856D01*
X62016Y-44576D01*
X62016Y-44517D01*
X62016Y-44238D01*
X61879Y-44238D01*
X61764Y-44280D01*
X61675Y-44364D01*
X61629Y-44469D01*
X61684Y-44517D01*
X62016Y-44517D01*
X62016Y-44576D01*
X61684Y-44576D01*
X61629Y-44624D01*
X61675Y-44730D01*
X61764Y-44813D01*
X61879Y-44856D01*
X62016Y-44856D01*
X62016Y-46262D01*
X61391Y-46262D01*
X61391Y-43672D01*
X61391Y-43534D01*
X61391Y-43434D01*
X61391Y-43296D01*
X61349Y-43181D01*
X61265Y-43092D01*
X61159Y-43047D01*
X61112Y-43101D01*
X61112Y-43434D01*
X61391Y-43434D01*
X61391Y-43534D01*
X61112Y-43534D01*
X61112Y-43866D01*
X61159Y-43921D01*
X61265Y-43875D01*
X61349Y-43786D01*
X61391Y-43672D01*
X61391Y-46262D01*
X60788Y-46262D01*
X60785Y-43703D01*
X60816Y-43786D01*
X60899Y-43875D01*
X61005Y-43921D01*
X61053Y-43866D01*
X61053Y-43534D01*
X61024Y-43534D01*
X61024Y-43434D01*
X61053Y-43434D01*
X61053Y-43101D01*
X61005Y-43047D01*
X60899Y-43092D01*
X60816Y-43181D01*
X60784Y-43266D01*
X60768Y-27790D01*
X64394Y-27786D01*
X64301Y-27879D01*
X64210Y-28100D01*
X64209Y-28338D01*
X64301Y-28559D01*
X64469Y-28728D01*
X64510Y-28745D01*
X64510Y-29160D01*
X64532Y-29274D01*
X64597Y-29372D01*
X65517Y-30292D01*
X65517Y-30292D01*
X65615Y-30357D01*
X65730Y-30380D01*
X72353Y-30380D01*
X72413Y-30404D01*
X72566Y-30405D01*
X72707Y-30346D01*
X72816Y-30238D01*
X72874Y-30096D01*
X72875Y-29943D01*
X72816Y-29802D01*
X72754Y-29740D01*
X73335Y-29740D01*
X73431Y-29836D01*
X73573Y-29894D01*
X73726Y-29895D01*
X73867Y-29836D01*
X73976Y-29728D01*
X74034Y-29586D01*
X74035Y-29433D01*
X73976Y-29292D01*
X73868Y-29183D01*
X73726Y-29125D01*
X73573Y-29124D01*
X73537Y-29140D01*
X68894Y-29140D01*
X68760Y-29005D01*
X68760Y-28755D01*
X68799Y-28738D01*
X68968Y-28570D01*
X69059Y-28349D01*
X69060Y-28111D01*
X68968Y-27890D01*
X68860Y-27782D01*
X77777Y-27773D01*
X77681Y-27869D01*
X77590Y-28090D01*
X77589Y-28328D01*
X77681Y-28549D01*
X77849Y-28718D01*
X78070Y-28809D01*
X78308Y-28810D01*
X78529Y-28718D01*
X78698Y-28550D01*
X78789Y-28329D01*
X78790Y-28091D01*
X78698Y-27870D01*
X78601Y-27773D01*
X81308Y-27770D01*
X81288Y-31555D01*
X85245Y-31555D01*
X85248Y-32442D01*
X85111Y-32305D01*
X84891Y-32213D01*
X84652Y-32213D01*
X84431Y-32304D01*
X84263Y-32473D01*
X84171Y-32693D01*
X84171Y-32932D01*
X84262Y-33153D01*
X84431Y-33322D01*
X84651Y-33413D01*
X84890Y-33413D01*
X85110Y-33322D01*
X85250Y-33183D01*
X85252Y-33824D01*
X85111Y-33683D01*
X84891Y-33591D01*
X84652Y-33591D01*
X84431Y-33682D01*
X84263Y-33851D01*
X84171Y-34071D01*
X84171Y-34310D01*
X84262Y-34531D01*
X84431Y-34700D01*
X84651Y-34791D01*
X84890Y-34791D01*
X85110Y-34700D01*
X85255Y-34556D01*
X85257Y-35206D01*
X85111Y-35061D01*
X84891Y-34969D01*
X84652Y-34969D01*
X84431Y-35060D01*
X84263Y-35229D01*
X84171Y-35449D01*
X84171Y-35688D01*
X84262Y-35909D01*
X84431Y-36077D01*
X84651Y-36169D01*
X84890Y-36169D01*
X85110Y-36078D01*
X85259Y-35930D01*
X85261Y-36589D01*
X85261Y-36589D01*
G37*
G54D19*
X85261Y-36589D02*
X85111Y-36439D01*
X84891Y-36347D01*
X84652Y-36347D01*
X84431Y-36438D01*
X84263Y-36607D01*
X84171Y-36827D01*
X84171Y-37066D01*
X84262Y-37286D01*
X84431Y-37455D01*
X84614Y-37531D01*
X83390Y-37537D01*
X83390Y-35871D01*
X83298Y-35650D01*
X83250Y-35601D01*
X83250Y-32811D01*
X83158Y-32590D01*
X82990Y-32421D01*
X82769Y-32330D01*
X82531Y-32329D01*
X82310Y-32421D01*
X82141Y-32589D01*
X82050Y-32810D01*
X82049Y-33048D01*
X82141Y-33269D01*
X82309Y-33438D01*
X82530Y-33529D01*
X82768Y-33530D01*
X82989Y-33438D01*
X83158Y-33270D01*
X83249Y-33049D01*
X83250Y-32811D01*
X83250Y-35601D01*
X83130Y-35481D01*
X82909Y-35390D01*
X82671Y-35389D01*
X82450Y-35481D01*
X82281Y-35649D01*
X82190Y-35870D01*
X82189Y-36108D01*
X82281Y-36329D01*
X82449Y-36498D01*
X82670Y-36589D01*
X82908Y-36590D01*
X83129Y-36498D01*
X83298Y-36330D01*
X83389Y-36109D01*
X83390Y-35871D01*
X83390Y-37537D01*
X79350Y-37554D01*
X79350Y-35411D01*
X79258Y-35190D01*
X79090Y-35021D01*
X78869Y-34930D01*
X78631Y-34929D01*
X78410Y-35021D01*
X78270Y-35161D01*
X78270Y-33691D01*
X78178Y-33470D01*
X78010Y-33301D01*
X77789Y-33210D01*
X77551Y-33209D01*
X77330Y-33301D01*
X77161Y-33469D01*
X77070Y-33690D01*
X77069Y-33928D01*
X77161Y-34149D01*
X77329Y-34318D01*
X77550Y-34409D01*
X77788Y-34410D01*
X78009Y-34318D01*
X78178Y-34150D01*
X78269Y-33929D01*
X78270Y-33691D01*
X78270Y-35161D01*
X78241Y-35189D01*
X78150Y-35410D01*
X78149Y-35648D01*
X78241Y-35869D01*
X78409Y-36038D01*
X78630Y-36129D01*
X78868Y-36130D01*
X79089Y-36038D01*
X79258Y-35870D01*
X79349Y-35649D01*
X79350Y-35411D01*
X79350Y-37554D01*
X78304Y-37559D01*
X78304Y-36243D01*
X78294Y-36005D01*
X78222Y-35832D01*
X78122Y-35798D01*
X78051Y-35869D01*
X78051Y-35727D01*
X78017Y-35627D01*
X77793Y-35545D01*
X77555Y-35555D01*
X77382Y-35627D01*
X77348Y-35727D01*
X77700Y-36079D01*
X78051Y-35727D01*
X78051Y-35869D01*
X77770Y-36150D01*
X78122Y-36501D01*
X78222Y-36467D01*
X78304Y-36243D01*
X78304Y-37559D01*
X78051Y-37560D01*
X78051Y-36572D01*
X77700Y-36220D01*
X77629Y-36291D01*
X77629Y-36150D01*
X77277Y-35798D01*
X77177Y-35832D01*
X77095Y-36056D01*
X77105Y-36294D01*
X77177Y-36467D01*
X77277Y-36501D01*
X77629Y-36150D01*
X77629Y-36291D01*
X77348Y-36572D01*
X77382Y-36672D01*
X77606Y-36754D01*
X77844Y-36744D01*
X78017Y-36672D01*
X78051Y-36572D01*
X78051Y-37560D01*
X76629Y-37566D01*
X76629Y-32278D01*
X76570Y-32136D01*
X76462Y-32028D01*
X76321Y-31969D01*
X76167Y-31969D01*
X76026Y-32027D01*
X75917Y-32135D01*
X75859Y-32277D01*
X75859Y-32430D01*
X75917Y-32572D01*
X75944Y-32598D01*
X75944Y-32867D01*
X75870Y-32941D01*
X75833Y-32941D01*
X75691Y-33000D01*
X75583Y-33108D01*
X75524Y-33249D01*
X75524Y-33403D01*
X75582Y-33544D01*
X75691Y-33652D01*
X75832Y-33711D01*
X75985Y-33711D01*
X76127Y-33653D01*
X76235Y-33545D01*
X76294Y-33403D01*
X76294Y-33366D01*
X76456Y-33204D01*
X76456Y-33204D01*
X76521Y-33106D01*
X76544Y-32992D01*
X76544Y-32992D01*
X76544Y-32598D01*
X76570Y-32572D01*
X76629Y-32431D01*
X76629Y-32278D01*
X76629Y-37566D01*
X74995Y-37573D01*
X74995Y-36624D01*
X74936Y-36482D01*
X74828Y-36374D01*
X74687Y-36315D01*
X74533Y-36315D01*
X74392Y-36374D01*
X74365Y-36400D01*
X73345Y-36400D01*
X73345Y-36325D01*
X73287Y-36183D01*
X73178Y-36075D01*
X73037Y-36016D01*
X72884Y-36016D01*
X72742Y-36074D01*
X72716Y-36101D01*
X72216Y-36101D01*
X72159Y-36043D01*
X72017Y-35985D01*
X71864Y-35985D01*
X71723Y-36043D01*
X71614Y-36151D01*
X71556Y-36293D01*
X71555Y-36400D01*
X71408Y-36400D01*
X71408Y-36400D01*
X71350Y-36258D01*
X71241Y-36150D01*
X71100Y-36091D01*
X70947Y-36091D01*
X70805Y-36149D01*
X70697Y-36258D01*
X70638Y-36399D01*
X70638Y-36552D01*
X70697Y-36694D01*
X70805Y-36802D01*
X70946Y-36861D01*
X70984Y-36861D01*
X71035Y-36912D01*
X71035Y-36912D01*
X71133Y-36977D01*
X71248Y-37000D01*
X71248Y-37000D01*
X74365Y-37000D01*
X74391Y-37026D01*
X74533Y-37085D01*
X74686Y-37085D01*
X74828Y-37027D01*
X74936Y-36919D01*
X74995Y-36777D01*
X74995Y-36624D01*
X74995Y-37573D01*
X73106Y-37582D01*
X73196Y-44843D01*
X73063Y-44931D01*
X72952Y-45098D01*
X72841Y-44931D01*
X72663Y-44812D01*
X72452Y-44770D01*
X72242Y-44812D01*
X72063Y-44931D01*
X71952Y-45098D01*
X71841Y-44931D01*
X71663Y-44812D01*
X71452Y-44770D01*
X71242Y-44812D01*
X71070Y-44927D01*
X71070Y-42451D01*
X70978Y-42230D01*
X70810Y-42061D01*
X70589Y-41970D01*
X70351Y-41969D01*
X70130Y-42061D01*
X69961Y-42229D01*
X69870Y-42450D01*
X69869Y-42688D01*
X69961Y-42909D01*
X70129Y-43078D01*
X70350Y-43169D01*
X70588Y-43170D01*
X70809Y-43078D01*
X70978Y-42910D01*
X71069Y-42689D01*
X71070Y-42451D01*
X71070Y-44927D01*
X71063Y-44931D01*
X70952Y-45098D01*
X70841Y-44931D01*
X70663Y-44812D01*
X70452Y-44770D01*
X70242Y-44812D01*
X70063Y-44931D01*
X69944Y-45110D01*
X69902Y-45320D01*
X69902Y-45750D01*
X69944Y-45960D01*
X70063Y-46139D01*
X70242Y-46258D01*
X70261Y-46262D01*
X67826Y-46262D01*
X67826Y-33424D01*
X67826Y-31503D01*
X67750Y-31319D01*
X67610Y-31178D01*
X67426Y-31102D01*
X67227Y-31102D01*
X67043Y-31178D01*
X66903Y-31318D01*
X66826Y-31502D01*
X66826Y-31701D01*
X66902Y-31885D01*
X67043Y-32025D01*
X67226Y-32102D01*
X67425Y-32102D01*
X67609Y-32026D01*
X67750Y-31885D01*
X67826Y-31702D01*
X67826Y-31503D01*
X67826Y-33424D01*
X67750Y-33240D01*
X67610Y-33099D01*
X67426Y-33023D01*
X67227Y-33023D01*
X67043Y-33099D01*
X66903Y-33240D01*
X66826Y-33423D01*
X66826Y-33622D01*
X66902Y-33806D01*
X67043Y-33947D01*
X67226Y-34023D01*
X67425Y-34023D01*
X67609Y-33947D01*
X67750Y-33807D01*
X67826Y-33623D01*
X67826Y-33424D01*
X67826Y-46262D01*
X63933Y-46262D01*
X63933Y-39998D01*
X63874Y-39856D01*
X63766Y-39747D01*
X63624Y-39689D01*
X63470Y-39688D01*
X63328Y-39747D01*
X63220Y-39855D01*
X63161Y-39997D01*
X63161Y-40151D01*
X63219Y-40293D01*
X63328Y-40401D01*
X63470Y-40460D01*
X63623Y-40460D01*
X63765Y-40402D01*
X63874Y-40293D01*
X63933Y-40151D01*
X63933Y-39998D01*
X63933Y-46262D01*
X63360Y-46262D01*
X63360Y-43630D01*
X63360Y-43337D01*
X63336Y-43219D01*
X63269Y-43119D01*
X63169Y-43052D01*
X63051Y-43028D01*
X62932Y-43052D01*
X62930Y-43053D01*
X62930Y-40113D01*
X62916Y-39960D01*
X62884Y-39881D01*
X62806Y-39874D01*
X62735Y-39945D01*
X62735Y-39804D01*
X62728Y-39725D01*
X62581Y-39679D01*
X62428Y-39693D01*
X62350Y-39725D01*
X62343Y-39804D01*
X62539Y-40000D01*
X62735Y-39804D01*
X62735Y-39945D01*
X62610Y-40070D01*
X62806Y-40266D01*
X62884Y-40259D01*
X62930Y-40113D01*
X62930Y-43053D01*
X62832Y-43119D01*
X62765Y-43219D01*
X62742Y-43337D01*
X62742Y-43630D01*
X62765Y-43749D01*
X62832Y-43849D01*
X62932Y-43916D01*
X63051Y-43939D01*
X63169Y-43916D01*
X63269Y-43849D01*
X63336Y-43749D01*
X63360Y-43630D01*
X63360Y-46262D01*
X62735Y-46262D01*
X62735Y-40337D01*
X62539Y-40141D01*
X62468Y-40212D01*
X62468Y-40070D01*
X62272Y-39874D01*
X62194Y-39881D01*
X62148Y-40028D01*
X62161Y-40181D01*
X62194Y-40259D01*
X62272Y-40266D01*
X62468Y-40070D01*
X62468Y-40212D01*
X62343Y-40337D01*
X62350Y-40415D01*
X62496Y-40461D01*
X62649Y-40448D01*
X62728Y-40415D01*
X62735Y-40337D01*
X62735Y-46262D01*
X62503Y-46262D01*
X62503Y-44624D01*
X62503Y-44469D01*
X62458Y-44364D01*
X62369Y-44280D01*
X62254Y-44238D01*
X62116Y-44238D01*
X62116Y-44517D01*
X62449Y-44517D01*
X62503Y-44469D01*
X62503Y-44624D01*
X62449Y-44576D01*
X62116Y-44576D01*
X62116Y-44856D01*
X62254Y-44856D01*
X62369Y-44813D01*
X62458Y-44730D01*
X62503Y-44624D01*
X62503Y-46262D01*
X62016Y-46262D01*
X62016Y-44856D01*
X62016Y-44576D01*
X62016Y-44517D01*
X62016Y-44238D01*
X61879Y-44238D01*
X61764Y-44280D01*
X61675Y-44364D01*
X61629Y-44469D01*
X61684Y-44517D01*
X62016Y-44517D01*
X62016Y-44576D01*
X61684Y-44576D01*
X61629Y-44624D01*
X61675Y-44730D01*
X61764Y-44813D01*
X61879Y-44856D01*
X62016Y-44856D01*
X62016Y-46262D01*
X61391Y-46262D01*
X61391Y-43672D01*
X61391Y-43534D01*
X61391Y-43434D01*
X61391Y-43296D01*
X61349Y-43181D01*
X61265Y-43092D01*
X61159Y-43047D01*
X61112Y-43101D01*
X61112Y-43434D01*
X61391Y-43434D01*
X61391Y-43534D01*
X61112Y-43534D01*
X61112Y-43866D01*
X61159Y-43921D01*
X61265Y-43875D01*
X61349Y-43786D01*
X61391Y-43672D01*
X61391Y-46262D01*
X60788Y-46262D01*
X60785Y-43703D01*
X60816Y-43786D01*
X60899Y-43875D01*
X61005Y-43921D01*
X61053Y-43866D01*
X61053Y-43534D01*
X61024Y-43534D01*
X61024Y-43434D01*
X61053Y-43434D01*
X61053Y-43101D01*
X61005Y-43047D01*
X60899Y-43092D01*
X60816Y-43181D01*
X60784Y-43266D01*
X60768Y-27790D01*
X64394Y-27786D01*
X64301Y-27879D01*
X64210Y-28100D01*
X64209Y-28338D01*
X64301Y-28559D01*
X64469Y-28728D01*
X64510Y-28745D01*
X64510Y-29160D01*
X64532Y-29274D01*
X64597Y-29372D01*
X65517Y-30292D01*
X65517Y-30292D01*
X65615Y-30357D01*
X65730Y-30380D01*
X72353Y-30380D01*
X72413Y-30404D01*
X72566Y-30405D01*
X72707Y-30346D01*
X72816Y-30238D01*
X72874Y-30096D01*
X72875Y-29943D01*
X72816Y-29802D01*
X72754Y-29740D01*
X73335Y-29740D01*
X73431Y-29836D01*
X73573Y-29894D01*
X73726Y-29895D01*
X73867Y-29836D01*
X73976Y-29728D01*
X74034Y-29586D01*
X74035Y-29433D01*
X73976Y-29292D01*
X73868Y-29183D01*
X73726Y-29125D01*
X73573Y-29124D01*
X73537Y-29140D01*
X68894Y-29140D01*
X68760Y-29005D01*
X68760Y-28755D01*
X68799Y-28738D01*
X68968Y-28570D01*
X69059Y-28349D01*
X69060Y-28111D01*
X68968Y-27890D01*
X68860Y-27782D01*
X77777Y-27773D01*
X77681Y-27869D01*
X77590Y-28090D01*
X77589Y-28328D01*
X77681Y-28549D01*
X77849Y-28718D01*
X78070Y-28809D01*
X78308Y-28810D01*
X78529Y-28718D01*
X78698Y-28550D01*
X78789Y-28329D01*
X78790Y-28091D01*
X78698Y-27870D01*
X78601Y-27773D01*
X81308Y-27770D01*
X81288Y-31555D01*
X85245Y-31555D01*
X85248Y-32442D01*
X85111Y-32305D01*
X84891Y-32213D01*
X84652Y-32213D01*
X84431Y-32304D01*
X84263Y-32473D01*
X84171Y-32693D01*
X84171Y-32932D01*
X84262Y-33153D01*
X84431Y-33322D01*
X84651Y-33413D01*
X84890Y-33413D01*
X85110Y-33322D01*
X85250Y-33183D01*
X85252Y-33824D01*
X85111Y-33683D01*
X84891Y-33591D01*
X84652Y-33591D01*
X84431Y-33682D01*
X84263Y-33851D01*
X84171Y-34071D01*
X84171Y-34310D01*
X84262Y-34531D01*
X84431Y-34700D01*
X84651Y-34791D01*
X84890Y-34791D01*
X85110Y-34700D01*
X85255Y-34556D01*
X85257Y-35206D01*
X85111Y-35061D01*
X84891Y-34969D01*
X84652Y-34969D01*
X84431Y-35060D01*
X84263Y-35229D01*
X84171Y-35449D01*
X84171Y-35688D01*
X84262Y-35909D01*
X84431Y-36077D01*
X84651Y-36169D01*
X84890Y-36169D01*
X85110Y-36078D01*
X85259Y-35930D01*
X85261Y-36589D01*
G54D10*
G36*
X85273Y-38742D02*
X85269Y-39281D01*
X85140Y-39152D01*
X84901Y-39053D01*
X84642Y-39053D01*
X84403Y-39152D01*
X84220Y-39334D01*
X84121Y-39573D01*
X84121Y-39832D01*
X84220Y-40071D01*
X84402Y-40254D01*
X84469Y-40281D01*
X84364Y-40325D01*
X84181Y-40508D01*
X84082Y-40746D01*
X84081Y-41005D01*
X84180Y-41244D01*
X84363Y-41427D01*
X84602Y-41526D01*
X84860Y-41526D01*
X85099Y-41428D01*
X85252Y-41275D01*
X85247Y-41850D01*
X85100Y-41703D01*
X84861Y-41604D01*
X84603Y-41604D01*
X84364Y-41703D01*
X84181Y-41885D01*
X84082Y-42124D01*
X84081Y-42383D01*
X84180Y-42622D01*
X84363Y-42805D01*
X84602Y-42904D01*
X84860Y-42904D01*
X85099Y-42806D01*
X85240Y-42665D01*
X85218Y-45308D01*
X85148Y-45413D01*
X85123Y-45540D01*
X85123Y-46171D01*
X84878Y-46172D01*
X85007Y-45980D01*
X85052Y-45751D01*
X85052Y-45319D01*
X85007Y-45090D01*
X84877Y-44895D01*
X84682Y-44765D01*
X84452Y-44719D01*
X84223Y-44765D01*
X84028Y-44895D01*
X83952Y-45008D01*
X83877Y-44895D01*
X83682Y-44765D01*
X83452Y-44719D01*
X83223Y-44765D01*
X83028Y-44895D01*
X82952Y-45008D01*
X82877Y-44895D01*
X82682Y-44765D01*
X82452Y-44719D01*
X82223Y-44765D01*
X82028Y-44895D01*
X81952Y-45008D01*
X81877Y-44895D01*
X81682Y-44765D01*
X81452Y-44719D01*
X81223Y-44765D01*
X81028Y-44895D01*
X80952Y-45008D01*
X80877Y-44895D01*
X80682Y-44765D01*
X80452Y-44719D01*
X80223Y-44765D01*
X80028Y-44895D01*
X79952Y-45008D01*
X79877Y-44895D01*
X79682Y-44765D01*
X79452Y-44719D01*
X79223Y-44765D01*
X79028Y-44895D01*
X78898Y-45090D01*
X78852Y-45319D01*
X78852Y-45751D01*
X78898Y-45980D01*
X79028Y-46175D01*
X79083Y-46212D01*
X77822Y-46212D01*
X77877Y-46175D01*
X78007Y-45980D01*
X78052Y-45751D01*
X78052Y-45319D01*
X78007Y-45090D01*
X77877Y-44895D01*
X77682Y-44765D01*
X77452Y-44719D01*
X77223Y-44765D01*
X77028Y-44895D01*
X76952Y-45008D01*
X76877Y-44895D01*
X76682Y-44765D01*
X76452Y-44719D01*
X76223Y-44765D01*
X76028Y-44895D01*
X75898Y-45090D01*
X75862Y-45269D01*
X75862Y-45235D01*
X75793Y-45086D01*
X75671Y-44974D01*
X75613Y-44958D01*
X75552Y-44966D01*
X75552Y-45435D01*
X75560Y-45435D01*
X75560Y-45635D01*
X75552Y-45635D01*
X75552Y-46104D01*
X75613Y-46112D01*
X75671Y-46096D01*
X75793Y-45984D01*
X75862Y-45835D01*
X75862Y-45801D01*
X75898Y-45980D01*
X76028Y-46175D01*
X76083Y-46212D01*
X74822Y-46212D01*
X74877Y-46175D01*
X75007Y-45980D01*
X75042Y-45801D01*
X75042Y-45835D01*
X75112Y-45984D01*
X75233Y-46096D01*
X75291Y-46112D01*
X75352Y-46104D01*
X75352Y-45635D01*
X75344Y-45635D01*
X75344Y-45435D01*
X75352Y-45435D01*
X75352Y-44966D01*
X75291Y-44958D01*
X75233Y-44974D01*
X75112Y-45086D01*
X75042Y-45235D01*
X75042Y-45269D01*
X75007Y-45090D01*
X74877Y-44895D01*
X74682Y-44765D01*
X74452Y-44719D01*
X74223Y-44765D01*
X74028Y-44895D01*
X73952Y-45008D01*
X73877Y-44895D01*
X73764Y-44820D01*
X73740Y-38119D01*
X84167Y-38084D01*
X84121Y-38195D01*
X84121Y-38454D01*
X84220Y-38693D01*
X84402Y-38876D01*
X84641Y-38975D01*
X84900Y-38975D01*
X85139Y-38876D01*
X85273Y-38742D01*
X85273Y-38742D01*
G37*
G54D20*
X85273Y-38742D02*
X85269Y-39281D01*
X85140Y-39152D01*
X84901Y-39053D01*
X84642Y-39053D01*
X84403Y-39152D01*
X84220Y-39334D01*
X84121Y-39573D01*
X84121Y-39832D01*
X84220Y-40071D01*
X84402Y-40254D01*
X84469Y-40281D01*
X84364Y-40325D01*
X84181Y-40508D01*
X84082Y-40746D01*
X84081Y-41005D01*
X84180Y-41244D01*
X84363Y-41427D01*
X84602Y-41526D01*
X84860Y-41526D01*
X85099Y-41428D01*
X85252Y-41275D01*
X85247Y-41850D01*
X85100Y-41703D01*
X84861Y-41604D01*
X84603Y-41604D01*
X84364Y-41703D01*
X84181Y-41885D01*
X84082Y-42124D01*
X84081Y-42383D01*
X84180Y-42622D01*
X84363Y-42805D01*
X84602Y-42904D01*
X84860Y-42904D01*
X85099Y-42806D01*
X85240Y-42665D01*
X85218Y-45308D01*
X85148Y-45413D01*
X85123Y-45540D01*
X85123Y-46171D01*
X84878Y-46172D01*
X85007Y-45980D01*
X85052Y-45751D01*
X85052Y-45319D01*
X85007Y-45090D01*
X84877Y-44895D01*
X84682Y-44765D01*
X84452Y-44719D01*
X84223Y-44765D01*
X84028Y-44895D01*
X83952Y-45008D01*
X83877Y-44895D01*
X83682Y-44765D01*
X83452Y-44719D01*
X83223Y-44765D01*
X83028Y-44895D01*
X82952Y-45008D01*
X82877Y-44895D01*
X82682Y-44765D01*
X82452Y-44719D01*
X82223Y-44765D01*
X82028Y-44895D01*
X81952Y-45008D01*
X81877Y-44895D01*
X81682Y-44765D01*
X81452Y-44719D01*
X81223Y-44765D01*
X81028Y-44895D01*
X80952Y-45008D01*
X80877Y-44895D01*
X80682Y-44765D01*
X80452Y-44719D01*
X80223Y-44765D01*
X80028Y-44895D01*
X79952Y-45008D01*
X79877Y-44895D01*
X79682Y-44765D01*
X79452Y-44719D01*
X79223Y-44765D01*
X79028Y-44895D01*
X78898Y-45090D01*
X78852Y-45319D01*
X78852Y-45751D01*
X78898Y-45980D01*
X79028Y-46175D01*
X79083Y-46212D01*
X77822Y-46212D01*
X77877Y-46175D01*
X78007Y-45980D01*
X78052Y-45751D01*
X78052Y-45319D01*
X78007Y-45090D01*
X77877Y-44895D01*
X77682Y-44765D01*
X77452Y-44719D01*
X77223Y-44765D01*
X77028Y-44895D01*
X76952Y-45008D01*
X76877Y-44895D01*
X76682Y-44765D01*
X76452Y-44719D01*
X76223Y-44765D01*
X76028Y-44895D01*
X75898Y-45090D01*
X75862Y-45269D01*
X75862Y-45235D01*
X75793Y-45086D01*
X75671Y-44974D01*
X75613Y-44958D01*
X75552Y-44966D01*
X75552Y-45435D01*
X75560Y-45435D01*
X75560Y-45635D01*
X75552Y-45635D01*
X75552Y-46104D01*
X75613Y-46112D01*
X75671Y-46096D01*
X75793Y-45984D01*
X75862Y-45835D01*
X75862Y-45801D01*
X75898Y-45980D01*
X76028Y-46175D01*
X76083Y-46212D01*
X74822Y-46212D01*
X74877Y-46175D01*
X75007Y-45980D01*
X75042Y-45801D01*
X75042Y-45835D01*
X75112Y-45984D01*
X75233Y-46096D01*
X75291Y-46112D01*
X75352Y-46104D01*
X75352Y-45635D01*
X75344Y-45635D01*
X75344Y-45435D01*
X75352Y-45435D01*
X75352Y-44966D01*
X75291Y-44958D01*
X75233Y-44974D01*
X75112Y-45086D01*
X75042Y-45235D01*
X75042Y-45269D01*
X75007Y-45090D01*
X74877Y-44895D01*
X74682Y-44765D01*
X74452Y-44719D01*
X74223Y-44765D01*
X74028Y-44895D01*
X73952Y-45008D01*
X73877Y-44895D01*
X73764Y-44820D01*
X73740Y-38119D01*
X84167Y-38084D01*
X84121Y-38195D01*
X84121Y-38454D01*
X84220Y-38693D01*
X84402Y-38876D01*
X84641Y-38975D01*
X84900Y-38975D01*
X85139Y-38876D01*
X85273Y-38742D01*
M02*
