M48
;DRILL file {Pcbnew (2013-07-07 BZR 4022)-stable} date 8/20/2014 2:19:40 PM
;FORMAT={-:-/ absolute / inch / decimal}
FMAT,2
INCH,TZ
T1C0.012
T2C0.013
T3C0.013
T4C0.017
T5C0.035
T6C0.039
T7C0.039
T8C0.040
%
G90
G05
M72
T2
X6.2894Y-2.7264
X6.4004Y-3.2039
X6.528Y-4.348
X6.65Y-4.14
X6.66Y-3.76
X6.92Y-4.41
X7.1024Y-3.6476
X7.1385Y-4.053
X7.19Y-3.75
X7.1941Y-3.637
X7.2961Y-3.6402
X7.3116Y-3.1406
X7.325Y-3.517
X7.461Y-3.6701
X7.5909Y-3.3327
X7.6244Y-3.2354
X7.86Y-3.18
X8.1585Y-3.561
T3
X6.2539Y-4.0071
X6.3547Y-4.0075
T4
X7.575Y-4.005
X7.82Y-4.05
X7.84Y-4.355
T5
X6.7327Y-3.1602
X6.7327Y-3.3524
T6
X8.4771Y-3.6948
T7
X8.4732Y-4.0877
X8.4732Y-4.2255
X8.4771Y-3.2814
X8.4771Y-3.4192
X8.4771Y-3.557
X8.4771Y-3.8326
X8.4771Y-3.9703
T8
X6.8853Y-2.6535
X6.9853Y-2.6535
X7.0453Y-4.5535
X7.0853Y-2.6535
X7.1453Y-4.5535
X7.1853Y-2.6535
X7.2453Y-4.5535
X7.2853Y-2.6535
X7.3453Y-4.5535
X7.3853Y-2.6535
X7.4453Y-4.5535
X7.4853Y-2.6535
X7.5453Y-4.5535
X7.5853Y-2.6535
X7.6453Y-4.5535
X7.7453Y-2.6535
X7.7453Y-4.5535
X7.8453Y-2.6535
X7.9453Y-2.6535
X7.9453Y-4.5535
X8.0453Y-2.6535
X8.0453Y-4.5535
X8.1453Y-2.6535
X8.1453Y-4.5535
X8.2453Y-2.6535
X8.2453Y-4.5535
X8.3453Y-2.6535
X8.3453Y-4.5535
X8.4453Y-2.6535
X8.4453Y-4.5535
T1
X6.1083Y-4.3622G85X6.1083Y-4.3346
G05
X6.2205Y-4.4547G85X6.1929Y-4.4547
G05
X6.3051Y-4.3622G85X6.3051Y-4.3346
G05
T0
M30
