M48
;DRILL file {Pcbnew (2013-07-07 BZR 4022)-stable} date 8/20/2014 2:47:44 AM
;FORMAT={-:-/ absolute / inch / decimal}
FMAT,2
INCH,TZ
T1C0.012
T2C0.013
T3C0.035
T4C0.040
%
G90
G05
M72
T2
X6.2539Y-4.0071
X6.3547Y-4.0075
X6.4004Y-3.2039
X6.528Y-4.348
X6.6429Y-4.1402
X6.6787Y-3.7807
X6.7283Y-3.1614
X6.7283Y-3.3535
X6.7992Y-4.4587
X7.0839Y-4.0142
X7.1024Y-3.6476
X7.1413Y-3.7016
X7.1941Y-3.637
X7.2961Y-3.6402
X7.3319Y-3.1591
X7.3409Y-3.5236
X7.461Y-3.6701
X7.5701Y-4.0358
X7.5909Y-3.3327
X7.6244Y-3.2354
X7.7803Y-4.0531
X7.874Y-3.1841
X7.935Y-4.3079
X8.1585Y-3.561
T3
X8.472Y-4.0803
X8.472Y-4.2181
X8.476Y-3.274
X8.476Y-3.4118
X8.476Y-3.5496
X8.476Y-3.6874
X8.476Y-3.8252
X8.476Y-3.963
T4
X6.8853Y-2.6535
X6.9853Y-2.6535
X7.0453Y-4.5535
X7.0853Y-2.6535
X7.1453Y-4.5535
X7.1853Y-2.6535
X7.2453Y-4.5535
X7.2853Y-2.6535
X7.3453Y-4.5535
X7.3853Y-2.6535
X7.4453Y-4.5535
X7.4853Y-2.6535
X7.5453Y-4.5535
X7.5853Y-2.6535
X7.6453Y-4.5535
X7.7453Y-2.6535
X7.7453Y-4.5535
X7.8453Y-2.6535
X7.9453Y-2.6535
X7.9453Y-4.5535
X8.0453Y-2.6535
X8.0453Y-4.5535
X8.1453Y-2.6535
X8.1453Y-4.5535
X8.2453Y-2.6535
X8.2453Y-4.5535
X8.3453Y-2.6535
X8.3453Y-4.5535
X8.4453Y-2.6535
X8.4453Y-4.5535
T1
X6.1083Y-4.3622G85X6.1083Y-4.3346
G05
X6.2205Y-4.4547G85X6.1929Y-4.4547
G05
X6.3051Y-4.3622G85X6.3051Y-4.3346
G05
T0
M30
