G04 (created by PCBNEW (2013-07-07 BZR 4022)-stable) date 8/20/2014 4:29:51 PM*
%MOIN*%
G04 Gerber Fmt 3.4, Leading zero omitted, Abs format*
%FSLAX34Y34*%
G01*
G70*
G90*
G04 APERTURE LIST*
%ADD10C,0.00590551*%
%ADD11O,0.06X0.1*%
%ADD12R,0.035X0.055*%
%ADD13R,0.055X0.035*%
%ADD14R,0.063X0.0866*%
%ADD15R,0.08X0.06*%
%ADD16R,0.011811X0.0984252*%
%ADD17R,0.12X0.065*%
%ADD18R,0.24X0.24*%
%ADD19O,0.011811X0.0393701*%
%ADD20O,0.0393701X0.011811*%
%ADD21R,0.03X0.02*%
%ADD22R,0.0394X0.0591*%
%ADD23R,0.0787X0.1181*%
%ADD24C,0.0271654*%
%ADD25C,0.05*%
%ADD26C,0.07*%
G04 APERTURE END LIST*
G54D10*
G54D11*
X75852Y-26535D03*
X74852Y-26535D03*
X73852Y-26535D03*
X72852Y-26535D03*
X71852Y-26535D03*
X70852Y-26535D03*
X69852Y-26535D03*
X68852Y-26535D03*
X73452Y-45535D03*
X72452Y-45535D03*
X71452Y-45535D03*
X70452Y-45535D03*
X74452Y-45535D03*
X75452Y-45535D03*
X76452Y-45535D03*
X77452Y-45535D03*
X79452Y-45535D03*
X80452Y-45535D03*
X81452Y-45535D03*
X82452Y-45535D03*
X83452Y-45535D03*
X84452Y-45535D03*
X84452Y-26535D03*
X83452Y-26535D03*
X82452Y-26535D03*
X81452Y-26535D03*
X80452Y-26535D03*
X79452Y-26535D03*
X78452Y-26535D03*
X77452Y-26535D03*
G54D12*
X81575Y-36968D03*
X80825Y-36968D03*
G54D13*
X67972Y-43306D03*
X67972Y-44056D03*
X64448Y-42243D03*
X64448Y-42993D03*
X65354Y-42144D03*
X65354Y-42894D03*
G54D12*
X80786Y-34753D03*
X81536Y-34753D03*
X81605Y-33602D03*
X80855Y-33602D03*
G54D13*
X79216Y-29729D03*
X79216Y-28979D03*
X72448Y-38014D03*
X72448Y-38764D03*
G54D12*
X67924Y-36791D03*
X68674Y-36791D03*
G54D13*
X75797Y-42274D03*
X75797Y-41524D03*
G54D12*
X67932Y-38129D03*
X68682Y-38129D03*
G54D13*
X67007Y-36646D03*
X67007Y-35896D03*
G54D12*
X68054Y-35629D03*
X68804Y-35629D03*
X64664Y-30779D03*
X65414Y-30779D03*
X64743Y-31988D03*
X65493Y-31988D03*
G54D14*
X64370Y-44389D03*
X65866Y-44389D03*
G54D12*
X75197Y-40659D03*
X74447Y-40659D03*
G54D15*
X70838Y-37779D03*
X70838Y-39079D03*
G54D13*
X70777Y-28278D03*
X70777Y-29028D03*
X72972Y-28308D03*
X72972Y-29058D03*
X73966Y-28249D03*
X73966Y-28999D03*
X82185Y-27784D03*
X82185Y-28534D03*
G54D16*
X70437Y-35173D03*
X70692Y-35173D03*
X70948Y-35173D03*
X71204Y-35173D03*
X71460Y-35173D03*
X71716Y-35173D03*
X71972Y-35173D03*
X72228Y-35173D03*
X72484Y-35173D03*
X72740Y-35173D03*
X72720Y-32122D03*
X72464Y-32122D03*
X72208Y-32122D03*
X71952Y-32122D03*
X71696Y-32122D03*
X71440Y-32122D03*
X71185Y-32122D03*
X70929Y-32122D03*
X70673Y-32122D03*
X70417Y-32122D03*
G54D17*
X79330Y-38745D03*
G54D18*
X81830Y-39645D03*
G54D17*
X79330Y-40545D03*
G54D13*
X71938Y-28308D03*
X71938Y-29058D03*
G54D19*
X61082Y-43484D03*
G54D20*
X62066Y-44547D03*
G54D19*
X63051Y-43484D03*
G54D14*
X74468Y-38917D03*
X75964Y-38917D03*
G54D13*
X77488Y-42170D03*
X77488Y-41420D03*
G54D17*
X79350Y-42013D03*
G54D18*
X81850Y-42913D03*
G54D17*
X79350Y-43813D03*
G54D21*
X78127Y-32176D03*
X78127Y-31426D03*
X77127Y-32176D03*
X78127Y-31801D03*
X77127Y-31426D03*
G54D22*
X67223Y-41447D03*
X67814Y-41447D03*
X68405Y-41447D03*
G54D23*
X67814Y-40285D03*
G54D10*
G36*
X68208Y-40866D02*
X68011Y-41161D01*
X67617Y-41161D01*
X67420Y-40866D01*
X68208Y-40866D01*
X68208Y-40866D01*
G37*
G54D24*
X62539Y-40070D03*
X63547Y-40074D03*
G54D25*
X67326Y-31602D03*
X67326Y-33523D03*
G54D26*
X84771Y-32813D03*
X84771Y-34191D03*
X84771Y-35569D03*
X84771Y-36947D03*
X84771Y-38325D03*
X84771Y-39703D03*
X84732Y-40876D03*
X84732Y-42254D03*
M02*
