G04 (created by PCBNEW (2013-07-07 BZR 4022)-stable) date 8/20/2014 4:29:51 PM*
%MOIN*%
G04 Gerber Fmt 3.4, Leading zero omitted, Abs format*
%FSLAX34Y34*%
G01*
G70*
G90*
G04 APERTURE LIST*
%ADD10C,0.00590551*%
%ADD11O,0.06X0.1*%
%ADD12R,0.035X0.055*%
%ADD13R,0.055X0.035*%
%ADD14R,0.063X0.0866*%
%ADD15R,0.08X0.06*%
%ADD16R,0.011811X0.0984252*%
%ADD17R,0.12X0.065*%
%ADD18R,0.24X0.24*%
%ADD19O,0.011811X0.0393701*%
%ADD20O,0.0393701X0.011811*%
%ADD21R,0.03X0.02*%
%ADD22R,0.0394X0.0591*%
%ADD23R,0.0787X0.1181*%
%ADD24C,0.0271654*%
%ADD25C,0.05*%
%ADD26C,0.07*%
%ADD27C,0.027*%
%ADD28C,0.035*%
%ADD29C,0.01*%
%ADD30C,0.024*%
G04 APERTURE END LIST*
G54D10*
G54D11*
X75852Y-26535D03*
X74852Y-26535D03*
X73852Y-26535D03*
X72852Y-26535D03*
X71852Y-26535D03*
X70852Y-26535D03*
X69852Y-26535D03*
X68852Y-26535D03*
X73452Y-45535D03*
X72452Y-45535D03*
X71452Y-45535D03*
X70452Y-45535D03*
X74452Y-45535D03*
X75452Y-45535D03*
X76452Y-45535D03*
X77452Y-45535D03*
X79452Y-45535D03*
X80452Y-45535D03*
X81452Y-45535D03*
X82452Y-45535D03*
X83452Y-45535D03*
X84452Y-45535D03*
X84452Y-26535D03*
X83452Y-26535D03*
X82452Y-26535D03*
X81452Y-26535D03*
X80452Y-26535D03*
X79452Y-26535D03*
X78452Y-26535D03*
X77452Y-26535D03*
G54D12*
X81575Y-36968D03*
X80825Y-36968D03*
G54D13*
X67972Y-43306D03*
X67972Y-44056D03*
X64448Y-42243D03*
X64448Y-42993D03*
X65354Y-42144D03*
X65354Y-42894D03*
G54D12*
X80786Y-34753D03*
X81536Y-34753D03*
X81605Y-33602D03*
X80855Y-33602D03*
G54D13*
X79216Y-29729D03*
X79216Y-28979D03*
X72448Y-38014D03*
X72448Y-38764D03*
G54D12*
X67924Y-36791D03*
X68674Y-36791D03*
G54D13*
X75797Y-42274D03*
X75797Y-41524D03*
G54D12*
X67932Y-38129D03*
X68682Y-38129D03*
G54D13*
X67007Y-36646D03*
X67007Y-35896D03*
G54D12*
X68054Y-35629D03*
X68804Y-35629D03*
X64664Y-30779D03*
X65414Y-30779D03*
X64743Y-31988D03*
X65493Y-31988D03*
G54D14*
X64370Y-44389D03*
X65866Y-44389D03*
G54D12*
X75197Y-40659D03*
X74447Y-40659D03*
G54D15*
X70838Y-37779D03*
X70838Y-39079D03*
G54D13*
X70777Y-28278D03*
X70777Y-29028D03*
X72972Y-28308D03*
X72972Y-29058D03*
X73966Y-28249D03*
X73966Y-28999D03*
X82185Y-27784D03*
X82185Y-28534D03*
G54D16*
X70437Y-35173D03*
X70692Y-35173D03*
X70948Y-35173D03*
X71204Y-35173D03*
X71460Y-35173D03*
X71716Y-35173D03*
X71972Y-35173D03*
X72228Y-35173D03*
X72484Y-35173D03*
X72740Y-35173D03*
X72720Y-32122D03*
X72464Y-32122D03*
X72208Y-32122D03*
X71952Y-32122D03*
X71696Y-32122D03*
X71440Y-32122D03*
X71185Y-32122D03*
X70929Y-32122D03*
X70673Y-32122D03*
X70417Y-32122D03*
G54D17*
X79330Y-38745D03*
G54D18*
X81830Y-39645D03*
G54D17*
X79330Y-40545D03*
G54D13*
X71938Y-28308D03*
X71938Y-29058D03*
G54D19*
X61082Y-43484D03*
G54D20*
X62066Y-44547D03*
G54D19*
X63051Y-43484D03*
G54D14*
X74468Y-38917D03*
X75964Y-38917D03*
G54D13*
X77488Y-42170D03*
X77488Y-41420D03*
G54D17*
X79350Y-42013D03*
G54D18*
X81850Y-42913D03*
G54D17*
X79350Y-43813D03*
G54D21*
X78127Y-32176D03*
X78127Y-31426D03*
X77127Y-32176D03*
X78127Y-31801D03*
X77127Y-31426D03*
G54D22*
X67223Y-41447D03*
X67814Y-41447D03*
X68405Y-41447D03*
G54D23*
X67814Y-40285D03*
G54D10*
G36*
X68208Y-40866D02*
X68011Y-41161D01*
X67617Y-41161D01*
X67420Y-40866D01*
X68208Y-40866D01*
X68208Y-40866D01*
G37*
G54D24*
X62539Y-40070D03*
X63547Y-40074D03*
G54D25*
X67326Y-31602D03*
X67326Y-33523D03*
G54D26*
X84771Y-32813D03*
X84771Y-34191D03*
X84771Y-35569D03*
X84771Y-36947D03*
X84771Y-38325D03*
X84771Y-39703D03*
X84732Y-40876D03*
X84732Y-42254D03*
G54D27*
X62893Y-27263D03*
X75909Y-33326D03*
X76244Y-32354D03*
X71023Y-36476D03*
X74610Y-36700D03*
X72960Y-36401D03*
X71940Y-36370D03*
X71385Y-40530D03*
X73250Y-35170D03*
G54D28*
X71900Y-37500D03*
G54D27*
X73116Y-31406D03*
G54D28*
X69200Y-44100D03*
X78600Y-31800D03*
X66600Y-37600D03*
X66500Y-41400D03*
X64003Y-32039D03*
X65279Y-43480D03*
X81584Y-35610D03*
X78400Y-43550D03*
X78200Y-40500D03*
X75750Y-40050D03*
G54D29*
X71852Y-26535D02*
X71852Y-28221D01*
X71852Y-28221D02*
X71938Y-28308D01*
X72025Y-28221D02*
X71938Y-28308D01*
X72852Y-26535D02*
X72852Y-28188D01*
X72852Y-28188D02*
X72972Y-28308D01*
X73025Y-28254D02*
X72972Y-28308D01*
X77488Y-42170D02*
X77488Y-43362D01*
X80452Y-44874D02*
X80452Y-45535D01*
X80177Y-44598D02*
X80452Y-44874D01*
X78409Y-44598D02*
X80177Y-44598D01*
X78106Y-44295D02*
X78409Y-44598D01*
X78106Y-43980D02*
X78106Y-44295D01*
X77488Y-43362D02*
X78106Y-43980D01*
X70852Y-26535D02*
X70852Y-28203D01*
X70852Y-28203D02*
X70777Y-28278D01*
G54D30*
X74447Y-40659D02*
X74447Y-45530D01*
X74447Y-45530D02*
X74452Y-45535D01*
X74447Y-40659D02*
X74447Y-38938D01*
X74447Y-38938D02*
X74468Y-38917D01*
G54D29*
X73852Y-26535D02*
X73852Y-28135D01*
X73852Y-28135D02*
X73966Y-28249D01*
X82452Y-26535D02*
X82452Y-27516D01*
X82452Y-27516D02*
X82185Y-27784D01*
X69838Y-34606D02*
X70413Y-34606D01*
X70437Y-34629D02*
X70437Y-35173D01*
X70413Y-34606D02*
X70437Y-34629D01*
X67751Y-34606D02*
X62944Y-34606D01*
X62893Y-27263D02*
X62893Y-34555D01*
X62944Y-34606D02*
X62893Y-34555D01*
X67751Y-34606D02*
X69838Y-34606D01*
X70641Y-32909D02*
X70027Y-32909D01*
X70673Y-32877D02*
X70641Y-32909D01*
X70673Y-32122D02*
X70673Y-32877D01*
X70027Y-32909D02*
X69968Y-32850D01*
X69968Y-30330D02*
X69968Y-30125D01*
X71938Y-29911D02*
X71938Y-29058D01*
X71889Y-29960D02*
X71938Y-29911D01*
X70133Y-29960D02*
X71889Y-29960D01*
X69968Y-30125D02*
X70133Y-29960D01*
X69968Y-32850D02*
X69968Y-30330D01*
X72988Y-29073D02*
X72988Y-30311D01*
X72972Y-29058D02*
X72988Y-29073D01*
X72968Y-30330D02*
X70566Y-30330D01*
X72988Y-30311D02*
X72968Y-30330D01*
X70417Y-30370D02*
X70417Y-32122D01*
X70417Y-30370D02*
X70566Y-30330D01*
X69570Y-29681D02*
X69570Y-29539D01*
X70081Y-29028D02*
X70777Y-29028D01*
X69570Y-29539D02*
X70081Y-29028D01*
X70929Y-32122D02*
X70929Y-33066D01*
X69570Y-33051D02*
X69570Y-29681D01*
X69685Y-33165D02*
X69570Y-33051D01*
X70830Y-33165D02*
X69685Y-33165D01*
X70929Y-33066D02*
X70830Y-33165D01*
X81605Y-33602D02*
X81605Y-32974D01*
X81605Y-32974D02*
X81687Y-32893D01*
X76990Y-32893D02*
X81687Y-32893D01*
X81687Y-32893D02*
X81907Y-32893D01*
X81907Y-32893D02*
X81935Y-32865D01*
X84771Y-35511D02*
X84581Y-35511D01*
X84581Y-35511D02*
X81935Y-32865D01*
X77127Y-32711D02*
X77127Y-32842D01*
X77127Y-32842D02*
X77077Y-32893D01*
X72263Y-33854D02*
X72265Y-33854D01*
X72265Y-33854D02*
X73227Y-32893D01*
X73227Y-32893D02*
X76990Y-32893D01*
X76990Y-32893D02*
X77077Y-32893D01*
X77077Y-32893D02*
X77084Y-32893D01*
X70948Y-34322D02*
X71047Y-34224D01*
X71047Y-34224D02*
X71893Y-34224D01*
X71893Y-34224D02*
X72263Y-33854D01*
X72263Y-33854D02*
X72300Y-33818D01*
X72300Y-33818D02*
X72303Y-33814D01*
X70948Y-35173D02*
X70948Y-34322D01*
G54D30*
X63547Y-40074D02*
X64783Y-40074D01*
X64783Y-40074D02*
X65937Y-38921D01*
X65937Y-38921D02*
X68562Y-38921D01*
X68562Y-38921D02*
X68682Y-38802D01*
X68682Y-38802D02*
X68682Y-38129D01*
G54D29*
X77127Y-32176D02*
X77127Y-32711D01*
X77127Y-32711D02*
X77127Y-32746D01*
G54D30*
X68674Y-36791D02*
X68674Y-38122D01*
X68674Y-38122D02*
X68682Y-38129D01*
X68804Y-35629D02*
X68804Y-36661D01*
X68804Y-36661D02*
X68674Y-36791D01*
G54D29*
X70948Y-35173D02*
X70948Y-36047D01*
X70948Y-36047D02*
X70204Y-36791D01*
G54D30*
X70204Y-36791D02*
X68674Y-36791D01*
G54D29*
X76244Y-32354D02*
X76244Y-32310D01*
X71204Y-34539D02*
X71283Y-34460D01*
X71283Y-34460D02*
X72409Y-34460D01*
X72409Y-34460D02*
X73543Y-33326D01*
X73543Y-33326D02*
X75909Y-33326D01*
X71204Y-35173D02*
X71204Y-34539D01*
X76244Y-32310D02*
X77127Y-31426D01*
X78127Y-32176D02*
X82943Y-32176D01*
X84763Y-33996D02*
X84763Y-34220D01*
X82943Y-32176D02*
X84763Y-33996D01*
X78127Y-32176D02*
X77877Y-32176D01*
X77877Y-32176D02*
X77127Y-31426D01*
X84763Y-34220D02*
X84763Y-34370D01*
X71023Y-36476D02*
X71023Y-36287D01*
X80786Y-34753D02*
X76557Y-34753D01*
X74610Y-36700D02*
X76557Y-34753D01*
X71460Y-35850D02*
X71460Y-35173D01*
X71023Y-36287D02*
X71460Y-35850D01*
X80855Y-33522D02*
X80855Y-33602D01*
X80855Y-33602D02*
X80855Y-34685D01*
X80855Y-34685D02*
X80786Y-34753D01*
X73966Y-28999D02*
X73966Y-30356D01*
X71185Y-31401D02*
X71185Y-32122D01*
X73326Y-30755D02*
X73769Y-30553D01*
X71590Y-30755D02*
X73326Y-30755D01*
X71185Y-31401D02*
X71590Y-30755D01*
X73966Y-30356D02*
X73769Y-30553D01*
X73966Y-28999D02*
X73936Y-28999D01*
X71952Y-32122D02*
X71952Y-31060D01*
X76015Y-29090D02*
X79105Y-29090D01*
X79105Y-29090D02*
X79216Y-28979D01*
X74814Y-29090D02*
X76015Y-29090D01*
X74808Y-29084D02*
X74814Y-29090D01*
X74808Y-29953D02*
X74808Y-29084D01*
X73711Y-31050D02*
X74808Y-29953D01*
X71963Y-31050D02*
X73711Y-31050D01*
X71952Y-31060D02*
X71963Y-31050D01*
X82185Y-28534D02*
X79661Y-28534D01*
X79661Y-28534D02*
X79216Y-28979D01*
X75797Y-42274D02*
X75797Y-43557D01*
X79035Y-45118D02*
X79452Y-45535D01*
X78389Y-45118D02*
X79035Y-45118D01*
X77661Y-44389D02*
X78389Y-45118D01*
X76629Y-44389D02*
X77661Y-44389D01*
X75797Y-43557D02*
X76629Y-44389D01*
X75797Y-41524D02*
X75797Y-41003D01*
X78055Y-38745D02*
X79330Y-38745D01*
X75797Y-41003D02*
X78055Y-38745D01*
X75807Y-41514D02*
X75797Y-41524D01*
X84763Y-39732D02*
X81917Y-39732D01*
X81917Y-39732D02*
X81830Y-39645D01*
X84724Y-42283D02*
X82480Y-42283D01*
X82480Y-42283D02*
X81850Y-42913D01*
X84763Y-38354D02*
X84763Y-38523D01*
X85364Y-40265D02*
X84724Y-40905D01*
X85364Y-39124D02*
X85364Y-40265D01*
X84763Y-38523D02*
X85364Y-39124D01*
X84763Y-38354D02*
X84763Y-38316D01*
X76870Y-38011D02*
X75964Y-38917D01*
X84458Y-38011D02*
X76870Y-38011D01*
X84763Y-38316D02*
X84458Y-38011D01*
X71972Y-35173D02*
X71972Y-36338D01*
X72984Y-36377D02*
X73500Y-36377D01*
X72960Y-36401D02*
X72984Y-36377D01*
X71972Y-36338D02*
X71940Y-36370D01*
X81575Y-37365D02*
X81575Y-36968D01*
X81350Y-37590D02*
X81575Y-37365D01*
X74712Y-37590D02*
X81350Y-37590D01*
X73500Y-36377D02*
X74712Y-37590D01*
X81575Y-36968D02*
X84755Y-36968D01*
X84755Y-36968D02*
X84763Y-36976D01*
X78127Y-31426D02*
X83365Y-31426D01*
X84763Y-32824D02*
X84763Y-32842D01*
X83365Y-31426D02*
X84763Y-32824D01*
X72448Y-38764D02*
X72448Y-39466D01*
X70838Y-39983D02*
X71385Y-40530D01*
X70838Y-39983D02*
X70838Y-39079D01*
X72448Y-39466D02*
X71385Y-40530D01*
X72740Y-35173D02*
X73246Y-35173D01*
X73246Y-35173D02*
X73250Y-35170D01*
X72228Y-36920D02*
X72228Y-37171D01*
X71578Y-37271D02*
X71807Y-37500D01*
X71807Y-37500D02*
X71900Y-37500D01*
X71578Y-37271D02*
X71578Y-36208D01*
X72228Y-37171D02*
X71900Y-37500D01*
X72720Y-32122D02*
X72720Y-31801D01*
X72720Y-31801D02*
X73116Y-31406D01*
G54D30*
X67972Y-44056D02*
X69156Y-44056D01*
X69156Y-44056D02*
X69200Y-44100D01*
X78127Y-31801D02*
X78598Y-31801D01*
X78598Y-31801D02*
X78600Y-31800D01*
X67188Y-37700D02*
X66700Y-37700D01*
X66700Y-37700D02*
X66600Y-37600D01*
X67223Y-41447D02*
X66547Y-41447D01*
X66547Y-41447D02*
X66500Y-41400D01*
G54D29*
X71716Y-35173D02*
X71716Y-36070D01*
X71716Y-36070D02*
X71578Y-36208D01*
X72228Y-35173D02*
X72228Y-36920D01*
X72228Y-36920D02*
X72228Y-36952D01*
X71578Y-36208D02*
X71566Y-36220D01*
G54D30*
X67924Y-36791D02*
X67791Y-36791D01*
X67188Y-38129D02*
X67932Y-38129D01*
X67791Y-36791D02*
X67188Y-37393D01*
X67188Y-37822D02*
X67188Y-38129D01*
X67188Y-37393D02*
X67188Y-37700D01*
X67188Y-37700D02*
X67188Y-37822D01*
X67007Y-36646D02*
X67779Y-36646D01*
X67779Y-36646D02*
X67924Y-36791D01*
X64664Y-30779D02*
X64200Y-30779D01*
X64055Y-31988D02*
X64003Y-32039D01*
X64743Y-31988D02*
X64055Y-31988D01*
X64200Y-30779D02*
X64003Y-30976D01*
X64003Y-30976D02*
X64003Y-32039D01*
X64448Y-42993D02*
X64448Y-43200D01*
X64448Y-43200D02*
X64728Y-43480D01*
X64728Y-43480D02*
X65279Y-43480D01*
X65354Y-43405D02*
X65279Y-43480D01*
X65354Y-43405D02*
X65354Y-42894D01*
X80825Y-36968D02*
X80825Y-36369D01*
X80825Y-36369D02*
X81584Y-35610D01*
X81536Y-35562D02*
X81536Y-34753D01*
X81536Y-35562D02*
X81584Y-35610D01*
G54D29*
X80986Y-36929D02*
X80825Y-36968D01*
X80786Y-36929D02*
X80825Y-36968D01*
G54D30*
X79350Y-43813D02*
X78663Y-43813D01*
X78663Y-43813D02*
X78400Y-43550D01*
X79330Y-40545D02*
X78245Y-40545D01*
X78245Y-40545D02*
X78200Y-40500D01*
X75197Y-40659D02*
X75197Y-40602D01*
X75197Y-40602D02*
X75750Y-40050D01*
G54D29*
X79330Y-40545D02*
X79330Y-40423D01*
X75197Y-40659D02*
X75197Y-40530D01*
X79350Y-42013D02*
X79162Y-42013D01*
X78569Y-41420D02*
X77488Y-41420D01*
X79162Y-42013D02*
X78569Y-41420D01*
X65493Y-31988D02*
X65700Y-31988D01*
X65700Y-31988D02*
X67251Y-33539D01*
X71696Y-32122D02*
X71696Y-33645D01*
X67393Y-33681D02*
X67251Y-33539D01*
X67688Y-33681D02*
X67393Y-33681D01*
X68110Y-33712D02*
X67688Y-33681D01*
X71342Y-33712D02*
X68110Y-33712D01*
X71696Y-33645D02*
X71342Y-33712D01*
X72567Y-33110D02*
X72583Y-33110D01*
X77532Y-29729D02*
X74865Y-32396D01*
X74865Y-32396D02*
X73409Y-32396D01*
X79216Y-29729D02*
X77532Y-29729D01*
X72567Y-33110D02*
X71911Y-33765D01*
X71911Y-33765D02*
X71740Y-33937D01*
X71740Y-33937D02*
X70921Y-33937D01*
X70921Y-33937D02*
X70692Y-34165D01*
X70692Y-34165D02*
X70692Y-35173D01*
X73297Y-32396D02*
X73409Y-32396D01*
X72583Y-33110D02*
X73297Y-32396D01*
X79216Y-29729D02*
X79130Y-29814D01*
X68054Y-35629D02*
X67274Y-35629D01*
X67274Y-35629D02*
X67007Y-35896D01*
X70692Y-34992D02*
X70692Y-35901D01*
X68054Y-35056D02*
X68054Y-35629D01*
X68145Y-34964D02*
X68054Y-35056D01*
X69255Y-34964D02*
X68145Y-34964D01*
X69476Y-35185D02*
X69255Y-34964D01*
X69476Y-35629D02*
X69476Y-35185D01*
X69728Y-35881D02*
X69476Y-35629D01*
X70673Y-35881D02*
X69728Y-35881D01*
X70692Y-35901D02*
X70673Y-35881D01*
X69204Y-33244D02*
X69204Y-33279D01*
X69204Y-33244D02*
X69208Y-32078D01*
X69208Y-32078D02*
X68748Y-31618D01*
X68748Y-31618D02*
X67251Y-31618D01*
X66413Y-30779D02*
X67251Y-31618D01*
X65414Y-30779D02*
X66413Y-30779D01*
X71440Y-33129D02*
X71440Y-32122D01*
X71200Y-33370D02*
X71440Y-33129D01*
X69295Y-33370D02*
X71200Y-33370D01*
X69204Y-33279D02*
X69295Y-33370D01*
X72484Y-35173D02*
X72484Y-37979D01*
X72484Y-37979D02*
X72448Y-38014D01*
X72448Y-38014D02*
X71074Y-38014D01*
X71074Y-38014D02*
X70838Y-37779D01*
X68405Y-41447D02*
X68405Y-42496D01*
X67972Y-42930D02*
X67972Y-43306D01*
X68405Y-42496D02*
X67972Y-42930D01*
X65866Y-44389D02*
X66624Y-44389D01*
X67707Y-43306D02*
X67972Y-43306D01*
X66624Y-44389D02*
X67707Y-43306D01*
X67814Y-40285D02*
X67814Y-41013D01*
X67814Y-40285D02*
X67814Y-41447D01*
X64448Y-42243D02*
X65255Y-42243D01*
X65255Y-42243D02*
X65354Y-42144D01*
X65354Y-42144D02*
X67766Y-42144D01*
X67814Y-42096D02*
X67814Y-41447D01*
X67766Y-42144D02*
X67814Y-42096D01*
X67893Y-40561D02*
X67893Y-40531D01*
X63051Y-43484D02*
X63464Y-43484D01*
X63464Y-43484D02*
X64370Y-44389D01*
M02*
