G04 (created by PCBNEW (2013-07-07 BZR 4022)-stable) date 8/20/2014 2:19:37 PM*
%MOIN*%
G04 Gerber Fmt 3.4, Leading zero omitted, Abs format*
%FSLAX34Y34*%
G01*
G70*
G90*
G04 APERTURE LIST*
%ADD10C,0.00590551*%
%ADD11O,0.06X0.1*%
%ADD12O,0.011811X0.0393701*%
%ADD13O,0.0393701X0.011811*%
%ADD14C,0.0271654*%
%ADD15C,0.05*%
%ADD16C,0.07*%
G04 APERTURE END LIST*
G54D10*
G54D11*
X75852Y-26535D03*
X74852Y-26535D03*
X73852Y-26535D03*
X72852Y-26535D03*
X71852Y-26535D03*
X70852Y-26535D03*
X69852Y-26535D03*
X68852Y-26535D03*
X73452Y-45535D03*
X72452Y-45535D03*
X71452Y-45535D03*
X70452Y-45535D03*
X74452Y-45535D03*
X75452Y-45535D03*
X76452Y-45535D03*
X77452Y-45535D03*
X79452Y-45535D03*
X80452Y-45535D03*
X81452Y-45535D03*
X82452Y-45535D03*
X83452Y-45535D03*
X84452Y-45535D03*
X84452Y-26535D03*
X83452Y-26535D03*
X82452Y-26535D03*
X81452Y-26535D03*
X80452Y-26535D03*
X79452Y-26535D03*
X78452Y-26535D03*
X77452Y-26535D03*
G54D12*
X61082Y-43484D03*
G54D13*
X62066Y-44547D03*
G54D12*
X63051Y-43484D03*
G54D14*
X62539Y-40070D03*
X63547Y-40074D03*
G54D15*
X67326Y-31602D03*
X67326Y-33523D03*
G54D16*
X84771Y-32813D03*
X84771Y-34191D03*
X84771Y-35569D03*
X84771Y-36947D03*
X84771Y-38325D03*
X84771Y-39703D03*
X84732Y-40876D03*
X84732Y-42254D03*
M02*
